<svg width="301" height="235" viewBox="0 0 301 235" fill="none" xmlns="http://www.w3.org/2000/svg">
<path d="M0.322021 234.991H212.439L300.505 0.831055H228.347C228.347 0.831055 217.004 1.73805 208.765 7.15205C200.526 12.5661 189.716 26.3361 189.716 26.3361L0.322021 234.991Z" fill="#00978F"/>
<path d="M228.29 147.793C225.925 155.4 218.039 162.543 208.577 164.028C210.177 166.567 210.834 169.588 210.432 172.563C209.412 181.376 200.97 188.473 191.925 188.563C185.802 188.609 177.499 185.963 171.655 176.735C166.413 168.525 165.671 155.491 166.042 151.548C160.962 156.549 156.801 162.405 153.75 168.848C150.139 177.695 148.174 187.126 147.95 196.679C147.515 197.088 146.991 197.389 146.419 197.56C144.235 197.238 142.182 196.324 140.482 194.916C139.447 194.057 138.662 192.936 138.209 191.669C141.038 177.522 145.538 168.709 152.263 158.643C161.308 145.052 175.27 136.657 191.829 131.601C203.796 127.937 216.229 127.148 224.762 134.384C229.357 138.192 229.635 143.665 228.29 147.793ZM157.79 140.279C154.961 145.01 147.214 152.617 141.09 156.56C128.334 164.724 119.15 165.28 114.558 162.36C114.031 162.037 113.547 161.647 113.12 161.2C109.548 157.443 110.151 150.764 114.326 145.29C116.158 142.804 118.671 140.903 121.562 139.817C120.512 139.291 119.623 138.492 118.986 137.505C118.35 136.518 117.99 135.378 117.944 134.205C117.387 128.732 121.516 121.542 127.221 118.62C132.23 116.069 143.038 113.52 150.97 125.346C153.987 129.95 156.286 134.986 157.789 140.282L157.79 140.279ZM210.204 90.555C209.504 83.737 202.226 81.232 194.204 84.664C190.449 86.3038 187.174 88.8745 184.689 92.133C185.06 89.025 184.179 86.289 181.952 84.665C177.546 81.465 169.521 83.83 164.052 89.765C158.924 95.4545 155.939 102.753 155.61 110.406C155.471 115.74 157.836 127.568 165.629 135.732C186.409 127.893 197.588 115.88 201.855 110.916C206.772 105.164 208.855 100.108 209.74 96.398C210.202 94.4869 210.357 92.5147 210.2 90.555H210.204Z" fill="#82C341"/>
<path d="M201.851 110.918C206.768 105.166 208.851 100.11 209.736 96.4C209.782 96.214 209.829 96.029 209.875 95.8C208.854 99.928 200.134 110.6 188.075 119.688C175.551 129.104 168.408 133.835 165.675 135.688C186.405 127.897 197.583 115.881 201.851 110.918Z" fill="#3CB14A"/>
<path d="M141.088 156.514C147.211 152.571 154.957 144.964 157.788 140.233C152.315 145.433 144.244 153.174 130.375 159.297C123.51 162.219 116.784 163.332 114.558 162.266C119.148 165.233 128.332 164.678 141.088 156.514Z" fill="#3CB14A"/>
<path d="M228.29 147.793C228.626 146.754 228.844 145.681 228.939 144.593C228.497 147.166 227.527 149.619 226.091 151.799C224.654 153.978 222.781 155.836 220.59 157.256C216.321 160.096 211.234 161.449 206.118 161.106C207.06 161.952 207.887 162.919 208.576 163.982C218.039 162.544 225.924 155.401 228.29 147.793Z" fill="#3CB14A"/>
<path d="M167.341 143.155C167.295 143.201 167.248 143.201 167.248 143.248C167.25 143.224 167.26 143.201 167.277 143.184C167.294 143.167 167.317 143.157 167.341 143.155Z" fill="#F9ED32"/>
<path d="M167.248 143.201C152.359 153.869 147.303 173.072 146.468 197.517C147.04 197.346 147.564 197.045 147.999 196.636C148.227 187.084 150.192 177.653 153.799 168.805C156.85 162.362 161.01 156.506 166.091 151.505C166.359 148.699 166.793 145.911 167.391 143.156C167.339 143.152 167.288 143.168 167.248 143.201Z" fill="#3CB14A"/>
<path d="M0.320999 234.991H212.438L300.504 0.831055H228.346C228.346 0.831055 217.003 1.73805 208.764 7.15205C200.525 12.5661 189.715 26.3361 189.715 26.3361L0.320999 234.991Z" fill="url(#paint0_linear)"/>
<defs>
<linearGradient id="paint0_linear" x1="137.505" y1="55.6245" x2="265.695" y2="196.051" gradientUnits="userSpaceOnUse">
<stop stop-opacity="0"/>
<stop offset="1" stop-opacity="0.078"/>
</linearGradient>
</defs>
</svg>
