<svg width="301" height="235" viewBox="0 0 301 235" fill="none" xmlns="http://www.w3.org/2000/svg">
<path d="M0.322021 234.16H212.439L300.505 0H228.347C228.347 0 217.004 0.906999 208.765 6.321C200.526 11.735 189.716 25.505 189.716 25.505L0.322021 234.16Z" fill="#022A5B"/>
<path d="M131.426 153.115C129.319 153.115 127.831 153.734 126.716 154.354C124.236 155.47 121.509 156.834 117.914 158.569C117.914 158.569 112.212 154.478 111.84 154.23C109.856 152.867 107.997 153.858 107.377 155.098C105.269 159.189 101.303 167.495 99.1952 175.18C98.9472 176.048 99.1952 177.536 100.683 177.908C101.551 178.156 102.914 178.404 104.402 178.528C106.509 178.775 106.385 180.511 106.385 181.503C106.385 182.742 106.385 191.296 106.385 194.147C106.385 195.883 107.749 201.709 114.443 201.709C114.939 201.709 129.815 201.709 129.815 201.709C135.641 201.709 140.228 196.875 140.228 191.668C140.228 188.197 140.228 164.395 140.228 161.668C140.352 156.462 135.641 152.991 131.426 153.115Z" fill="white"/>
<path d="M155.724 201.709H205.434V207.288H147.046C147.046 207.288 144.939 202.453 144.939 196.998C144.939 196.75 144.939 159.437 144.939 159.437C144.939 156.461 143.699 151.503 137.625 150.139C137.501 150.139 137.253 150.015 137.129 150.015C119.897 145.924 102.17 149.643 92.129 153.982C90.2695 154.85 89.8976 153.362 90.0216 152.743C89.7737 144.313 96.2199 134.643 107.997 134.148C117.542 133.9 122.873 137.371 124.856 138.362C124.98 138.486 125.228 138.362 125.476 138.115C127.211 136.379 131.054 133.776 135.269 132.536C135.889 132.412 136.013 131.42 135.269 131.42C126.22 130.429 118.286 131.42 114.939 132.04C114.195 132.164 113.575 131.668 113.947 131.048C114.195 130.553 114.319 130.305 114.691 129.437C115.559 127.701 117.666 125.842 120.393 125.098C127.459 123.115 139.608 121.379 150.517 121.379C162.666 121.255 175.558 123.734 178.781 124.478C179.525 124.602 180.641 124.974 180.889 124.974C181.508 124.974 181.756 125.842 181.385 126.214C181.137 126.462 180.517 127.082 180.145 127.453C179.773 127.949 179.525 128.693 180.269 129.437L202.831 149.643H187.459H187.335C186.343 149.643 185.351 150.511 185.351 151.627C185.351 152.619 186.219 153.61 187.211 153.61H187.335H207.293L213.368 159.189H187.211H187.087C186.095 159.189 185.227 160.304 185.227 161.172C185.227 162.04 185.971 163.156 187.087 163.156H187.211H217.831L224.029 168.858H171.095H170.971C169.98 168.858 169.112 169.974 169.112 170.842C169.112 171.957 169.856 172.949 170.971 172.949H171.095H224.029V178.527H171.219H171.095C169.856 178.527 169.236 179.643 169.236 180.635C169.236 181.503 170.104 182.494 171.219 182.494H171.343H224.029V188.073H154.98H154.856C153.74 188.073 152.996 189.065 152.996 190.18C152.996 191.172 153.864 192.164 154.856 192.164H154.98H205.434V197.742H155.724H154.732C153.74 197.742 152.996 198.858 152.996 199.85C152.996 200.841 153.864 201.833 154.732 201.833L155.724 201.709Z" fill="white"/>
<path d="M186.839 220.8V226.502C186.839 226.502 179.401 226.502 175.062 226.502C164.525 226.378 157.707 220.8 157.707 220.8H186.839Z" fill="white"/>
<path d="M186.839 211.255V216.833H152.996C151.385 215.221 149.401 212.37 148.906 211.255H186.839Z" fill="white"/>
</svg>
