<svg width="301" height="235" viewBox="0 0 301 235" fill="none" xmlns="http://www.w3.org/2000/svg">
<path d="M0.321899 234.991H212.439L300.505 0.831055H228.347C228.347 0.831055 217.004 1.73805 208.765 7.15205C200.526 12.5661 189.716 26.3361 189.716 26.3361L0.321899 234.991Z" fill="url(#paint0_linear)"/>
<path d="M89.581 234.989C87.026 231.422 83.891 226.618 79.64 219.74C76.825 224.582 73.948 229.73 71.186 234.989H56.297C51.733 217.948 47.735 200.254 45.209 185.537L54.648 175.137C57.413 190.967 61.0205 206.638 65.455 222.083C68.155 217.658 70.855 213.433 73.47 209.49C66.7303 198.194 60.621 186.534 55.17 174.563L63.433 165.463C68.995 178.317 67.901 177.188 80.993 198.517C87.733 188.999 94.012 181.088 94.575 180.329C96.499 177.737 101.93 175.457 104.446 182.035C104.446 182.035 106.204 188.114 107.046 190.612C108.297 194.938 110.494 201.048 112.072 205.083C112.683 206.892 113.594 208.586 114.767 210.093C115.333 210.758 115.879 210.893 116.262 210.332C116.772 209.587 116.978 207.978 116.889 205.687C116.666 203.329 117.202 196.63 112.379 178.867L110.448 173.508C109.846 171.638 109.045 169.838 108.058 168.139C106.917 166.639 106.601 166.264 106.97 164.508C107.564 161.669 109.711 157.666 112.686 157.088C115.518 156.536 117.155 159.058 118.311 162.988C117.357 150.782 118.543 149.065 119.564 147.576C121.479 144.776 130.152 142.767 130.686 148.426C131.233 154.232 127.61 156.576 124.948 163.302C123.448 167.09 123.866 171.587 125.298 178.816C127.217 188.127 131.041 195.297 134.862 199.78C136.062 201.015 136.598 201.719 136.397 202.759C134.391 213.151 129.332 211.89 125.639 207.906C124.383 206.359 123.303 204.677 122.42 202.891C125.08 215.053 124.576 222.998 122.343 226.264C119.343 230.646 114.61 230.088 110.08 224.774C107.599 221.644 105.534 218.206 103.937 214.546C101.867 209.929 99.237 203.322 97.337 197.721C96.826 196.258 96.337 194.876 95.883 193.629C93.656 196.99 90.512 201.829 86.933 207.606C87.033 207.832 87.073 207.99 87.039 208.053C94.667 219.653 98.139 223.453 105.467 232.925C106.017 233.636 106.609 234.325 107.195 234.991L89.581 234.989ZM175.474 201.951C168.693 189.622 158.414 158.425 158.217 157.888C156.046 163.026 154.234 168.309 152.794 173.698C152.598 174.432 152.225 175.108 151.709 175.665C151.192 176.223 150.548 176.647 149.83 176.899C149.113 177.152 148.346 177.226 147.594 177.114C146.842 177.003 146.128 176.71 145.515 176.261C143.441 174.898 139.298 172.298 141.294 166.724C144.637 157.626 148.648 148.786 153.294 140.279C147.619 119.326 142.753 97.1789 140.402 80.6629L156.984 62.395C157.449 63.319 157.943 64.381 158.484 65.6049C165.774 82.1339 163.371 78.978 177.532 102.047C177.902 101.536 178.265 101.036 178.622 100.547C180.154 98.4559 185.322 91.864 187.638 94.626C191.421 99.126 189.869 100.562 185.763 106.988C184.995 108.188 184.176 109.488 183.325 110.843C183.504 111.203 183.591 111.452 183.546 111.534C191.174 123.134 194.646 126.934 201.973 136.406C205.18 140.548 209.825 143.806 206.221 148.637C202.617 153.468 196.668 150.427 192.821 146.564C186.038 139.748 176.034 123.096 175.96 123.003C172.797 128.418 169.502 134.326 166.384 140.394C170.55 155.438 183.738 188.519 188.267 195.53C191.041 199.822 191.356 202.847 189.441 204.762C188.738 205.423 187.903 205.927 186.99 206.24C185.876 206.662 184.696 206.881 183.505 206.886C181.842 206.881 180.213 206.418 178.796 205.547C177.379 204.677 176.23 203.432 175.474 201.951ZM161.907 125.351C164.629 120.928 167.343 116.751 169.939 112.9C162.464 100.156 155.278 86.6479 150.712 75.7999C152.981 90.671 157.133 108.34 161.908 125.353L161.907 125.351ZM85.647 168.187C82.965 165.041 82.786 159.577 85.247 155.987C87.708 152.397 91.878 152.026 94.56 155.173C97.242 158.32 97.418 163.782 94.96 167.373C94.681 167.784 94.3643 168.167 94.014 168.519C93.4894 169.075 92.8594 169.522 92.1607 169.832C91.4619 170.143 90.7084 170.311 89.944 170.328C89.1143 170.309 88.2991 170.108 87.5563 169.737C86.8135 169.367 86.1616 168.838 85.647 168.187ZM203.604 131.481C201.714 130.291 199.816 123.922 199.568 122.733C199.141 120.699 201.119 120.179 202.168 120.379C204.468 120.816 213.968 120.295 213.968 114.497C213.968 110.776 208.634 111.214 205.436 110.432C193.616 107.547 191.12 93.002 191.147 89.215C191.206 81.04 193.734 77.787 195.715 75.686C201.383 69.631 206.725 70.9179 208.246 73.326C209.478 75.3366 210.116 77.6549 210.086 80.013C210.132 81.203 208.659 83.027 207.392 82.7859C204.317 82.201 201.14 80.493 198.992 85.5639C197.268 89.6359 201.057 93.757 203.603 95.058C207.703 97.132 214.142 95.3579 218.557 99.8429C229.968 111.436 222.17 123.81 219.078 127.643C218.853 127.92 218.613 128.185 218.36 128.437C216.285 130.513 212.401 132.897 208.443 132.897C206.725 132.915 205.041 132.422 203.604 131.481ZM224.604 100.224C222.275 96.9796 220.376 93.4468 218.956 89.714C217.104 85.004 214.8 78.2799 213.156 72.5939C211.777 67.9599 209.939 63 209.005 61.615C208.694 61.2798 208.476 60.8688 208.373 60.4231C208.271 59.9774 208.287 59.5125 208.42 59.075C208.74 57.2404 209.469 55.5015 210.553 53.987C212.97 51.14 218.434 49.633 220.253 56.004L220.908 58.4549C221.108 58.8919 222.475 63.4209 223.196 65.9549C224.239 70.334 226.143 76.542 227.527 80.645C228.052 82.4819 228.881 84.2179 229.98 85.781C230.514 86.471 231.055 86.632 231.462 86.0919C232.008 85.3699 232.29 83.7749 232.311 81.4819C232.13 78.0319 231.729 74.597 231.111 71.198L230.797 69.006C230.514 67.2309 228.417 53.081 228.191 49.306C227.047 38.474 228.281 28.764 231.291 24.784C232.164 23.5354 233.454 22.6395 234.929 22.2578C236.404 21.8761 237.967 22.0336 239.336 22.702C241.755 23.867 242.023 23.86 244.26 23.002C247.709 21.581 249.396 21.622 250.532 23.09C251.332 24.125 251.732 25.173 252.707 29.29C253.558 32.353 254.63 35.843 255.532 38.47C257.453 44.07 258.993 47.644 261.425 46.507C262.348 46.076 262.916 44.156 262.773 40.884C262.564 37.4304 262.007 34.0068 261.111 30.665C260.237 27.026 263.897 24.859 265.202 27.716C267.147 32.115 268.336 36.8111 268.717 41.606C269.788 50.66 268.611 56.792 265.745 60.575C263.425 63.641 260.385 64.344 257.432 62.312L256.762 61.979C256.291 61.5509 255.886 61.5629 255.682 61.8319C255.478 62.1009 255.475 62.455 255.467 63.338C255.815 70.385 255.483 75.271 252.824 78.7869C248.824 84.076 242.346 83.028 237.554 76.904C238.209 79.7999 238.669 82.7365 238.931 85.694C239.472 93.528 239.161 99.154 236.774 102.309C236.529 102.635 236.262 102.943 235.974 103.232C235.468 103.78 234.855 104.219 234.174 104.524C233.494 104.829 232.758 104.993 232.012 105.006C229.645 105.006 227.057 103.393 224.606 100.224H224.604ZM239.042 31.413C238.961 31.4954 238.886 31.5829 238.816 31.675C237.861 32.936 237.488 37.446 238.116 42.719C238.93 50.368 242.89 63.483 245.358 66.673C246.358 67.9729 247.572 68.2869 248.258 67.3869C249.347 65.9429 249.585 61.793 248.821 56.348C247.935 49.141 243.579 34.98 241.377 32.133C240.81 31.4 240.304 31.033 239.836 31.033C239.685 31.0399 239.537 31.0771 239.401 31.1424C239.265 31.2077 239.144 31.2997 239.044 31.413H239.042ZM201.189 44.396C198.508 41.251 198.328 35.786 200.789 32.196C203.25 28.606 207.421 28.237 210.103 31.382C212.785 34.527 212.962 39.9899 210.503 43.5819C210.224 43.992 209.908 44.3753 209.558 44.727C209.033 45.2832 208.403 45.7297 207.705 46.0402C207.006 46.3508 206.252 46.5193 205.488 46.536C204.658 46.5175 203.843 46.3162 203.099 45.9463C202.356 45.5763 201.704 45.047 201.189 44.396Z" fill="white"/>
<defs>
<linearGradient id="paint0_linear" x1="116.193" y1="112.291" x2="199.312" y2="234.35" gradientUnits="userSpaceOnUse">
<stop stop-color="#E71618"/>
<stop offset="1" stop-color="#CE1819"/>
</linearGradient>
</defs>
</svg>
