<svg width="301" height="235" viewBox="0 0 301 235" fill="none" xmlns="http://www.w3.org/2000/svg">
<path d="M0.321899 234.991H212.439L300.505 0.831055H228.347C228.347 0.831055 217.004 1.73805 208.765 7.15205C200.526 12.5661 189.716 26.3361 189.716 26.3361L0.321899 234.991Z" fill="url(#paint0_linear)"/>
<path d="M173.249 234.99L137.825 163.782L133.288 152.233L124.176 122.84L127.705 121.658L142.587 149.851L147.203 160.942L174.503 234.987L173.249 234.99ZM131.673 234.99L119.116 167.007L117.933 154.655L117.266 123.895L120.985 123.733L127.529 154.933L128.913 166.867L133.983 234.988L131.673 234.99ZM89.909 234.99L100.423 164.771L103.323 152.709L112.697 123.409L116.267 124.468L112.306 156.098L109.734 167.83L92.082 234.99H89.909ZM52.632 234.99L84.604 157.835L90.333 146.835L106.51 120.683L109.718 122.574L98.23 152.3L92.898 163.06L53.481 234.99H52.632ZM153.656 156.098L146.461 145.989L130.518 119.677L133.657 117.677L154.908 141.433L162.068 151.077L212.302 224.919L153.656 156.098ZM105.456 119.165L105.821 119.549L86.59 144.949L78.502 153.819L24.63 208.209L105.456 119.165ZM168.256 143.622L158.295 136.232L135.012 116.132L137.378 113.256L164.921 129.28L174.707 136.24L232.681 181.182L232.063 182.826L168.256 143.622ZM176.62 129.6L165.085 125.04L137.401 111.656L138.943 108.266L169.686 116.609L180.937 120.798L245.232 147.798L244.486 149.782L176.62 129.6ZM181.136 114.783L168.874 112.94L138.894 106.131L139.635 102.48L171.462 103.689L183.362 105.237L256.499 117.837L255.899 119.431L181.136 114.783ZM139.419 98.009L170.589 91.475L182.51 90.095L269.356 83.662L269.256 83.916L182.648 99.904L170.308 101.079L139.578 101.732L139.419 98.009ZM138.719 93.674L167.619 80.288L178.919 76.26L264.131 49.8L181.263 85.785L169.505 89.71L139.711 97.265L138.719 93.674ZM136.241 88.764L161.041 68.777L171.035 62.13L247.311 15.819L175.611 70.805L165.153 77.461L138.075 92.007L136.241 88.764ZM134.458 87.211L189.715 26.34C194.035 20.8986 198.752 15.7846 203.828 11.04L166.334 58.161L157.797 67.152L135.042 87.825L134.458 87.211Z" fill="#E89A1F"/>
<path d="M0.321014 234.991H212.438L300.504 0.831055H228.346C228.346 0.831055 217.003 1.73805 208.764 7.15205C200.525 12.5661 189.715 26.3361 189.715 26.3361L0.321014 234.991Z" fill="url(#paint1_linear)"/>
<defs>
<linearGradient id="paint0_linear" x1="116.193" y1="112.291" x2="199.312" y2="234.35" gradientUnits="userSpaceOnUse">
<stop stop-color="#F10000"/>
<stop offset="1" stop-color="#E2000E"/>
</linearGradient>
<linearGradient id="paint1_linear" x1="137.505" y1="55.6245" x2="265.695" y2="196.051" gradientUnits="userSpaceOnUse">
<stop stop-opacity="0"/>
<stop offset="1" stop-opacity="0.078"/>
</linearGradient>
</defs>
</svg>
