<svg width="301" height="235" viewBox="0 0 301 235" fill="none" xmlns="http://www.w3.org/2000/svg">
<path d="M0.322021 234.991H212.439L300.505 0.831177H228.347C228.347 0.831177 217.004 1.73818 208.765 7.15218C200.526 12.5662 189.716 26.3362 189.716 26.3362L0.322021 234.991Z" fill="url(#paint0_linear)"/>
<path d="M122.03 209C124.176 208.978 126.305 208.627 128.345 207.96C130.604 207.224 132.768 206.222 134.792 204.977C139.455 202.037 143.582 198.325 146.999 194L285.143 41.6761L280.184 54.8631L154 194C150.583 198.325 146.455 202.037 141.792 204.976C139.769 206.221 137.605 207.223 135.346 207.959C133.297 208.63 131.156 208.98 129 208.999L122.03 209ZM93.0301 209C95.1761 208.978 97.3062 208.627 99.3461 207.96C101.605 207.224 103.769 206.222 105.793 204.977C110.455 202.037 114.583 198.325 118 194L293.187 0.830078H300.505L293.646 19.0691L135 194C131.583 198.325 127.455 202.037 122.792 204.976C120.769 206.221 118.605 207.223 116.346 207.959C114.297 208.63 112.156 208.98 110 208.999L93.0301 209ZM45.0301 209C47.1761 208.978 49.3062 208.627 51.3461 207.96C53.6049 207.224 55.7686 206.222 57.7921 204.977C62.4548 202.037 66.5832 198.325 70.0001 194L245.187 0.830078H282.187L107 194C103.583 198.325 99.4541 202.037 94.7911 204.976C92.7677 206.221 90.604 207.223 88.3451 207.959C86.296 208.63 84.156 208.981 82.0001 209H45.0301Z" fill="#002F5F"/>
<path d="M150.03 209C152.176 208.978 154.305 208.627 156.345 207.96C158.604 207.224 160.768 206.222 162.792 204.977C167.455 202.037 171.583 198.325 175 194L265.305 94.4252L239.092 164.125L212 194C208.583 198.325 204.455 202.037 199.792 204.976C197.769 206.221 195.605 207.223 193.346 207.959C191.297 208.63 189.156 208.98 187 208.999L150.03 209Z" fill="#B02218"/>
<defs>
<linearGradient id="paint0_linear" x1="116.193" y1="112.291" x2="199.312" y2="234.35" gradientUnits="userSpaceOnUse">
<stop stop-color="#FDFDFD"/>
<stop offset="1" stop-color="#E7E8E6"/>
</linearGradient>
</defs>
</svg>
