<svg width="301" height="235" viewBox="0 0 301 235" fill="none" xmlns="http://www.w3.org/2000/svg">
<path d="M0.322021 234.991H212.439L300.505 0.831055H228.347C228.347 0.831055 217.004 1.73805 208.765 7.15205C200.526 12.5661 189.716 26.3361 189.716 26.3361L0.322021 234.991Z" fill="url(#paint0_linear)"/>
<path d="M172.587 177.231C172.587 173.058 174.376 172.462 178.549 174.846C185.704 179.019 192.859 182.596 192.859 182.596C192.859 180.212 195.244 178.423 199.418 179.615C203.592 180.808 207.765 181.404 207.765 181.404C207.765 181.404 205.38 176.038 204.188 173.654C202.399 169.481 204.188 167.096 205.977 166.5C205.977 166.5 203.592 164.712 201.803 163.519C198.225 161.135 198.822 158.154 202.399 156.962C207.169 154.577 213.728 152.192 213.728 152.192C211.939 151 209.554 148.019 211.939 143.846C214.324 140.269 218.498 134.904 218.498 134.904C218.498 134.904 211.939 134.904 207.169 134.904C202.995 134.904 201.803 131.327 201.803 128.942C201.803 128.942 195.244 133.712 190.474 136.692C186.3 139.673 182.723 136.692 183.319 131.923C184.512 124.769 185.108 116.423 185.108 116.423C182.723 118.808 178.549 118.212 176.164 114.635C173.183 108.673 170.202 101.519 170.202 101.519C170.202 101.519 167.221 108.673 164.239 114.635C162.451 118.212 158.277 118.808 155.892 117.019C155.892 117.019 156.488 125.365 157.681 132.519C158.277 136.692 154.7 139.673 150.526 136.692C145.756 133.712 138.601 128.942 138.601 128.942C138.601 131.327 137.408 134.308 133.235 134.904C128.465 134.904 121.906 134.904 121.906 134.904C121.906 134.904 126.08 140.269 128.465 143.846C130.85 147.423 128.465 151 126.676 152.192C126.676 152.192 132.638 155.173 138.005 156.962C141.582 158.75 142.775 161.135 138.601 163.519C137.408 164.712 134.427 166.5 134.427 166.5C136.812 167.096 138.601 169.481 136.812 173.654C135.62 176.038 133.235 181.404 133.235 181.404C133.235 181.404 137.408 180.212 141.582 179.615C145.756 178.423 147.545 180.808 148.141 182.596C148.141 182.596 155.296 178.423 162.451 174.846C166.028 172.462 168.413 173.654 168.413 177.231V187.365C168.413 193.327 167.221 199.288 165.432 202.865C138.601 199.885 115.944 178.423 115.944 149.808C115.944 120.596 140.39 96.75 170.798 96.75C201.207 96.75 225.653 120.596 225.653 149.808C225.653 177.231 204.188 199.885 176.761 202.865V210.019C208.958 207.038 234 181.404 234 149.808C234 115.827 205.38 89 170.202 89C135.62 89 107 115.827 107 149.212C107 178.423 129.061 202.865 158.277 208.231C163.047 209.423 166.028 210.019 169.009 213C171.991 207.038 172.587 195.115 172.587 188.558V177.231Z" fill="#F01428"/>
<defs>
<linearGradient id="paint0_linear" x1="116.193" y1="112.291" x2="199.312" y2="234.35" gradientUnits="userSpaceOnUse">
<stop stop-color="#000612"/>
<stop offset="1" stop-color="#01273D"/>
</linearGradient>
</defs>
</svg>
