<svg width="301" height="235" viewBox="0 0 301 235" fill="none" xmlns="http://www.w3.org/2000/svg">
<path d="M0 234.16H212.117L300.183 0H228.025C228.025 0 216.682 0.906999 208.443 6.321C200.204 11.735 189.394 25.505 189.394 25.505L0 234.16Z" fill="#010A83"/>
<path fill-rule="evenodd" clip-rule="evenodd" d="M249.266 135.384C226.376 129.437 205.632 127.74 205.632 127.74C205.632 127.74 204.773 118.293 207.566 100.261C204.129 107.774 197.686 123.878 196.612 135.899C223.245 138.046 241.503 144.054 241.503 144.054C241.503 144.054 214.441 154.359 199.406 166.166C202.198 172.821 208.211 192.14 211.647 207.166C205.848 201.8 188.234 187.419 175.562 179.905C164.204 184.272 139.122 206.794 115.98 234.16H127.377C141.045 222.179 157.32 209.519 175.562 198.58C181.671 202.129 202.436 215.632 215.799 224.369L222.532 206.466C219.707 192.406 216.403 176.675 214.655 170.887C221.652 166.036 231.259 160.297 241.886 155.008L249.266 135.384ZM157.738 124.947C181.579 101.978 204.775 80.9426 229.69 73C188.881 101.765 172.986 132.247 172.986 132.247C134.97 134.179 116.069 142.339 116.069 142.339C116.069 142.339 139.695 153.287 152.796 163.806C143.776 176.256 128.74 202.443 120.793 221.333C122.941 199.867 134.326 166.807 134.326 166.807C134.326 166.807 125.951 158.438 90.9417 140.406C94.3782 138.903 127.239 126.665 157.738 124.947Z" fill="#3FBBEF"/>
</svg>
