<svg width="301" height="235" viewBox="0 0 301 235" fill="none" xmlns="http://www.w3.org/2000/svg">
<path d="M0.322021 234.991H212.439L300.505 0.831055H228.347C228.347 0.831055 217.004 1.73805 208.765 7.15205C200.526 12.5661 189.716 26.3361 189.716 26.3361L0.322021 234.991Z" fill="#003458"/>
<path d="M194.547 234.989C197.989 233.072 201.275 230.889 204.377 228.46C208.727 225.035 213.383 222.019 218.287 219.45L212.443 234.99L194.547 234.989ZM130.262 234.989C127.016 232.811 124.03 230.269 121.362 227.411C119.942 225.899 117.943 224.572 118.708 221.959C119.012 221.668 119.417 221.506 119.839 221.506C120.26 221.506 120.665 221.668 120.969 221.959C126.057 226.086 132.308 228.21 137.74 231.718C139.617 232.934 141.57 234.027 143.588 234.992L130.262 234.989ZM258.939 71.459C256.785 67.872 253.518 65.653 250.445 63.168C247.292 60.7216 244.366 57.9959 241.702 55.024C240.215 53.298 238.446 51.518 239.759 48.848C244.832 47.319 248.606 50.499 251.831 53.181C259.356 59.4589 266.511 66.1671 273.261 73.272L267.883 87.572C264.899 82.202 262.101 76.726 258.939 71.459Z" fill="#0163A2"/>
<path d="M88.2651 187.38C80.4221 178.102 74.6811 167.947 73.5001 155.48C73.4687 155.147 73.4354 154.813 73.4001 154.48L78.771 148.562C79.6163 154.536 81.384 160.343 84.0111 165.775C85.9651 169.993 88.4921 173.969 89.9831 178.375C91.1211 181.737 92.8551 185.175 91.1411 188.913C90.9737 188.951 90.8027 188.97 90.6311 188.971C89.552 188.974 88.9081 188.14 88.2651 187.38ZM225.865 43.619C224.21 41.088 221.829 40.807 219.407 40.619C213.782 40.184 208.207 39.098 202.52 39.363C199.969 39.481 197.426 39.222 196.82 35.885C196.448 33.837 194.942 33.735 193.376 34.273C189.488 35.606 185.419 35.002 181.482 35.403L189.721 26.331L189.877 26.131C204.719 28.1508 219.088 32.7769 232.321 39.796C235.197 41.34 238.008 43.289 238.021 47.203C236.643 47.6172 235.215 47.8363 233.776 47.854C232.202 47.9048 230.642 47.5402 229.254 46.797C227.865 46.0537 226.697 44.958 225.866 43.62L225.865 43.619Z" fill="#349AB8"/>
<path d="M118.911 234.989C117.759 234.375 116.618 233.726 115.487 233.041C109.975 229.624 105.254 225.074 101.637 219.691C95.9331 211.531 89.5821 203.831 83.5991 195.869C76.8549 187.147 72.7302 176.687 71.7061 165.71C71.4521 162.945 71.1001 160.187 70.7201 157.431L74.3671 153.414C76.0858 166.552 81.8269 178.837 90.8031 188.583C92.7031 189.464 92.9101 191.43 93.6171 193.052C96.8411 200.452 100.87 206.804 108.654 210.719C113.204 213.142 116.779 217.06 118.778 221.811C122.275 227.278 127.06 231.803 132.714 234.99L118.911 234.989ZM244.874 50.483C243.228 49.7198 241.522 49.0927 239.774 48.608C238.817 48.818 238.096 48.596 237.832 47.542C235.343 41.671 229.962 39.318 224.643 37.164C213.155 32.6447 201.259 29.2401 189.119 26.997L189.719 26.334C189.719 26.334 190.645 25.155 192.16 23.351C201.133 22.078 210.022 22.689 218.846 26.735C233.217 33.322 247.346 40.345 260.382 49.329C266.582 53.6 271.582 59.129 276.471 64.745L272.688 74.805C264.171 65.857 255.882 56.659 244.874 50.483Z" fill="#B0CA66"/>
<path d="M157.317 209.255C152.239 205.231 147.322 200.997 142.459 196.714C138.621 193.334 137.035 188.919 137.016 183.822C136.985 175.522 138.316 167.235 137.426 158.922C137.273 157.486 137.738 155.599 136.161 154.89C134.29 154.049 133.834 156.19 132.788 157.099C131.852 157.914 131.465 159.858 129.867 159.317C128.269 158.776 128.875 157.017 128.925 155.797C129.168 149.79 129.846 143.877 132.901 138.485C134.856 135.034 137.424 134.124 140.676 136.485C142.861 138.075 143.61 137.271 145.748 135.729C150.403 132.372 155.963 129.206 161.909 129.929C166.709 130.512 168.342 129.018 168.864 124.805C169.007 123.483 169.312 122.184 169.773 120.937C170.879 118.108 173.016 117.537 174.358 120.288C176.898 125.5 181.458 128.295 185.796 131.537C186.368 131.996 187.058 132.287 187.786 132.377C188.515 132.466 189.254 132.35 189.92 132.043C199.247 128.943 207.569 130.092 214.528 137.6C215.704 138.87 216.983 140.4 218.695 137.51C219.787 135.665 221.018 138.281 222.276 138.61C223.56 138.948 225.053 140.868 226.09 138.816C226.842 137.326 224.855 136.79 223.913 136.004C223.313 135.504 222.3 135.46 222.267 134.04C225.411 133.7 227.967 135.154 230.434 136.686C232.521 137.986 232.104 140.11 230.928 141.486C222.628 151.214 223.749 162.807 224.228 174.262C224.401 175.918 224.098 177.589 223.354 179.078C222.61 180.568 221.456 181.814 220.028 182.67C218.846 183.288 217.8 184.139 216.954 185.17C214.978 188.213 212.554 189.124 208.92 188.419C205.668 187.788 202.805 188.427 203.837 193.143C204.552 196.407 202.072 197.121 199.581 197.205C193.617 197.405 188.845 194.09 183.836 191.554C182.685 190.971 182.601 189.667 182.557 188.477C182.39 183.977 179.889 182.347 175.635 182.83C170.267 183.439 165.035 182.048 159.735 181.697C158.726 181.629 157.507 181.569 157.248 180.457C156.948 179.165 157.988 178.369 159.013 177.74C160.701 176.703 162.513 176.928 164.348 177.175C175.329 178.648 186.248 177.427 197.157 176.312C199.709 176.053 199.698 175.929 200.757 181.602C201.874 175.602 202.957 169.667 201.004 163.651C200.832 162.918 200.459 162.247 199.928 161.713C199.397 161.179 198.728 160.803 197.996 160.626C192.908 159.486 190.096 156.115 188.447 151.408C187.988 150.101 187.463 148.497 185.463 148.614C185.921 154.722 185.382 155.422 179.475 152.922C173.999 150.603 169.052 150.747 163.597 152.693C159.197 154.264 157.297 152.274 157.888 147.546C157.988 146.733 158.457 145.82 157.312 145.589C156.986 145.56 156.658 145.606 156.353 145.724C156.047 145.842 155.773 146.029 155.552 146.27C155.047 147.119 154.629 148.018 154.305 148.952C151.755 154.483 151.073 161.343 143.727 163.449C143.169 163.673 142.702 164.079 142.401 164.6C142.1 165.121 141.982 165.728 142.067 166.324C142.998 171.375 141.734 176.471 142.144 181.467C142.598 181.528 143.06 181.478 143.49 181.321C143.921 181.164 144.307 180.905 144.615 180.567C145.565 179.8 146.424 179.032 147.664 180.229C149.715 182.208 148.457 184.689 147.88 186.829C145.7 194.916 146.353 196.096 154.723 198.229C158.758 199.32 162.998 199.407 167.074 198.483C168.538 198.14 170.202 197.793 171.038 199.498C171.838 201.139 170.638 202.264 169.589 203.379C168.254 204.615 167.06 205.994 166.029 207.493C164.258 210.516 163.307 211.946 161.961 211.946C160.88 211.942 159.543 211.018 157.317 209.255ZM182.161 174.285C177.547 173.773 172.932 173.277 168.321 172.734C168.129 172.717 167.936 172.712 167.743 172.719C167.116 172.73 166.465 172.741 166.168 171.97C165.777 170.958 166.638 170.536 167.25 170.013C173.657 164.387 181.897 161.294 190.423 161.313C194.51 161.284 196.996 163.637 198.608 166.778C199.973 169.437 199.23 171.707 195.931 173.004C193.098 174.031 190.093 174.507 187.081 174.404C185.449 174.395 183.81 174.322 182.161 174.284V174.285ZM220.248 116.326C215.391 114.216 210.782 111.532 206.083 109.063C196.283 103.915 186.261 104.575 176.132 107.851C175.507 108.076 174.912 108.378 174.362 108.751C171.349 110.67 169.122 110.378 166.862 107.762C166.236 107.089 165.458 106.575 164.593 106.263C163.729 105.951 162.802 105.85 161.89 105.969C158.248 106.149 154.608 106.403 150.969 106.657C149.577 106.757 148.219 106.644 147.422 105.377C146.679 104.197 147.406 103.021 148.128 102.188C158.324 90.437 170.192 81.646 186.487 80.784C190.242 80.586 192.71 82.369 194.613 85.469C196.054 87.818 197.302 90.454 200.485 91.791C201.537 89.991 199.355 87.427 201.755 86.72C203.793 86.12 204.742 88.39 205.781 89.831C208.541 93.66 211.638 97.022 216.712 98.213C217.488 95.901 215.257 94.626 215.019 92.774C214.872 91.634 214.196 90.292 215.294 89.522C216.424 88.73 217.513 89.733 218.344 90.508C223.319 95.15 225.244 101.3 226.673 107.667C226.95 108.968 227.07 110.297 227.033 111.626C226.962 115.099 225.598 117.026 223.153 117.026C222.147 116.992 221.159 116.754 220.248 116.326Z" fill="#FEFEFE"/>
<path d="M95.5571 154.387C94.7151 147.487 93.0251 140.715 92.1571 133.819L99.8101 125.388C99.5621 128.063 99.4261 130.761 99.2811 133.419C98.8501 141.313 99.1951 149.249 99.1951 157.379C96.4051 157.225 95.7211 155.72 95.5571 154.387ZM251.657 90.644C248.077 86.29 245.128 81.425 241.735 76.908C238.516 72.8551 234.469 69.5355 229.864 67.171C229.064 66.725 227.901 66.171 228.464 64.921C228.874 64.006 229.844 64.321 230.664 64.411C240.412 65.453 248.197 69.285 251.772 79.149C251.941 79.617 252.012 80.238 252.353 80.509C258.67 85.532 260.144 93.222 263.189 100.06L260.982 105.929C258.63 100.41 255.49 95.2614 251.659 90.644H251.657Z" fill="#7596B4"/>
<path d="M145.279 170.889C145.073 168.511 150.451 162.879 152.711 163.132C154.011 163.278 154.119 164.315 154.225 165.288C154.525 167.982 150.26 172.777 147.525 172.858C147.436 172.864 147.349 172.867 147.264 172.867C146.028 172.867 145.392 172.192 145.279 170.889ZM206.191 126.164C203.891 122.376 201.369 121.102 197.277 122.29C196.229 122.59 194.67 123.168 194.277 121.677C193.777 119.786 195.777 119.734 196.877 119.418C200.907 118.254 204.658 118.176 207.584 122.107C209.154 124.253 211.056 126.135 213.219 127.682C215.141 129.018 217.583 129.605 219.993 130.605C218.616 131.186 217.137 131.484 215.643 131.484C213.742 131.491 211.871 131.005 210.215 130.072C208.558 129.14 207.171 127.793 206.191 126.164ZM217.369 125.212C220.034 124.846 222.694 124.447 225.369 124.134C226.204 124.034 227.117 124.276 227.231 125.269C227.334 126.24 226.469 126.71 225.693 126.82C224.443 127.063 223.178 127.219 221.907 127.288C221.043 127.308 220.185 127.132 219.399 126.772C218.613 126.412 217.919 125.879 217.369 125.212ZM143.69 124.72C142.655 121.85 145.508 121.785 147.169 121.02C152.087 118.767 156.691 119.81 161.096 122.462C156.779 123.058 152.533 124.086 148.421 125.531C147.546 125.904 146.62 126.14 145.673 126.231C145.219 126.246 144.774 126.104 144.412 125.829C144.051 125.554 143.796 125.162 143.69 124.72Z" fill="#E2E5E9"/>
</svg>
