<svg width="301" height="235" viewBox="0 0 301 235" fill="none" xmlns="http://www.w3.org/2000/svg">
<path d="M0.322021 234.991H212.439L300.505 0.831055H228.347C228.347 0.831055 217.004 1.73805 208.765 7.15205C200.526 12.5661 189.716 26.3361 189.716 26.3361L0.322021 234.991Z" fill="#223F9A"/>
<path d="M139.48 127.508C139.312 127.271 139.228 126.984 139.242 126.694C139.255 126.404 139.366 126.127 139.555 125.907C139.741 125.721 139.976 125.593 140.233 125.537C140.49 125.482 140.757 125.502 141.003 125.595L183.971 147.158L197.923 131.663L160.259 83.456L154.117 90.278L183.123 127.392C183.306 127.62 183.403 127.906 183.396 128.199C183.389 128.491 183.279 128.772 183.085 128.992C182.899 129.19 182.653 129.323 182.386 129.371C182.118 129.419 181.842 129.379 181.598 129.258L138.508 107.621L124.566 123.105L162.232 171.309L168.367 164.495L139.485 127.51L139.48 127.508ZM134.827 171.22L113.574 154.482C113.347 154.285 113.063 154.166 112.763 154.142C112.464 154.118 112.164 154.19 111.908 154.348C111.64 154.53 111.443 154.799 111.352 155.111C111.261 155.422 111.282 155.755 111.411 156.053L128.874 208.359L121.923 216.078L100 150.385L113.431 135.469L160.892 172.798L150.922 183.871L145.749 179.802C145.249 179.364 144.597 179.138 143.933 179.174C143.268 179.209 142.644 179.502 142.193 179.99L127.115 196.736L123.836 186.946L135.144 174.387C135.34 174.162 135.489 173.899 135.58 173.615C135.671 173.331 135.702 173.031 135.673 172.734C135.643 172.437 135.553 172.149 135.408 171.888C135.262 171.627 135.065 171.399 134.828 171.217L134.827 171.22ZM210.727 87.1143L189.266 70.9833C188.995 70.7785 188.657 70.6836 188.319 70.7176C187.981 70.7516 187.669 70.9119 187.444 71.1665C187.291 71.3386 187.182 71.5458 187.128 71.7699C187.074 71.994 187.076 72.228 187.134 72.451L206.163 122.517L199.37 130.062L175.287 66.7722L188.717 51.8565L237.062 88.1998L227.016 99.3573L221.741 95.3974C221.238 94.967 220.588 94.747 219.927 94.7832C219.266 94.8195 218.644 95.1092 218.191 95.592L204.053 111.293L200.459 101.849L210.935 90.2134C211.134 90.0008 211.287 89.7496 211.385 89.4754C211.483 89.2011 211.523 88.9096 211.503 88.6192C211.484 88.3287 211.405 88.0455 211.271 87.7869C211.137 87.5283 210.952 87.2997 210.726 87.1158" fill="white"/>
<path d="M172.076 234.992C188.75 229.636 188.045 219.707 188.045 219.707L278.931 0.831055H300.504L212.443 234.992H172.076Z" fill="#00B3F0"/>
<path d="M16.49 234.99H0.321045L189.715 26.3309C189.742 26.2969 192.455 22.8469 196.15 18.7699C199.555 15.0119 204.508 9.94488 208.765 7.14788C212.723 4.67882 217.082 2.92226 221.646 1.95788C223.852 1.43215 226.09 1.05464 228.346 0.827881H300.504L297.121 9.83088H236.346C234.09 10.0574 231.852 10.435 229.646 10.9609C225.09 11.9524 220.735 13.7071 216.765 16.1509C214.416 17.6949 210.32 20.9639 204.151 27.7729C200.445 31.8629 197.743 35.2999 197.717 35.3339L16.49 234.989V234.99Z" fill="white"/>
</svg>
