<svg width="302" height="237" viewBox="0 0 302 237" fill="none" xmlns="http://www.w3.org/2000/svg">
<path d="M1.32196 234.991H213.439L301.505 0.830994H229.347C229.347 0.830994 218.004 1.73799 209.765 7.15199C201.526 12.566 190.716 26.336 190.716 26.336L1.32196 234.991Z" fill="url(#paint0_linear)"/>
<path d="M0.321045 236.989L25.643 209.089H141.035L124.409 236.989H0.321045ZM31.489 202.651L56.821 174.743H160.35L143.717 202.651H31.489ZM62.667 168.302L88 140.395H179.666L163.033 168.303L62.667 168.302ZM93.845 133.954L119.178 106.045H199.517L182.884 133.954H93.845ZM125.023 99.605L150.356 71.696H218.832L202.2 99.606L125.023 99.605ZM156.2 65.258L181.533 37.349H238.146L221.515 65.258H156.2ZM187.379 30.909L189.715 28.336C189.715 28.336 200.523 14.567 208.763 9.153C215.2 4.926 223.516 3.446 226.859 3H258L241.367 30.908L187.379 30.909Z" fill="#005B91"/>
<path d="M124.006 236.989L144.527 202.65H225.357L212.443 236.989H124.006ZM162.629 168.303L183.156 133.953H251.192L238.274 168.303H162.629ZM201.796 99.603L222.321 65.255H277.021L264.103 99.605L201.796 99.603ZM240.962 30.903L257.596 3H300.441L289.941 30.908L240.962 30.903Z" fill="#BF011E"/>
<defs>
<linearGradient id="paint0_linear" x1="185.935" y1="192.14" x2="124.719" y2="121.124" gradientUnits="userSpaceOnUse">
<stop stop-color="#DEE7EB"/>
<stop offset="1" stop-color="#E8EBED"/>
</linearGradient>
</defs>
</svg>
