<svg width="301" height="235" viewBox="0 0 301 235" fill="none" xmlns="http://www.w3.org/2000/svg">
<path d="M0.321899 234.999H212.452L300.518 0.831055H228.357C228.357 0.831055 217.014 1.73805 208.774 7.15205C200.534 12.5661 189.725 26.3361 189.725 26.3361L0.321899 234.999Z" fill="url(#paint0_linear)"/>
<path d="M99.5389 235C98.1965 232.764 96.6738 230.642 94.9859 228.654C85.2859 217.154 66.3599 208.742 55.8259 193.008C52.8429 188.554 50.5139 184.792 48.7079 181.693L70.9819 157.154C77.0159 164.698 84.684 170.773 93.4079 174.922C114.628 185.239 127.625 178.107 162.158 187.127C190.138 194.442 207.558 210.419 215.724 226.291L212.449 235H99.5389Z" fill="#D65A53"/>
<path d="M205.258 169.11C181.243 156.31 145.551 161.06 145.551 161.06C145.551 161.06 132.981 164.641 122.305 158.546C111.629 152.451 102.916 142.259 102.916 142.259C102.916 142.259 129.684 145.452 151.439 137.216C173.194 128.98 190.777 108.031 218.567 111.493C231.239 113.114 243.318 117.83 253.736 125.224L228.816 191.475C223.068 182.077 214.942 174.362 205.258 169.11Z" fill="#646389"/>
<path d="M165.03 53.546C177.253 46.246 191.03 38.246 205.154 30.488C249.541 6.11505 272.431 10.718 272.431 10.718L296.466 11.609L265.23 94.664C259.041 87.529 249.44 78.649 238.724 76.698C220.207 73.326 194.716 85.016 194.716 85.016L103.641 121.172L165.03 53.546Z" fill="#D65A53"/>
<defs>
<linearGradient id="paint0_linear" x1="134.209" y1="98.0108" x2="221.22" y2="242.992" gradientUnits="userSpaceOnUse">
<stop stop-color="white"/>
<stop offset="1" stop-color="#F0F0F0"/>
</linearGradient>
</defs>
</svg>
