<svg width="301" height="235" viewBox="0 0 301 235" fill="none" xmlns="http://www.w3.org/2000/svg">
<path d="M0.321899 234.991H212.439L300.505 0.831055H228.347C228.347 0.831055 217.004 1.73805 208.765 7.15205C200.526 12.5661 189.716 26.3361 189.716 26.3361L0.321899 234.991Z" fill="#3F8A83"/>
<path d="M113.985 185.894C88.285 173.702 79.655 166.722 80.596 163.247C81.479 159.994 91.022 161.394 98.87 160.676C108.182 159.909 117.361 157.975 126.191 154.918C136.162 151.57 145.851 147.433 155.165 142.546C155.165 142.546 158.676 140.694 159.049 140.485C159.774 140.048 160.341 139.732 161.049 139.285C161.551 138.976 162.069 138.693 162.6 138.437C163.14 138.183 163.657 137.882 164.144 137.537C164.682 137.2 165.415 136.848 165.96 136.525C166.76 136.025 167.252 135.649 168.007 135.111C168.433 134.808 168.877 134.53 169.335 134.278C169.709 134.056 170.391 133.689 170.721 133.466C171.421 133.007 171.862 132.626 172.566 132.138C172.99 131.838 173.306 131.65 173.816 131.338C174.326 131.026 174.807 130.638 175.244 130.311C175.533 130.122 175.809 129.913 176.07 129.686C176.587 129.186 177.097 128.753 177.628 128.322C178.117 127.956 178.583 127.503 179.057 127.138C179.366 126.915 179.89 126.477 180.191 126.254C180.981 125.687 181.476 125.263 182.259 124.696C182.759 124.323 183.185 123.828 183.688 123.454C184.248 123.037 184.764 122.554 185.347 122.14C185.736 121.878 186.101 121.582 186.438 121.256C186.811 120.804 187.163 120.495 187.558 120.05C187.845 119.734 188.399 119.382 188.722 119.059C189.247 118.399 189.855 117.81 190.531 117.307C190.768 117.095 190.984 116.86 191.177 116.607C191.347 116.369 191.534 116.143 191.737 115.932C192.046 115.616 192.161 115.532 192.283 115.394C192.426 115.279 192.592 115.129 193.016 114.712C193.145 114.575 193.368 114.266 193.59 113.965C193.783 113.699 193.963 113.434 194.09 113.297C194.471 112.897 194.722 112.615 194.995 112.328C195.188 112.135 195.395 111.919 195.648 111.653C195.798 111.488 195.914 111.294 196.048 111.115C196.156 110.933 196.278 110.76 196.414 110.598C196.644 110.346 196.824 110.432 196.867 110.461C197.004 110.555 197.06 110.827 196.91 111.15C196.706 111.513 196.48 111.863 196.235 112.199L196.135 112.335C196.063 112.457 195.999 112.573 195.927 112.694C195.826 112.883 195.714 113.065 195.59 113.24C195.312 113.606 195.007 113.951 194.678 114.273C194.573 114.373 194.473 114.479 194.378 114.589C194.181 114.801 194.006 115.032 193.854 115.278C193.677 115.536 193.485 115.783 193.28 116.018C193.174 116.123 193.081 116.238 193 116.363C192.902 116.498 192.797 116.628 192.684 116.751C192.504 116.923 192.332 117.096 192.159 117.268C191.882 117.568 191.589 117.853 191.283 118.123C191.06 118.309 190.838 118.547 190.608 118.769C190.027 119.469 189.387 120.162 188.863 120.83C188.506 121.18 188.108 121.486 187.679 121.742C187.314 122.082 186.991 122.465 186.717 122.883C186.487 123.157 185.984 123.601 185.747 123.888C185.256 124.55 184.665 125.131 183.996 125.612C183.552 125.919 183.155 126.29 182.818 126.712C182.603 126.992 181.942 127.631 181.691 127.94C181.059 128.74 180.771 129.499 180.865 129.519C181.296 129.634 182.345 128.708 182.965 128.306C183.474 127.954 183.565 127.818 184.05 127.452C184.46 127.162 184.844 126.838 185.198 126.483C185.406 126.296 185.981 125.671 186.16 125.456C186.818 124.668 187.546 123.942 188.336 123.287C189.068 122.569 189.98 121.93 190.691 121.287C190.906 121.065 191.114 120.842 191.323 120.598C191.56 120.361 191.854 120.146 192.069 119.909C192.413 119.362 192.808 118.848 193.247 118.373C193.664 118.05 193.972 117.756 194.395 117.44C194.546 117.34 194.676 117.146 194.833 117.023C195.055 116.881 195.257 116.71 195.433 116.514C195.922 115.889 196.395 115.25 196.905 114.625C197.127 114.325 197.45 114.08 197.673 113.771C198.147 113.096 198.55 112.407 199.03 111.771C199.712 110.888 200.682 110.256 201.33 109.365C202.005 108.446 202.407 107.383 203.039 106.421C203.312 106.004 203.739 105.71 204.039 105.315C204.212 105.086 204.305 104.82 204.47 104.569C204.807 104.052 205.203 103.549 205.547 103.061C205.992 102.4 206.293 101.689 206.747 100.994C206.882 100.676 207.05 100.373 207.247 100.089C207.537 99.6983 207.804 99.2909 208.047 98.869C208.363 98.388 208.507 98.069 208.729 97.734C208.951 97.399 209.095 97.073 209.246 96.844C209.397 96.615 209.713 96.162 209.828 95.99C210.238 95.358 210.352 95.063 210.776 94.482C211.034 94.123 211.321 93.829 211.566 93.915C211.752 94.051 211.68 94.274 211.637 94.432C211.543 94.7146 211.413 94.9836 211.249 95.232C210.905 95.849 210.783 96.144 210.416 96.711C210.25 96.985 209.956 97.602 209.716 97.932C209.476 98.262 209.243 98.685 209.084 98.966C208.905 99.266 208.653 100.057 208.402 100.387C208.173 100.727 207.967 101.083 207.785 101.45C207.438 102.076 207.049 102.677 206.621 103.25C206.377 103.702 206.133 104.176 205.897 104.622C205.408 105.354 204.827 106.036 204.353 106.79C204.059 107.314 203.772 107.839 203.485 108.362C203.191 108.793 202.796 109.162 202.516 109.598C202.171 110.122 201.984 110.698 201.639 111.214C201.366 111.614 201.022 112.003 200.749 112.406C200.283 113.095 199.866 113.778 199.377 114.438C199.104 114.797 198.752 115.099 198.487 115.465C198.121 115.965 197.826 116.55 197.446 116.965C197.107 117.311 196.79 117.678 196.498 118.065C195.967 118.718 194.639 120.585 194.868 120.599C195.644 120.707 197.144 119.005 197.776 118.388C198.261 117.988 198.72 117.556 199.148 117.096C199.648 116.421 200.016 115.66 200.52 115.006C200.699 114.762 200.972 114.583 201.152 114.353C201.479 113.894 201.837 113.457 202.222 113.046C202.396 112.895 202.561 112.734 202.717 112.565C203.327 111.782 203.845 110.941 204.433 110.123C204.691 109.793 205.007 109.498 205.258 109.175C205.445 108.91 205.558 108.622 205.725 108.334C205.962 107.968 206.278 107.617 206.515 107.25C206.694 106.976 206.802 106.704 206.988 106.424C207.311 105.936 207.742 105.512 208.065 105.016C208.316 104.616 208.388 104.09 208.654 103.68C209.322 102.66 210.047 101.62 210.701 100.6C210.874 100.334 210.945 100.039 211.101 99.781C211.639 98.941 212.135 98.036 212.666 97.211C212.86 96.902 212.939 96.55 213.133 96.249C213.377 95.875 213.75 95.581 213.994 95.222C214.155 94.9248 214.292 94.6152 214.404 94.296C214.597 93.858 214.87 93.434 215.093 93.025C215.229 92.773 215.301 92.515 215.459 92.278C216.088 91.2629 216.649 90.2073 217.139 89.118C217.412 88.551 217.814 88.018 218.079 87.438C218.388 86.799 218.679 86.146 218.962 85.528C219.128 85.104 219.278 84.681 219.422 84.257C219.731 83.596 220.211 83.029 220.506 82.34C220.715 81.873 220.83 81.44 221.024 81.048C221.146 80.81 221.376 80.61 221.541 80.718C221.706 80.826 221.735 81.027 221.627 81.393C221.415 82.0434 221.158 82.6782 220.858 83.293C220.493 84.083 220.305 84.909 219.946 85.713C219.76 86.165 219.458 86.589 219.257 87.02C218.905 87.788 218.568 88.556 218.216 89.282C218.023 89.706 217.864 90.115 217.635 90.517C217.489 90.7344 217.356 90.9597 217.235 91.192C217.005 91.71 216.941 92.255 216.704 92.743C216.46 93.253 216.065 93.677 215.828 94.172C214.688 96.7002 213.386 99.1517 211.928 101.511C211.528 102.15 211.311 102.926 210.901 103.558C210.478 104.226 209.896 104.728 209.48 105.374C209.128 105.913 209.042 106.659 208.719 107.234C208.259 108.095 207.627 108.821 207.104 109.634C206.967 109.864 206.924 110.116 206.781 110.352C206.587 110.661 206.328 110.962 206.128 111.278C205.87 111.702 205.728 112.183 205.439 112.571C205.13 113.001 204.685 113.346 204.376 113.784C203.995 114.308 203.723 114.925 203.32 115.464C203.047 115.83 202.62 116.089 202.336 116.464C201.891 117.045 200.347 119.07 199.902 119.637C198.983 120.655 198.161 121.756 197.446 122.926C197.267 123.278 196.656 124.118 196.785 124.283C197.108 124.499 198.637 122.826 198.896 122.583C199.526 121.903 200.108 121.181 200.64 120.422C200.777 120.264 202.24 118.835 202.364 118.677C202.508 118.491 202.658 118.277 202.788 118.096C203.198 117.486 203.449 116.753 203.88 116.179C204.066 115.934 204.346 115.755 204.519 115.518C204.857 115.073 205.086 114.57 205.419 114.118C205.928 113.4 206.603 112.768 207.128 112.057C207.688 111.281 208.097 110.362 208.679 109.587C208.966 109.206 209.332 108.869 209.605 108.452C209.727 108.273 209.771 108.093 209.892 107.907C210.132 107.583 210.348 107.242 210.539 106.887C210.665 106.566 210.814 106.254 210.984 105.954C211.584 105.013 212.191 104.015 212.784 103.074C213.064 102.651 213.214 102.198 213.484 101.774C213.936 101.074 214.511 100.453 214.955 99.749C215.487 98.917 215.774 97.911 216.319 97.078C216.664 96.525 217.073 96.016 217.419 95.462C217.807 94.862 217.993 94.17 218.345 93.552C218.645 92.999 219.056 92.489 219.322 91.944C219.616 91.344 219.811 90.752 220.098 90.127C220.256 89.797 220.498 89.459 220.643 89.127C220.836 88.697 220.873 88.273 221.074 87.871C221.591 86.715 222.374 85.624 222.919 84.471C223.3 83.66 223.652 82.812 223.967 81.944C224.098 81.4812 224.254 81.0259 224.434 80.58C224.915 79.517 225.503 78.405 225.963 77.363C226.163 76.796 226.363 76.242 226.563 75.683C226.593 75.5208 226.631 75.3602 226.678 75.202C226.9 74.707 227.195 74.218 227.389 73.738C227.561 73.164 227.741 72.596 227.927 72.022C228.667 70.17 229.335 68.073 230.038 66.141C230.11 65.7402 230.205 65.3436 230.321 64.953C230.687 63.977 231.054 62.971 231.405 61.988C231.613 61.488 232.087 61.65 231.979 62.168C231.835 62.843 231.75 63.015 231.627 63.553C231.577 63.834 231.527 64.099 231.469 64.372C231.383 64.702 231.217 65.047 231.132 65.363C230.938 65.963 230.923 66.54 230.732 67.108C230.438 67.908 230.151 68.68 229.884 69.499C229.82 69.908 229.726 70.317 229.647 70.734C229.525 71.115 229.367 71.509 229.23 71.854C228.821 72.867 228.43 73.843 228.074 74.834C227.923 75.409 227.774 75.976 227.636 76.55C227.486 76.866 227.262 77.189 227.127 77.498C226.997 77.779 226.969 78.037 226.853 78.331C226.595 78.97 226.365 79.623 226.071 80.277C225.827 80.808 225.539 81.347 225.331 81.914C225.231 82.194 225.231 82.432 225.131 82.704C224.514 84.399 223.846 86.172 223.113 87.78C222.933 88.18 222.883 88.592 222.696 88.994C222.552 89.339 222.337 89.694 222.187 90.028C222.115 90.243 222.036 90.465 221.964 90.681C221.742 91.154 221.354 91.542 221.131 92.017C220.578 93.3007 219.918 94.5352 219.156 95.707C218.514 96.877 217.985 98.1055 217.576 99.376C217.297 99.9317 216.977 100.466 216.621 100.976C216.456 101.249 216.356 101.55 216.212 101.844C215.927 102.459 215.6 103.054 215.236 103.625C214.979 104.007 214.777 104.422 214.636 104.86C214.478 105.324 214.365 105.803 214.299 106.289C214.407 106.36 215.017 105.989 215.226 105.764C215.64 105.361 215.982 104.89 216.238 104.371C216.396 104.033 216.697 103.452 216.855 103.129C217.31 102.342 217.813 101.585 218.362 100.86C218.609 100.408 218.832 99.9428 219.03 99.467C219.43 98.599 219.885 97.722 220.308 96.825C220.503 96.459 220.719 96.1041 220.954 95.762C221.184 95.417 221.284 95.051 221.507 94.699C222.028 93.9204 222.5 93.1102 222.921 92.273C223.208 91.663 223.359 91.052 223.632 90.456C223.742 90.2642 223.864 90.0795 223.998 89.903C224.192 89.594 224.271 89.257 224.443 88.912C224.658 88.459 224.981 88.012 225.196 87.548C225.634 86.607 225.885 85.631 226.316 84.705C226.531 84.274 226.876 83.905 227.077 83.469C227.393 82.808 227.422 81.976 227.738 81.286C228.549 79.447 229.489 77.559 230.179 75.642C230.287 75.319 230.33 74.942 230.431 74.608C230.731 73.775 231.131 73 231.431 72.181C231.567 71.808 231.61 71.464 231.747 71.081C231.947 70.528 232.213 69.939 232.415 69.372C232.465 69.185 232.493 68.984 232.565 68.791C232.816 68.266 232.965 67.634 233.204 67.082C233.341 66.795 233.542 66.501 233.657 66.191C233.85 65.638 233.794 64.942 233.995 64.425C234.275 63.642 234.605 62.795 234.885 62.025C235.058 61.572 235.085 61.142 235.244 60.682C235.424 60.165 235.625 59.59 235.818 59.074C236.011 58.558 235.998 57.968 236.177 57.408C236.307 56.977 236.486 56.54 236.63 56.137C236.896 55.383 237.011 54.586 237.291 53.882C237.334 53.752 237.385 53.616 237.428 53.494C237.499 53.3 237.628 53.113 237.822 53.171C238.045 53.229 238.045 53.508 238.031 53.695C237.962 54.2151 237.827 54.7245 237.631 55.211C237.445 55.684 237.358 56.195 237.231 56.647C237.159 56.941 237.166 57.257 237.095 57.567C237.001 58.012 236.829 58.435 236.714 58.874C236.599 59.313 236.664 59.728 236.563 60.066C236.283 61.006 235.963 62.066 235.651 62.966C235.521 63.433 235.5 63.971 235.357 64.374C235.184 64.848 235.005 65.329 234.839 65.81C234.681 66.21 234.653 66.592 234.487 66.973C234.288 67.3848 234.111 67.8067 233.956 68.237C233.777 68.819 233.798 69.393 233.597 69.946C233.267 70.836 232.857 71.684 232.556 72.538C232.456 72.854 232.42 73.191 232.312 73.507C232.046 74.247 231.859 75.044 231.587 75.791C231.199 76.853 230.704 77.891 230.316 78.943C229.928 79.995 229.885 81.219 229.455 82.188C229.232 82.669 228.773 82.957 228.564 83.423C228.465 83.7466 228.396 84.0782 228.356 84.414C228.234 84.814 228.047 85.214 227.896 85.578C227.811 85.915 227.724 86.239 227.63 86.562C227.494 86.962 227.22 87.352 227.049 87.732C226.827 88.3526 226.568 88.9594 226.273 89.549C225.962 89.953 225.679 90.3776 225.426 90.82C225.188 91.33 225.103 91.883 224.865 92.42C224.514 93.21 224.097 93.964 223.803 94.783C223.604 95.5308 223.36 96.2656 223.07 96.983C222.711 97.629 222.27 98.211 221.921 98.85C221.699 99.338 221.476 99.819 221.246 100.301C221.067 100.688 220.715 101.026 220.493 101.435C220.22 101.924 219.954 102.44 219.732 102.929C219.605 103.296 219.451 103.653 219.272 103.998C218.963 104.508 218.727 104.918 218.389 105.42C218.072 105.914 217.8 106.435 217.577 106.978C217.435 107.385 217.25 107.775 217.024 108.142C216.741 108.47 216.48 108.815 216.241 109.176C215.994 109.69 215.86 110.25 215.847 110.82C216.112 110.914 216.859 110.203 217.06 109.951C217.649 109.241 217.936 108.278 218.475 107.525C219.006 106.828 219.47 106.082 219.861 105.298C220.163 104.614 220.501 103.947 220.873 103.298C221.219 102.869 221.531 102.413 221.806 101.935C221.992 101.511 222.086 101.008 222.272 100.592C222.552 99.992 223.12 99.601 223.407 98.977C223.737 98.288 223.88 97.577 224.232 96.93C224.405 96.614 224.632 96.262 224.778 95.93C224.978 95.52 225.072 95.118 225.266 94.701C225.666 93.854 226.257 93.143 226.638 92.301C227.055 91.439 227.277 90.501 227.701 89.637C227.916 89.163 228.301 88.76 228.526 88.287C228.826 87.662 228.971 87.009 229.266 86.377C229.453 85.996 229.719 85.623 229.898 85.249C230.15 84.704 230.243 84.107 230.498 83.54C231.066 82.248 231.662 80.919 232.236 79.64C232.452 79.14 232.509 78.635 232.736 78.132C232.951 77.695 233.166 77.264 233.397 76.825C233.885 75.698 234.065 74.377 234.574 73.242C234.832 72.661 235.148 72.115 235.386 71.497C235.745 70.52 235.874 69.515 236.24 68.517C236.786 66.995 237.224 65.408 237.77 63.9C237.935 63.448 237.949 63 238.121 62.529C238.279 62.091 238.444 61.645 238.61 61.208C238.725 60.842 238.796 60.331 238.89 59.872C239.3 58.586 239.709 57.301 240.11 56.001C240.21 55.692 240.225 55.14 240.333 54.745C240.412 54.5109 240.503 54.2809 240.606 54.056C240.7 53.762 240.7 53.511 240.792 53.202C241.092 52.261 241.345 51.163 241.647 50.222C241.733 49.928 241.761 49.504 241.855 49.173C242.172 47.7441 242.563 46.3325 243.026 44.944C243.111 44.699 243.27 44.444 243.507 44.506C243.744 44.568 243.694 44.836 243.673 45.059C243.601 45.669 243.373 46.194 243.273 46.703C243.238 46.9747 243.218 47.2481 243.215 47.522C243.191 47.7763 243.148 48.0284 243.086 48.276C242.834 49.076 242.54 50.013 242.31 50.796C242.231 51.177 242.303 51.765 242.195 52.204C241.913 53.5312 241.561 54.8424 241.139 56.132C240.805 57.2547 240.538 58.396 240.339 59.55C240.253 60.038 240.224 60.534 240.152 61.022C240.034 61.4352 239.873 61.8347 239.671 62.214C239.556 62.514 239.571 62.76 239.455 63.069C239.218 63.88 239.025 64.677 238.738 65.496C238.538 66.063 238.228 66.596 238.027 67.14C237.948 67.391 237.969 67.613 237.905 67.886C237.762 68.454 237.668 69.014 237.505 69.566C237.105 70.679 236.723 71.885 236.328 72.984C236.106 73.601 236.034 74.197 235.828 74.794C234.945 77.194 234.055 79.568 233.186 81.938C233.043 82.469 232.892 83.001 232.756 83.525C232.562 84.057 232.246 84.509 232.023 84.99C231.736 85.607 231.65 86.254 231.406 86.907C231.141 87.676 230.774 88.264 230.48 89.061C230.343 89.434 230.206 89.861 230.034 90.232C229.904 90.505 229.668 90.77 229.534 91.05C229.297 91.517 229.261 92.113 229.039 92.587C228.76 93.0372 228.455 93.4712 228.127 93.887C227.942 94.3477 227.781 94.8177 227.645 95.295C227.315 96.02 226.891 96.687 226.575 97.456C226.446 97.779 226.389 98.066 226.245 98.375C226.08 98.727 225.815 99.064 225.645 99.438C225.645 99.438 225.631 99.438 225.616 99.474C225.593 99.5389 225.576 99.6059 225.566 99.674C225.524 99.818 225.473 100.004 225.423 100.141C225.312 100.39 225.178 100.628 225.023 100.852C224.965 100.924 224.794 101.11 224.664 101.283C224.596 101.355 224.534 101.431 224.478 101.512C224.247 102.083 224.047 102.665 223.878 103.257C223.62 103.781 223.168 104.212 222.909 104.764C222.701 105.181 222.6 106.222 222.852 106.264C223.928 106.264 224.008 104.756 224.367 103.964C224.661 103.347 225.092 102.837 225.416 102.249C225.52 102.059 225.602 101.858 225.66 101.649C225.726 101.443 225.808 101.243 225.904 101.049C226.041 100.762 226.041 100.805 226.134 100.597C226.227 100.389 226.534 100.015 226.622 99.836C226.631 99.8261 226.636 99.8133 226.636 99.8C227.053 99.139 227.325 98.2 227.62 97.746C227.786 97.502 228.001 97.251 228.166 96.999C228.403 96.5408 228.612 96.0686 228.791 95.585C228.991 95.161 229.315 94.737 229.515 94.285C229.753 93.753 229.767 93.085 230.025 92.547C230.147 92.253 230.384 91.958 230.525 91.686C230.825 91.068 231.006 90.414 231.308 89.811C231.445 89.517 231.708 89.244 231.853 88.95C232.091 88.432 232.219 87.887 232.485 87.413C233.085 86.3668 233.632 85.2907 234.123 84.189C234.403 83.557 234.503 82.918 234.769 82.308C235.006 81.769 235.336 81.245 235.569 80.736C235.707 80.3896 235.822 80.0345 235.914 79.673C236.144 79.073 236.414 78.459 236.632 77.863C236.762 77.446 236.869 76.549 236.998 76.19C237.163 75.738 237.398 75.25 237.587 74.804C237.887 74.151 237.975 73.462 238.269 72.804C238.499 72.286 238.751 71.755 238.937 71.231C239.102 70.786 239.145 70.37 239.325 69.96C239.461 69.644 239.648 69.292 239.763 68.969C239.916 68.4623 240.038 67.9467 240.128 67.425C240.322 66.857 240.559 66.319 240.728 65.759C240.835 65.335 240.85 64.373 240.943 64.115C241.543 62.377 242.091 60.515 242.643 58.78C242.894 57.98 243.017 57.172 243.243 56.396C243.322 56.073 243.329 55.678 243.415 55.362C243.573 54.862 243.781 54.342 243.94 53.826C244.026 53.474 244.083 53.115 244.148 52.77C244.258 52.3958 244.398 52.0307 244.565 51.678C244.895 50.629 245.082 49.517 245.391 48.49C245.491 48.066 245.491 47.514 245.606 47.126C246.016 45.862 246.101 44.39 246.474 43.062C246.56 42.674 246.611 42.287 246.704 41.935C247.357 39.45 247.652 36.665 248.377 34.281C248.513 33.821 248.334 33.24 248.455 32.744C248.606 32.184 248.755 31.696 248.915 31.208C248.967 30.9829 249.008 30.7553 249.037 30.526C249.166 30.126 249.346 29.801 249.568 29.851C249.834 29.93 249.776 30.174 249.768 30.512C249.75 31.0054 249.686 31.4959 249.575 31.977C249.481 32.358 249.546 32.677 249.438 33.011C249.208 33.779 249.138 34.87 249.001 35.574C248.958 35.861 249.001 36.256 248.943 36.594C248.864 36.953 248.591 37.412 248.519 37.8C248.44 38.31 248.447 38.978 248.369 39.538C248.269 40.005 248.124 40.457 248.003 40.895C247.903 41.276 247.974 41.642 247.859 41.995C247.713 42.3632 247.588 42.7395 247.485 43.122C247.427 43.56 247.492 44.199 247.399 44.594C246.839 46.777 246.674 49.361 246.035 51.451C245.956 51.751 245.941 52.076 245.869 52.377C245.338 54.216 244.929 56.169 244.376 57.985C244.304 58.265 244.311 58.56 244.239 58.876C244.06 59.515 243.909 60.204 243.765 60.843C243.701 61.152 243.708 61.424 243.622 61.711C243.435 62.379 243.205 63.025 242.983 63.686C242.904 64.016 242.868 64.332 242.81 64.648C242.752 64.899 242.624 65.187 242.544 65.431C242.429 65.812 242.465 66.178 242.351 66.531C242.233 66.738 242.133 66.9544 242.051 67.178C241.965 67.572 241.914 67.96 241.806 68.341C241.648 68.801 241.406 69.253 241.217 69.705C241.074 70.086 241.074 70.474 240.93 70.846C240.672 71.479 240.392 72.239 240.14 72.929C239.94 73.489 239.911 74.064 239.71 74.629C239.573 75.01 239.394 75.398 239.265 75.771C239.179 76.058 239.128 76.345 239.028 76.654C238.934 76.92 238.628 77.354 238.439 77.717C238.346 78.1678 238.277 78.6231 238.231 79.081C238.095 79.518 237.85 79.87 237.7 80.273C237.55 80.676 237.57 81.12 237.455 81.537C237.341 81.86 237.118 82.169 236.989 82.47C236.859 82.829 236.731 83.17 236.601 83.526C236.501 83.749 236.307 83.993 236.191 84.208C236.005 84.608 235.846 85.063 235.682 85.479C235.499 86.1413 235.35 86.8125 235.236 87.49C235.186 87.69 235.2 88.158 235.308 88.208C235.588 88.258 235.897 87.82 236.084 87.555C236.423 87.0833 236.714 86.5784 236.952 86.048C237.038 85.839 237.082 85.648 237.152 85.43C237.332 84.978 237.468 84.453 237.677 84.002C237.798 83.715 237.986 83.413 238.087 83.111C238.23 82.674 238.165 82.156 238.338 81.775C238.481 81.459 238.738 81.201 238.883 80.885C238.983 80.591 239.041 80.285 239.163 79.995C239.333 79.6509 239.522 79.317 239.731 78.995C239.83 78.6599 239.909 78.3193 239.968 77.975C240.082 77.5267 240.236 77.0894 240.427 76.668C240.614 76.251 240.858 75.835 241.045 75.404C241.13 75.166 241.174 74.923 241.238 74.686C241.353 74.363 241.525 74.018 241.648 73.702C241.712 73.4557 241.791 73.2135 241.885 72.977C242.036 72.625 242.223 72.23 242.367 71.842C242.474 71.533 242.489 71.196 242.604 70.887C242.798 70.334 242.985 69.717 243.178 69.178C243.293 68.762 243.329 68.338 243.458 67.914C243.616 67.426 243.831 66.937 244.011 66.443C244.147 66.043 244.183 65.624 244.298 65.214C244.484 64.69 244.75 64.201 244.93 63.649C245.038 63.204 245.06 62.759 245.152 62.342C245.452 61.315 245.784 60.181 246.107 59.125C246.48 57.954 246.517 56.625 246.854 55.441C247.098 54.593 247.399 53.775 247.654 52.941C247.747 52.504 247.761 52.101 247.869 51.685C248.099 50.737 248.443 49.517 248.759 48.533C248.917 48.015 248.867 47.484 249.018 46.933C249.169 46.382 249.176 45.712 249.355 45.116C249.496 44.7613 249.609 44.3962 249.693 44.024C249.793 43.558 249.786 43.011 249.851 42.66C249.916 42.309 250.519 40.241 250.591 39.853C250.663 39.465 250.663 38.769 250.705 38.517C250.748 38.351 251.057 37.461 251.093 37.225C251.129 36.989 251.136 36.725 251.223 36.27C251.31 35.815 251.589 34.79 251.633 34.496C251.677 34.202 251.683 33.596 251.74 33.304C251.797 33.012 251.999 32.32 252.14 31.832C252.306 31.232 252.169 30.612 252.334 30.052C252.463 29.635 252.6 29.233 252.757 28.838C252.855 28.5082 252.932 28.1725 252.987 27.833C253.009 27.51 253.029 26.864 253.051 26.62C253.058 26.29 253.202 25.73 253.231 25.241C253.276 24.6398 253.374 24.0438 253.525 23.46C253.583 23.216 253.561 22.929 253.611 22.707C253.783 22.054 253.941 21.451 254.272 21.493C254.509 21.529 254.602 21.731 254.494 22.154C254.379 22.664 254.329 23.067 254.194 23.562C254.142 23.9495 254.117 24.3401 254.121 24.731C254.099 25.09 254.085 25.168 254.042 25.52C254.014 25.65 253.956 25.98 253.913 26.12C253.852 26.3602 253.813 26.6056 253.798 26.853C253.798 27.083 253.805 27.327 253.805 27.653C253.806 27.8302 253.781 28.0066 253.733 28.177C253.674 28.369 253.633 28.5662 253.611 28.766C253.597 28.975 253.618 29.176 253.604 29.356C253.608 29.5804 253.574 29.8038 253.504 30.017C253.278 30.5444 253.177 31.1171 253.21 31.69C253.279 32.3388 253.198 32.9947 252.973 33.607C252.901 33.988 252.973 34.407 252.901 34.77C252.764 35.27 252.635 35.804 252.501 36.336C252.393 36.766 252.465 37.154 252.351 37.571C252.2 38.138 251.805 38.914 251.751 39.171C251.697 39.428 251.715 40.126 251.644 40.571C251.573 41.016 251.457 41.519 251.428 41.799C251.399 42.079 251.435 42.209 251.406 42.416C251.377 42.623 251.097 43.623 251.054 43.881C251.011 44.139 251.012 44.281 250.954 44.542C250.896 44.803 250.674 45.892 250.631 46.237C250.588 46.582 250.588 46.79 250.523 47.137C250.423 47.668 250.207 48.114 250.099 48.624C250.028 49.011 250.049 49.249 250.006 49.55C249.891 50.031 249.732 50.462 249.647 50.914C249.575 51.273 249.568 51.614 249.503 51.983C249.338 52.752 249.23 53.527 249.015 54.295C248.885 54.748 248.627 55.164 248.49 55.602C248.383 56.002 248.347 56.443 248.239 56.838C248.131 57.175 247.894 57.491 247.808 57.858C247.75 58.174 247.758 58.497 247.701 58.82C247.622 59.179 247.463 59.538 247.391 59.911C247.334 60.192 247.363 60.465 247.284 60.759C247.19 61.082 247.026 61.376 246.947 61.685C246.875 62.085 246.875 62.475 246.774 62.877C246.66 63.337 246.465 63.79 246.322 64.213C246.185 64.613 246.257 65.046 246.135 65.478C245.877 66.411 245.568 67.445 245.259 68.321C245.122 68.788 245.144 69.276 244.972 69.786C244.842 70.124 244.699 70.353 244.555 70.647C244.447 70.947 244.548 71.279 244.455 71.624C244.305 72.191 244.226 72.96 244.018 73.512C243.795 74.138 243.428 74.647 243.218 75.257C242.996 75.896 242.981 76.535 242.765 77.203C242.572 77.771 242.277 78.295 242.065 78.811C241.885 79.264 241.95 79.867 241.777 80.355C241.577 80.879 241.21 81.281 241.002 81.819C240.779 82.436 240.628 83.055 240.441 83.665C240.37 83.931 240.327 84.189 240.276 84.447C240.047 85.247 239.615 85.919 239.335 86.681C239.227 87.033 239.198 87.334 239.098 87.665C238.907 88.224 238.681 88.7707 238.423 89.302C238.214 89.775 237.905 90.242 237.69 90.716C237.496 91.154 237.46 91.593 237.273 92.052C237.094 92.49 236.885 92.965 236.72 93.416C236.612 93.696 236.605 93.948 236.482 94.206C235.937 95.419 235.276 96.648 234.716 97.832C234.422 98.485 234.278 99.189 233.962 99.857C233.725 100.374 233.431 100.869 233.193 101.429C233.05 101.781 233.007 102.118 232.855 102.449C232.555 103.102 232.123 103.763 231.835 104.402C231.669 104.754 231.595 105.142 231.62 105.53C231.634 105.566 231.634 105.616 231.685 105.637C231.885 105.687 232.285 105.343 232.518 105.113C233.301 104.366 233.423 102.923 233.962 101.94C234.113 101.652 234.307 101.34 234.436 101.049C234.498 100.839 234.572 100.633 234.658 100.432C234.995 99.793 235.419 99.219 235.714 98.544C235.936 98.055 235.965 97.503 236.173 97.044C237.057 95.134 238.084 93.304 238.931 91.386C239.319 90.518 239.405 89.534 239.743 88.586C239.951 88.026 240.288 87.573 240.525 87.042C240.705 86.632 240.748 86.201 240.942 85.778C241.186 85.24 241.542 84.73 241.742 84.134C241.864 83.753 241.921 83.366 242.065 82.993C242.244 82.569 242.524 82.217 242.711 81.815C242.922 81.1982 243.089 80.5673 243.211 79.927C243.326 79.553 243.476 79.173 243.592 78.835C243.686 78.519 243.729 78.189 243.836 77.887C244.094 77.162 244.525 76.53 244.798 75.787C244.978 75.287 244.935 74.659 245.157 74.178C245.33 73.784 245.646 73.468 245.803 73.051C245.983 72.613 245.817 72.096 245.961 71.586C246.09 71.098 246.291 70.645 246.449 70.178C246.535 69.884 246.564 69.604 246.643 69.324C246.873 68.735 247.08 68.14 247.289 67.55C247.403 67.25 247.403 66.969 247.526 66.696C247.692 66.344 247.943 66.014 248.079 65.633C248.23 65.052 248.273 64.449 248.409 63.888C248.639 63.128 248.919 62.525 249.142 61.799C249.185 61.569 249.185 61.346 249.257 61.088C249.436 60.442 249.523 59.716 249.703 59.07C249.774 58.754 249.76 58.489 249.839 58.18C250.019 57.57 250.22 56.959 250.406 56.38C250.506 55.992 250.521 55.611 250.622 55.246C250.916 54.29 251.189 53.163 251.469 52.246C251.541 51.972 251.527 51.721 251.606 51.42C251.836 50.687 252.137 49.812 252.306 49.058C252.384 48.621 252.391 48.197 252.485 47.794C252.6 47.285 252.779 46.794 252.885 46.287C252.921 46.049 252.885 45.877 252.907 45.676C252.95 45.346 252.979 45.023 253.036 44.692C253.373 43.364 253.884 41.741 254.171 40.42C254.265 39.939 254.279 39.458 254.329 38.984C254.386 38.654 254.407 38.266 254.501 37.921C254.631 37.5746 254.737 37.2194 254.817 36.858C254.889 36.291 254.889 35.73 254.975 35.185C254.982 35.1438 254.992 35.103 255.004 35.063C255.118 34.381 255.456 33.003 255.535 32.449C255.621 31.796 255.7 31.121 255.786 30.482C255.8 30.059 255.872 29.614 255.923 29.168C256.023 28.486 256.181 27.89 256.261 27.179C256.311 26.713 256.29 26.296 256.346 25.894C256.375 25.643 256.389 25.212 256.712 25.212C257.035 25.212 256.978 25.578 257 25.873C257.01 26.5654 256.959 27.2574 256.849 27.941C256.755 28.752 256.82 29.549 256.741 30.376C256.683 30.842 256.541 31.302 256.49 31.739C256.375 32.522 256.297 33.319 256.196 34.065V34.108C256.169 34.4527 256.124 34.7955 256.059 35.135C256.056 35.1692 256.048 35.2027 256.037 35.235C256.039 35.252 256.036 35.2692 256.03 35.285C256.024 35.304 256.019 35.3234 256.016 35.343H256.009C255.98 35.501 255.951 35.652 255.909 35.802C255.83 36.096 255.859 36.341 255.772 36.65C255.535 37.55 255.593 38.538 255.335 39.414C254.976 40.728 254.789 42.186 254.408 43.478C254.315 43.859 254.408 44.239 254.301 44.649C254.194 45.059 254.092 45.46 253.992 45.877C253.892 46.365 253.963 46.877 253.826 47.377C253.711 47.837 253.575 48.303 253.452 48.741C253.309 49.28 253.295 49.833 253.152 50.414C252.962 51.0109 252.804 51.6174 252.679 52.231C252.564 52.906 252.492 53.667 252.363 54.385C252.255 54.974 251.932 55.685 251.788 56.331C251.745 56.547 251.766 56.762 251.73 56.977C251.652 57.444 251.508 57.897 251.414 58.341C251.365 58.55 251.378 58.741 251.314 58.958C251.105 59.806 250.833 60.876 250.567 61.723C250.502 61.952 250.473 62.197 250.416 62.441C250.244 63.041 250.064 63.49 249.993 63.813C249.935 64.093 249.907 64.43 249.827 64.739C249.698 65.198 249.562 65.6 249.475 66.003C249.403 66.319 249.354 66.603 249.267 66.915C249.157 67.2931 249.02 67.6627 248.857 68.021C248.599 68.782 248.57 69.593 248.297 70.34C248.131 70.778 247.924 71.208 247.779 71.676C247.658 72.107 247.629 72.631 247.499 73.12C247.233 73.852 246.954 74.692 246.688 75.432C246.372 76.315 246.178 77.27 245.888 78.103C245.758 78.441 245.788 78.764 245.673 79.122C245.428 79.948 245.141 80.889 244.873 81.729C244.73 82.174 244.73 82.605 244.55 83.029C244.27 83.729 243.861 84.321 243.595 85.047C243.38 85.672 243.33 86.289 243.086 86.856C242.776 87.625 242.433 88.407 242.123 89.218C241.923 89.778 241.85 90.331 241.623 90.855C241.43 91.308 241.17 91.774 240.955 92.234C240.818 92.634 240.682 93.023 240.555 93.426C240.356 93.8493 240.136 94.2618 239.894 94.662C239.643 95.215 239.607 95.803 239.394 96.399C239.071 97.304 238.618 98.223 238.245 99.07C238.095 99.4 238.073 99.709 237.936 100.061C237.707 100.661 237.319 101.117 237.068 101.677C236.823 102.209 236.759 102.769 236.529 103.277C236.127 103.947 235.919 104.715 235.929 105.496C235.925 105.543 235.937 105.59 235.963 105.629C235.989 105.668 236.028 105.697 236.073 105.711C236.266 105.79 236.496 105.446 236.633 105.323C237.1 104.773 237.45 104.133 237.66 103.442C238.205 102.258 238.902 101.142 239.441 99.988C239.728 99.388 239.841 98.724 240.123 98.1C240.295 97.726 240.546 97.346 240.712 96.973C240.963 96.427 241.093 95.86 241.373 95.373C241.766 94.6043 242.113 93.8133 242.414 93.004C242.535 92.704 242.55 92.404 242.679 92.113C242.822 91.797 243.053 91.524 243.188 91.213C243.388 90.732 243.525 90.121 243.727 89.613C244.164 88.658 244.653 87.646 245.027 86.633C245.364 85.707 245.522 84.816 245.859 83.868C246.003 83.48 246.189 83.068 246.326 82.668C246.433 82.316 246.44 82.007 246.563 81.677C246.872 80.829 247.263 79.925 247.64 79.113C247.812 78.704 247.862 78.313 248.021 77.885C248.2 77.354 248.437 76.785 248.621 76.277C248.872 75.595 248.879 74.798 249.138 74.087C249.684 72.55 250.402 70.949 250.876 69.333C250.962 68.959 250.934 68.579 251.049 68.205C251.3 67.405 251.566 66.505 251.817 65.635C252.097 64.68 252.068 63.675 252.363 62.742C252.743 61.529 253.181 60.264 253.555 59.073C253.663 58.714 253.613 58.333 253.727 57.945C253.979 57.026 254.302 55.934 254.611 55.08C254.761 54.649 254.761 54.18 254.927 53.78C255.12 53.28 255.616 53.464 255.573 54.017C255.516 54.4886 255.43 54.9562 255.315 55.417C255.257 55.762 255.257 56.106 255.178 56.473C255.028 57.119 254.819 57.657 254.64 58.246C254.44 58.864 254.44 59.431 254.274 60.063C254.174 60.372 254.051 60.716 253.958 61.011C253.771 61.643 253.771 62.318 253.558 62.892C253.392 63.33 253.271 63.883 253.127 64.364C253.042 64.68 253.055 64.938 252.955 65.254C252.789 65.829 252.61 66.396 252.423 66.97C252.338 67.293 252.366 67.58 252.301 67.882C252.171 68.342 252.063 68.802 251.935 69.225C251.82 69.625 251.835 70.187 251.691 70.618C251.439 71.401 251.145 72.234 250.891 72.981C250.591 73.807 250.554 74.661 250.259 75.508C249.721 76.988 249.232 78.697 248.701 80.197C248.557 80.578 248.601 80.973 248.485 81.389C248.306 82.028 248.162 82.667 247.94 83.306C247.832 83.606 247.631 83.916 247.509 84.189C247.33 84.555 247.294 84.95 247.121 85.331C246.985 85.625 246.791 85.931 246.676 86.243C246.51 86.717 246.568 87.306 246.382 87.75C246.245 88.109 246.052 88.504 245.908 88.878C245.751 89.288 245.758 89.732 245.585 90.12C245.448 90.45 245.204 90.773 245.047 91.104C244.921 91.4259 244.821 91.7573 244.747 92.095C244.603 92.454 244.41 92.82 244.258 93.158C244.093 93.531 244.086 93.958 243.906 94.358C243.763 94.696 243.532 95.019 243.397 95.385C243.262 95.751 243.253 96.175 243.117 96.577C242.887 97.158 242.528 97.668 242.276 98.221C242.09 98.631 242.068 99.097 241.876 99.521C241.668 100.009 241.376 100.483 241.151 100.95C240.864 101.596 240.651 102.271 240.362 102.874C239.888 103.951 239.723 105.129 239.227 106.184C238.868 106.984 238.373 107.713 238.021 108.484C237.834 108.922 237.77 109.384 237.568 109.784C237.353 110.251 236.958 110.645 236.75 111.127C236.577 111.593 236.441 112.075 236.24 112.527C235.96 113.127 235.579 113.661 235.307 114.242C235.149 114.573 235.077 114.896 234.926 115.227C234.632 115.88 234.137 116.411 233.835 117.05C233.691 117.467 233.535 117.882 233.39 118.314C233.067 118.996 232.557 119.578 232.219 120.267C232.024 120.787 231.79 121.291 231.519 121.775C231.06 122.5 230.759 122.975 230.306 123.714C229.966 124.259 229.657 124.823 229.38 125.402C229.143 125.919 228.748 126.342 228.519 126.845C228.29 127.348 227.98 127.879 227.719 128.345C227.419 128.876 227.119 129.257 226.778 129.76C226.246 130.571 225.909 131.44 225.378 132.266C225.012 132.84 224.588 133.422 224.186 133.975C223.101 135.461 221.558 138.097 220.905 138.987C220.352 139.705 219.9 140.567 219.389 141.314C219.008 141.914 218.521 142.484 218.097 143.03C217.745 143.475 217.472 143.963 217.135 144.437L216.862 144.796C203.068 162.338 188.886 173.942 176.88 181.56L176.887 181.567C173.824 183.598 170.559 185.307 167.144 186.667C166.344 187.005 166.885 187.586 167.301 187.844L218.001 220.274L215.621 226.531C169.875 210.037 135.905 196.296 113.985 185.894ZM193.056 121.852C192.445 122.352 192.025 123.046 191.864 123.819C191.863 123.84 191.866 123.861 191.872 123.881C191.879 123.9 191.89 123.918 191.904 123.934C191.918 123.949 191.935 123.962 191.955 123.97C191.974 123.979 191.994 123.984 192.015 123.984C192.715 124.078 193.486 123.072 193.815 122.598C193.915 122.462 194.297 121.65 194.203 121.529C194.165 121.507 194.121 121.497 194.077 121.501C193.714 121.537 193.364 121.657 193.056 121.852ZM235.307 107.152C234.726 107.238 234.165 108.652 233.878 109.177C233.562 109.73 233.078 110.177 232.802 110.742C232.557 111.266 232.472 111.919 232.202 112.422C231.98 112.81 231.621 113.122 231.377 113.492C231.082 114.02 230.823 114.567 230.601 115.129C230.328 115.729 229.933 116.199 229.701 116.78C229.594 117.079 229.569 117.401 229.629 117.713C229.64 117.76 229.665 117.802 229.701 117.834C229.737 117.866 229.781 117.886 229.829 117.892C230.59 117.871 230.821 116.736 231.151 116.22C231.424 115.782 231.668 115.315 231.951 114.877C232.181 114.575 232.387 114.255 232.568 113.921C232.726 113.476 232.913 113.041 233.129 112.621C233.258 112.413 233.474 112.234 233.624 112.04C234.062 111.476 234.418 110.852 234.68 110.188C234.738 109.936 234.81 109.688 234.866 109.441C235.024 109.017 235.218 108.551 235.366 108.098C235.45 107.824 235.476 107.536 235.445 107.251C235.413 107.194 235.387 107.151 235.345 107.151L235.307 107.152ZM214.007 106.979C213.368 107.029 212.758 108.15 212.435 108.588C212.206 108.904 211.935 109.22 211.724 109.55C211.408 110.031 211.279 110.605 210.948 111.057C210.548 111.602 210.058 112.12 209.627 112.673C209.348 112.951 209.117 113.274 208.945 113.628C208.881 113.837 208.679 114.597 208.816 114.669C209.289 114.842 210.453 113.521 210.776 113.032C211.376 112.132 211.976 111.132 212.607 110.254C213.354 109.525 213.843 108.572 214 107.54C214.014 107.383 214.106 106.979 214.01 106.979H214.007ZM213.669 113.355C213.523 113.614 213.441 113.905 213.432 114.203C213.432 114.397 213.518 114.483 213.625 114.483C213.984 114.454 214.135 114.231 214.358 114.066C214.7 113.819 214.977 113.494 215.169 113.118C215.36 112.742 215.459 112.327 215.458 111.905C215.472 111.805 215.429 111.775 215.358 111.775H215.351C214.65 111.778 213.943 112.857 213.671 113.357L213.669 113.355ZM234.694 89.386C234.556 89.5013 234.427 89.626 234.306 89.759C234.212 89.903 234.191 90.059 234.091 90.205C233.834 90.5367 233.605 90.89 233.409 91.261C233.035 92.072 232.935 92.977 232.561 93.767C232.324 94.285 231.922 94.736 231.661 95.261C231.54 95.5538 231.44 95.8545 231.361 96.161C231.322 96.3984 231.303 96.6385 231.303 96.879C231.296 97.152 231.325 97.317 231.418 97.332C232.118 97.289 232.33 96.427 232.588 95.924C232.747 95.647 232.887 95.3589 233.005 95.062C233.127 94.739 233.142 94.445 233.271 94.136C233.724 93.136 234.226 92.036 234.671 91.055C234.95 90.5321 235.046 89.9309 234.944 89.347C234.938 89.3345 234.928 89.3242 234.915 89.3176C234.903 89.311 234.889 89.3083 234.875 89.31C234.808 89.3123 234.744 89.3402 234.696 89.388L234.694 89.386Z" fill="white"/>
<path d="M0.321014 234.991H212.438L300.504 0.831055H228.346C228.346 0.831055 217.003 1.73805 208.764 7.15205C200.525 12.5661 189.715 26.3361 189.715 26.3361L0.321014 234.991Z" fill="url(#paint0_linear)"/>
<defs>
<linearGradient id="paint0_linear" x1="137.505" y1="55.6245" x2="265.695" y2="196.051" gradientUnits="userSpaceOnUse">
<stop stop-opacity="0"/>
<stop offset="1" stop-opacity="0.078"/>
</linearGradient>
</defs>
</svg>
