<svg width="301" height="235" viewBox="0 0 301 235" fill="none" xmlns="http://www.w3.org/2000/svg">
<path d="M0 234.16H212.117L300.183 0H228.025C228.025 0 216.682 0.906999 208.443 6.321C200.204 11.735 189.394 25.505 189.394 25.505L0 234.16Z" fill="#0093D0"/>
<path d="M-6.10352e-05 234.16H212.117L300.183 0H228.025C228.025 0 216.682 0.906999 208.443 6.321C200.204 11.735 189.394 25.505 189.394 25.505L-6.10352e-05 234.16Z" fill="url(#paint0_linear)"/>
<path fill-rule="evenodd" clip-rule="evenodd" d="M196.13 102.824C192.848 101.239 190.598 97.8973 190.598 94.0446C190.598 88.6661 194.962 84.2762 200.349 84.2762C205.744 84.2762 210.117 88.6746 210.117 94.0446C210.117 97.9314 207.816 101.298 204.551 102.841L204.527 105.594C207.587 105.901 211.201 107.129 213.434 108.271C214.432 108.186 215.727 108.151 217.04 108.151C229.365 108.151 238 116.266 238 127.458C238 134.439 231.795 140.712 224.839 140.712C217.858 140.712 211.534 133.859 212.804 126.981C212.804 126.981 212.062 129.341 212.062 132.24C212.062 134.098 212.062 167.468 212.062 167.468C211.781 171.466 206.394 193.603 181.504 193.603C156.623 193.603 151.219 171.458 150.938 167.468C150.938 167.468 150.938 134.098 150.938 132.24C150.938 129.341 150.188 126.981 150.188 126.981C151.543 133.612 145.116 140.712 138.169 140.712C131.197 140.712 125 134.447 125 127.458C125 116.266 133.626 108.151 145.986 108.151C147.264 108.151 148.568 108.188 149.557 108.271C151.79 107.12 155.592 105.799 158.456 105.594V102.807C155.2 101.222 152.932 97.8973 152.932 94.0446C152.932 88.6661 157.305 84.2762 162.701 84.2762C168.105 84.2762 172.469 88.6746 172.469 94.0446C172.469 97.9314 170.193 101.332 166.894 102.867L166.87 106.515C167.697 106.805 168.567 107.095 169.385 107.478C170.868 104.222 173.92 101.691 177.355 100.531V97.5563C174.064 95.9794 171.78 92.6553 171.78 88.7599C171.78 83.3729 176.153 79 181.548 79C186.944 79 191.317 83.3729 191.317 88.7599C191.317 92.6553 189.032 96.0051 185.759 97.5735L185.742 100.523C189.169 101.682 192.186 104.231 193.661 107.478C194.47 107.095 195.348 106.805 196.158 106.515L196.134 102.824H196.13Z" fill="white"/>
<path d="M234.086 127.458C234.154 118.397 227.924 110.99 215.223 110.99C206.759 110.99 196.709 118.082 196.709 136.178C196.709 150.37 196.709 163.087 196.709 163.087C200.358 160.675 205.446 158.459 208.217 158.433C208.217 150.498 208.217 134.763 208.217 133.373C208.217 123.784 215.121 120.954 218.351 120.971C216.502 122.625 215.428 124.705 215.428 127.458C215.428 132.572 219.647 136.8 224.77 136.8C229.876 136.8 233.865 133.058 234.086 127.458Z" fill="#ED1B2F"/>
<path d="M128.877 127.458C128.801 118.397 135.04 110.99 147.74 110.99C156.196 110.99 166.262 118.082 166.262 136.178C166.262 150.37 166.262 163.087 166.262 163.087C162.597 160.675 157.517 158.459 154.738 158.433C154.738 150.498 154.738 134.763 154.738 133.373C154.738 123.784 147.834 120.954 144.603 120.971C146.436 122.625 147.536 124.705 147.536 127.458C147.536 132.572 143.299 136.8 138.185 136.8C133.079 136.8 129.107 133.058 128.877 127.458Z" fill="#ED1B2F"/>
<path d="M181.486 189.664C202.812 189.664 207.628 171.816 208.259 167.264C208.259 167.264 208.259 162.226 208.259 161.238C201.67 162.874 195.789 166.378 191.774 171.62C190.368 165.483 186.498 160.274 181.486 156.882C176.474 160.266 172.613 165.483 171.155 171.62C167.174 166.378 161.293 162.883 154.704 161.238C154.704 162.226 154.704 167.264 154.704 167.264C155.343 171.824 160.168 189.664 181.486 189.664Z" fill="#ED1B2F"/>
<path d="M182.995 95.4423V102.841C186.609 103.344 189.873 105.876 190.982 108.867C186.651 111.689 183.148 115.951 181.477 121.261C179.807 115.951 176.321 111.689 171.99 108.867C173.32 105.876 176.389 103.344 179.969 102.841V95.4254C176.951 94.7349 174.667 92.016 174.667 88.7599C174.667 84.9753 177.744 81.9237 181.52 81.9237C185.305 81.9237 188.382 84.9668 188.382 88.7599C188.365 92.033 186.046 94.769 182.995 95.4423Z" fill="#ED1B2F"/>
<path d="M164.165 100.719V108.595C173.473 110.461 180.079 120.298 180.079 129.367C180.079 138.999 180.079 154.564 180.079 154.564C175.707 157.01 171.47 162.141 170.081 166.437C169.731 166.028 169.416 165.627 168.939 165.21C168.939 165.21 168.939 146.747 168.939 132.606C168.939 122.787 163.671 112.908 154.252 109.677C154.252 109.677 157.312 108.382 161.131 108.424V100.685C158.097 100.02 155.821 97.2836 155.821 94.0446C155.821 90.2515 158.889 87.1743 162.674 87.1743C166.458 87.1743 169.527 90.243 169.527 94.0446C169.527 97.2921 167.234 100.028 164.165 100.719Z" fill="#ED1B2F"/>
<path d="M201.815 100.727V108.407C205.642 108.364 208.702 109.66 208.702 109.66C199.292 112.899 194.024 122.923 194.024 132.589C194.024 146.73 194.024 165.193 194.024 165.193C193.538 165.61 193.223 166.011 192.865 166.42C191.492 162.124 187.265 157.001 182.883 154.547C182.883 154.547 182.866 138.982 182.866 129.35C182.866 120.289 189.472 110.444 198.797 108.578V100.685C195.78 99.9855 193.495 97.2836 193.495 94.0446C193.495 90.2515 196.547 87.1743 200.34 87.1743C204.133 87.1743 207.202 90.243 207.202 94.0446C207.202 97.2921 204.866 100.062 201.815 100.727H201.815Z" fill="#ED1B2F"/>
<defs>
<linearGradient id="paint0_linear" x1="137.184" y1="54.7934" x2="265.374" y2="195.22" gradientUnits="userSpaceOnUse">
<stop stop-opacity="0"/>
<stop offset="1" stop-opacity="0.078"/>
</linearGradient>
</defs>
</svg>
