<svg width="301" height="235" viewBox="0 0 301 235" fill="none" xmlns="http://www.w3.org/2000/svg">
<path d="M0 234.16H212.117L300.183 0H228.025C228.025 0 216.682 0.906999 208.443 6.321C200.204 11.735 189.394 25.505 189.394 25.505L0 234.16Z" fill="#FAFAFA"/>
<path fill-rule="evenodd" clip-rule="evenodd" d="M251.714 120.151C202.021 121.529 153.928 132.807 149.459 148.799C149.05 150.25 148.948 151.684 148.948 153.145C148.948 168.895 181.827 174.283 217.42 178.72C218.03 178.791 218.004 178.305 217.805 177.955C217.665 177.707 217.132 176.766 216.767 176.117C216.624 175.864 216.47 175.698 215.972 175.555C196.492 170.598 176.715 163.357 176.715 156.605C176.715 143.834 209.852 131.184 247.587 125.401C248.832 125.161 249.427 124.928 250.264 124.263C251.31 123.429 253.613 121.548 254.587 120.77C255.222 120.242 254.996 120.076 254.756 120.081C253.745 120.101 252.733 120.122 251.714 120.153L251.714 120.151Z" fill="#1B1D80"/>
<path fill-rule="evenodd" clip-rule="evenodd" d="M196.742 197.25C170.928 190.781 145.345 169.116 149.375 149.045C155.265 119.759 194.649 91.3912 243.799 78.0602C244.907 77.7319 245.316 77 243.896 77H176.814C165.2 77 162.682 78.5015 158.184 84.5885C155.787 87.8257 135.711 115.507 126.658 127.985C125.493 129.471 123.847 131.069 120.182 131.069H104C104 131.075 104 131.077 104.013 131.085C123.19 185.268 143.79 198.044 164.425 198.044H197.005C197.465 198.044 197.926 197.549 196.742 197.25" fill="#DF0011"/>
<path d="M-6.10352e-05 234.16H212.117L300.183 0H228.025C228.025 0 216.682 0.906999 208.443 6.321C200.204 11.735 189.394 25.505 189.394 25.505L-6.10352e-05 234.16Z" fill="url(#paint0_linear)"/>
<defs>
<linearGradient id="paint0_linear" x1="137.184" y1="54.7934" x2="265.374" y2="195.22" gradientUnits="userSpaceOnUse">
<stop stop-opacity="0"/>
<stop offset="1" stop-opacity="0.078"/>
</linearGradient>
</defs>
</svg>
