<svg width="301" height="235" viewBox="0 0 301 235" fill="none" xmlns="http://www.w3.org/2000/svg">
<path d="M0.32196 234.991H212.439L300.505 0.830994H228.347C228.347 0.830994 217.004 1.73799 208.765 7.15199C200.526 12.566 189.716 26.336 189.716 26.336L0.32196 234.991Z" fill="url(#paint0_linear)"/>
<path d="M195.682 234.989L218.737 154.861L238.183 166.545L212.443 234.988L195.682 234.989ZM140.213 234.989L87.164 139.315L124.464 98.215L198.688 142.815L172.088 234.987L140.213 234.989Z" fill="#9A0300"/>
<path d="M218.736 154.862L256.187 118.673L238.187 166.547L218.736 154.862ZM124.468 98.219L171.428 46.484L282.601 48.439L274.869 68.999L198.693 142.818L124.468 98.219Z" fill="#F70B04"/>
<defs>
<linearGradient id="paint0_linear" x1="138.406" y1="161.231" x2="200.507" y2="250.474" gradientUnits="userSpaceOnUse">
<stop stop-color="#1C3272"/>
<stop offset="1" stop-color="#06154B"/>
</linearGradient>
</defs>
</svg>
