<svg width="301" height="235" viewBox="0 0 301 235" fill="none" xmlns="http://www.w3.org/2000/svg">
<path d="M0.321899 234.991H212.439L300.505 0.831055H228.347C228.347 0.831055 217.004 1.73805 208.765 7.15205C200.526 12.5661 189.716 26.3361 189.716 26.3361L0.321899 234.991Z" fill="url(#paint0_linear)"/>
<path d="M112.816 170.683L103.739 180.417C103.326 180.86 103.34 181.248 103.702 181.586C104.239 182.02 104.867 182.328 105.54 182.487C106.212 182.645 106.912 182.65 107.586 182.501C109.161 182.35 110.629 181.635 111.719 180.489C112.403 179.723 112.975 178.863 113.416 177.935C113.879 177.032 114.2 176.063 114.367 175.061C114.408 174.494 114.604 173.948 114.934 173.485C115.148 173.285 115.407 173.14 115.689 173.063C115.971 172.985 116.267 172.977 116.553 173.039C117.242 173.058 117.901 173.325 118.408 173.792C119.414 174.73 119.776 176.196 119.539 178.305C119.152 182.011 117.533 185.48 114.941 188.156C112.547 190.889 109.228 192.641 105.621 193.077C103.891 193.26 102.142 193.109 100.469 192.634C98.2143 192.017 96.1439 190.86 94.436 189.264C92.1615 187.184 90.6525 184.4 90.1517 181.359C89.672 178.686 89.9242 175.932 90.8817 173.391C91.6237 171.392 92.7661 169.566 94.2391 168.024C96.4219 165.541 99.41 163.907 102.678 163.41C104.252 163.166 105.859 163.256 107.396 163.673C108.985 164.025 110.458 164.777 111.675 165.858C112.469 166.561 113.053 167.47 113.362 168.485C113.453 168.868 113.451 169.268 113.356 169.65C113.261 170.032 113.076 170.387 112.816 170.683ZM100.403 176.253L102.353 174.161C103.178 173.276 103.189 172.459 102.384 171.709C102.071 171.384 101.697 171.125 101.283 170.946C100.87 170.766 100.425 170.671 99.9739 170.664C99.5426 170.659 99.1156 170.751 98.7245 170.933C98.3334 171.115 97.9883 171.383 97.7147 171.716C97.3762 172.064 97.1293 172.49 96.9961 172.956C96.863 173.423 96.8478 173.915 96.9519 174.389C97.0927 175.234 97.5019 176.011 98.1189 176.605C98.2629 176.769 98.439 176.902 98.6364 176.996C98.8337 177.089 99.0481 177.141 99.2664 177.149C99.6987 176.925 100.084 176.621 100.403 176.253Z" fill="white"/>
<path d="M115.577 144.981C117.525 142.745 120.149 141.206 123.051 140.595C124.358 140.302 125.721 140.375 126.989 140.807C128.454 141.43 129.781 142.336 130.895 143.473L133.915 146.364C135.23 147.753 136.77 148.91 138.471 149.785C138.778 149.917 139.121 149.946 139.446 149.868C139.833 149.701 140.192 149.479 140.513 149.208C141.006 148.84 141.479 148.905 141.998 149.389C142.713 150.131 143.17 151.084 143.299 152.107C143.541 153.499 143.467 154.928 143.083 156.288C142.7 157.649 142.016 158.906 141.083 159.967C140.513 160.643 139.794 161.178 138.983 161.53C138.171 161.882 137.29 162.043 136.407 161.998C136.184 161.953 135.954 161.957 135.734 162.012C135.514 162.067 135.309 162.171 135.134 162.315C134.801 162.771 134.629 163.325 134.644 163.889C134.324 166.06 133.389 168.093 131.951 169.75C130.512 171.407 128.63 172.618 126.526 173.239C125.323 173.481 124.081 173.431 122.902 173.094C121.712 172.786 120.62 172.181 119.727 171.337C119.008 170.668 118.443 169.853 118.068 168.946C117.694 168.039 117.52 167.061 117.559 166.081C117.517 162.658 119.145 159.138 122.484 155.558C123.016 155.103 123.413 154.51 123.63 153.844C123.601 153.579 123.517 153.322 123.382 153.092C123.247 152.861 123.065 152.662 122.848 152.506C121.82 151.448 120.602 150.593 119.257 149.985C118.852 149.833 118.409 149.808 117.989 149.913C117.569 150.018 117.19 150.248 116.904 150.573C116.536 150.964 116.308 151.466 116.257 152C116.216 152.835 116.298 153.671 116.499 154.483C117.104 157.302 116.788 159.415 115.551 160.742C115.007 161.371 114.238 161.762 113.409 161.829C113.01 161.859 112.609 161.801 112.234 161.659C111.859 161.518 111.52 161.296 111.24 161.009C110.541 160.293 110.109 159.359 110.016 158.363C109.856 157.095 109.957 155.807 110.312 154.578C111.227 150.985 113.038 147.683 115.577 144.981ZM126.211 157.529C125.932 157.827 125.722 158.182 125.595 158.57C125.467 158.957 125.425 159.368 125.472 159.773C125.556 160.607 125.915 161.389 126.493 161.995C127.071 162.602 127.834 163 128.663 163.125C128.991 163.16 129.322 163.117 129.629 162.998C129.937 162.879 130.211 162.688 130.429 162.441C131.442 161.354 131.042 159.929 129.188 158.2C128.706 157.671 128.105 157.265 127.434 157.016C127.203 156.982 126.967 157.012 126.751 157.103C126.536 157.193 126.349 157.34 126.211 157.529Z" fill="white"/>
<path d="M134.632 124.546C135.754 123.468 136.955 122.477 138.226 121.58C138.502 121.364 138.767 121.134 139.019 120.89C139.4 120.366 139.707 119.793 139.932 119.185C140.061 118.827 140.246 118.492 140.481 118.193C140.889 117.841 141.372 117.586 141.893 117.446C142.413 117.307 142.959 117.287 143.489 117.388C144.627 117.463 145.749 117.699 146.821 118.089C147.724 118.389 148.56 118.862 149.282 119.481C149.541 119.713 149.75 119.996 149.895 120.313C150.04 120.629 150.118 120.972 150.125 121.32C150.123 122.054 149.841 122.76 149.337 123.293C148.922 123.757 148.378 124.088 147.775 124.243C146.714 124.452 145.639 124.58 144.559 124.627C142.889 124.725 141.771 125.036 141.246 125.599C140.909 125.993 140.732 126.499 140.75 127.017C140.769 127.535 140.98 128.028 141.344 128.398C142.027 129.035 143.231 128.954 145.035 128.23C147.685 127.011 150.533 126.279 153.442 126.068C154.413 126.024 155.382 126.178 156.29 126.521C157.199 126.864 158.028 127.389 158.727 128.063C159.671 128.943 160.386 130.041 160.809 131.261C161.231 132.48 161.348 133.785 161.15 135.061C160.879 137.66 159.729 140.09 157.888 141.946C156.938 142.899 155.93 143.792 154.869 144.62C153.47 145.797 152.677 146.486 152.527 146.647C152.347 146.859 152.186 147.086 152.044 147.326C151.71 147.765 151.487 148.084 151.3 148.286C150.818 148.867 150.139 149.251 149.392 149.364C148.067 149.394 146.75 149.162 145.515 148.682C144.235 148.29 143.048 147.643 142.024 146.78C140.777 145.618 140.584 144.535 141.522 143.529C141.874 143.147 142.348 142.898 142.863 142.824C144.18 142.693 145.504 142.647 146.827 142.686C147.687 142.7 148.546 142.618 149.387 142.441C149.95 142.293 150.455 141.976 150.834 141.534C151.218 141.155 151.45 140.649 151.485 140.111C151.492 139.863 151.442 139.617 151.34 139.391C151.238 139.165 151.085 138.966 150.894 138.808C150.291 138.245 149.237 138.24 147.705 138.842C145.229 139.915 142.56 140.471 139.862 140.477C137.845 140.398 135.925 139.594 134.452 138.215C132.867 136.819 131.857 134.886 131.616 132.788C131.488 131.277 131.692 129.757 132.213 128.333C132.734 126.91 133.56 125.617 134.632 124.546Z" fill="white"/>
<path d="M174.22 102.496L179.152 112.208C180.206 114.226 181.087 116.331 181.784 118.498C182.303 120.166 182.586 121.898 182.625 123.645C182.66 125.28 182.372 126.905 181.778 128.428C181.183 129.952 180.294 131.343 179.16 132.521C177.584 134.4 175.367 135.628 172.938 135.969C172.127 136.073 171.303 135.995 170.526 135.739C169.75 135.483 169.04 135.057 168.45 134.491C167.949 134.052 167.539 133.519 167.245 132.921C166.95 132.324 166.776 131.674 166.733 131.01C166.68 130.371 166.764 129.728 166.977 129.124C167.191 128.519 167.53 127.967 167.972 127.503C168.375 127.035 168.875 126.66 169.437 126.405C170 126.15 170.611 126.021 171.229 126.027C171.68 126.007 172.13 126.071 172.558 126.214C172.875 126.359 173.548 126.686 174.499 127.197C175.253 127.599 175.875 127.577 176.4 127.014C176.593 126.798 176.733 126.54 176.811 126.261C176.889 125.981 176.902 125.688 176.849 125.403C176.755 124.732 176.414 124.12 175.894 123.685C174.606 122.773 173.157 122.11 171.623 121.733L156.393 116.856C155.374 116.499 154.321 116.25 153.25 116.113C152.342 116.239 151.458 116.506 150.632 116.905C150.216 117.084 149.755 117.128 149.313 117.029C148.871 116.95 148.459 116.749 148.125 116.447C146.919 115.322 147.199 113.328 149.045 110.461C150.448 108.341 152.032 106.346 153.779 104.498C154.837 103.298 156.074 102.271 157.447 101.451C158.9 100.7 160.109 100.775 161.074 101.675C161.488 102.118 161.753 102.681 161.831 103.283C161.915 103.861 162.18 104.398 162.588 104.816C162.956 105.137 163.373 105.398 163.822 105.591C164.699 105.891 165.591 106.145 166.494 106.353C167.947 106.731 168.843 106.738 169.218 106.336C169.63 105.894 169.601 105.038 169.168 103.808C168.815 102.684 168.192 101.664 167.352 100.836C167.094 100.559 166.782 100.336 166.436 100.181C166.089 100.026 165.716 99.9422 165.336 99.9339C164.494 99.9745 163.663 99.7293 162.977 99.238C162.293 98.6004 162.18 97.5925 162.601 96.2548C163.246 94.6307 164.214 93.1541 165.445 91.9137C168.184 88.9774 170.221 88.1633 171.629 89.4761C172.1 89.8855 172.399 90.4574 172.467 91.0777C172.447 91.925 172.236 92.7569 171.851 93.5119C171.486 94.3751 171.41 95.3336 171.635 96.2435C172.289 98.4077 173.155 100.502 174.22 102.496Z" fill="white"/>
<path d="M177.977 61.9357C179.445 60.3559 181.048 58.9067 182.768 57.6046C183.797 56.705 185.008 56.0387 186.319 55.6516C186.741 55.5476 187.183 55.5533 187.602 55.668C188.022 55.7828 188.405 56.0028 188.715 56.3073C189.095 56.6281 189.345 57.0755 189.421 57.5668C189.423 58.2989 189.303 59.0262 189.068 59.7194C188.887 60.1555 188.808 60.6273 188.838 61.0985C188.868 61.5697 189.006 62.0278 189.241 62.4374C191.186 64.6651 193.247 66.7884 195.417 68.7983C199.04 72.2519 201.174 74.3177 201.861 75.0331C202.54 75.738 203.177 76.4824 203.768 77.2625C205.288 79.2288 206.16 81.6188 206.264 84.1021C206.239 86.1376 205.779 88.1442 204.912 89.9865C203.972 92.0653 202.698 93.9764 201.141 95.644C199.695 97.1898 198.054 98.542 196.261 99.667C194.601 100.736 192.794 101.559 190.899 102.111C189.451 102.489 187.932 102.5 186.479 102.143C185.026 101.786 183.685 101.073 182.577 100.067C181.278 98.9253 180.48 97.3172 180.359 95.5915C180.314 94.7619 180.439 93.932 180.726 93.1525C181.014 92.3729 181.457 91.6602 182.029 91.058C183.096 89.8314 184.58 89.0446 186.194 88.8501C186.933 88.7521 187.684 88.8212 188.393 89.0524C189.101 89.2836 189.749 89.6709 190.288 90.1859C190.747 90.6747 191.157 91.2078 191.511 91.7776C191.622 91.9477 191.759 92.1003 191.916 92.2304C192.116 92.4278 192.358 92.578 192.623 92.6697C192.889 92.7614 193.172 92.7924 193.452 92.7605C194.065 92.6778 194.624 92.3664 195.017 91.8886C195.439 91.4485 195.737 90.9042 195.881 90.3112C196.024 89.7183 196.007 89.098 195.833 88.5135C195.414 87.0022 194.554 85.6502 193.362 84.6304L191.434 82.9077L186.329 78.2217C183.159 75.4916 181.274 73.8841 180.636 73.4394C180.129 73.0212 179.511 72.7589 178.858 72.6843C178.508 72.6251 178.148 72.651 177.81 72.7598C177.58 72.8457 177.046 73.1756 176.207 73.6719C175.811 73.9386 175.331 74.0522 174.857 73.9915C174.356 73.9582 173.881 73.7566 173.51 73.4194C173.155 73.108 172.883 72.7134 172.718 72.2708C172.553 71.8283 172.501 71.3518 172.565 70.884C172.821 69.5002 173.358 68.1836 174.143 67.0153C175.24 65.193 176.525 63.4905 177.977 61.9357Z" fill="white"/>
<path d="M223.96 51.4964L214.92 61.1905C214.507 61.6329 214.521 62.0216 214.883 62.3592C215.42 62.7936 216.048 63.1015 216.721 63.2599C217.393 63.4183 218.093 63.4232 218.767 63.2742C220.342 63.1228 221.809 62.4084 222.9 61.262C223.584 60.4959 224.156 59.6362 224.597 58.7087C225.06 57.8054 225.381 56.836 225.547 55.8347C225.589 55.2672 225.785 54.7218 226.115 54.2583C226.329 54.0586 226.588 53.9136 226.869 53.836C227.151 53.7584 227.448 53.7504 227.734 53.8126C228.423 53.8315 229.082 54.0987 229.589 54.565C230.595 55.5028 230.957 56.9689 230.72 59.0786C230.333 62.7842 228.714 66.2528 226.121 68.9289C223.726 71.6618 220.406 73.4131 216.798 73.8464C215.068 74.0294 213.319 73.8792 211.646 73.4037C209.391 72.7864 207.321 71.63 205.613 70.0342C203.339 67.9542 201.83 65.1697 201.329 62.1285C200.849 59.4554 201.101 56.7023 202.059 54.1609C202.799 52.161 203.94 50.3334 205.413 48.7903C207.595 46.3077 210.583 44.6739 213.851 44.1761C215.425 43.9324 217.033 44.0221 218.569 44.4394C220.159 44.7916 221.631 45.5439 222.848 46.6248C223.643 47.3276 224.227 48.2366 224.536 49.251C224.629 49.6439 224.625 50.0537 224.525 50.4449C224.425 50.8361 224.231 51.197 223.96 51.4964ZM211.546 57.0666L213.496 54.9749C214.322 54.09 214.332 53.2724 213.527 52.5222C213.214 52.1976 212.84 51.9382 212.427 51.759C212.013 51.5798 211.568 51.4842 211.117 51.4778C210.686 51.4726 210.259 51.5644 209.868 51.7464C209.477 51.9285 209.132 52.1961 208.858 52.5296C208.519 52.8771 208.273 53.3033 208.139 53.7698C208.006 54.2363 207.991 54.7286 208.095 55.2024C208.236 56.0474 208.645 56.8245 209.262 57.4187C209.406 57.5828 209.582 57.7158 209.78 57.8093C209.977 57.9027 210.191 57.9549 210.41 57.9624C210.839 57.7343 211.224 57.4308 211.546 57.0666Z" fill="white"/>
<path d="M232.339 30.6561L239.297 37.1454C239.985 37.8511 240.893 38.3001 241.871 38.4175C242.287 38.4734 242.71 38.4283 243.105 38.2858C243.5 38.1433 243.854 37.9077 244.139 37.5989C244.772 36.7743 245.205 35.8131 245.403 34.7919C245.45 34.5004 245.575 34.2272 245.764 34.001C245.961 33.8259 246.197 33.7014 246.452 33.6383C246.708 33.5751 246.975 33.5752 247.23 33.6384C247.854 33.7248 248.435 34.0038 248.892 34.4365C249.345 34.929 249.683 35.5163 249.88 36.1556C250.078 36.795 250.13 37.4703 250.033 38.1325C249.848 41.6806 248.374 45.039 245.888 47.5778C244.178 49.6174 241.736 50.9044 239.086 51.162C237.839 51.2391 236.589 51.0503 235.419 50.6081C234.25 50.1659 233.188 49.4804 232.304 48.597L222.77 39.7071C222.708 39.5709 222.607 39.4561 222.479 39.3774C222.352 39.2986 222.204 39.2593 222.054 39.2646C221.905 39.2698 221.76 39.3193 221.638 39.4067C221.517 39.4942 221.424 39.6157 221.371 39.756L219.461 41.8038C219.24 42.104 218.914 42.3099 218.548 42.3805C218.125 42.2636 217.749 42.0184 217.472 41.6787L216.547 40.816C216.355 40.6544 216.21 40.4444 216.127 40.2079C216.043 39.9713 216.024 39.7168 216.072 39.4705L218.934 24.4663C219.053 24.064 219.267 23.6962 219.558 23.3938L221.133 21.7044C221.232 21.5623 221.363 21.4462 221.516 21.3663C221.669 21.2863 221.84 21.2449 222.012 21.2456C222.429 21.3752 222.801 21.6183 223.088 21.9475L225.867 24.5391C226.123 24.8328 226.474 25.0272 226.859 25.0882C227.255 24.992 227.605 24.7594 227.848 24.431L231.411 20.6097C231.899 20.0867 232.279 19.84 232.63 19.8666C233.189 20.0028 233.69 20.3122 234.062 20.7506L235.269 21.8759C235.789 22.2683 236.175 22.8122 236.374 23.4328C236.379 23.6943 236.327 23.9539 236.222 24.1934C236.117 24.433 235.961 24.6466 235.764 24.8196L232.273 28.5641C231.989 28.8059 231.806 29.1457 231.761 29.516C231.767 29.7368 231.822 29.9535 231.922 30.1506C232.022 30.3477 232.164 30.5204 232.339 30.6561Z" fill="white"/>
<path d="M0.320999 234.991H212.438L300.504 0.831055H228.346C228.346 0.831055 217.003 1.73805 208.764 7.15205C200.525 12.5661 189.715 26.3361 189.715 26.3361L0.320999 234.991Z" fill="url(#paint1_linear)"/>
<defs>
<linearGradient id="paint0_linear" x1="105.986" y1="75.9964" x2="214.985" y2="225.75" gradientUnits="userSpaceOnUse">
<stop stop-color="#FF6600"/>
<stop offset="0.388" stop-color="#FF6600"/>
<stop offset="1" stop-color="#EA5D00"/>
</linearGradient>
<linearGradient id="paint1_linear" x1="137.505" y1="55.6245" x2="265.695" y2="196.051" gradientUnits="userSpaceOnUse">
<stop stop-opacity="0"/>
<stop offset="1" stop-opacity="0.078"/>
</linearGradient>
</defs>
</svg>
