<svg width="301" height="235" viewBox="0 0 301 235" fill="none" xmlns="http://www.w3.org/2000/svg">
<path d="M0.321899 234.991H212.439L300.505 0.830994H228.347C228.347 0.830994 217.004 1.73799 208.765 7.15199C200.526 12.566 189.716 26.336 189.716 26.336L0.321899 234.991Z" fill="url(#paint0_linear)"/>
<path d="M0.322021 234.989L85.296 141.374C115.927 119.338 162.27 91.631 162.27 91.631L59.778 234.989H0.322021Z" fill="#E33B3C"/>
<path d="M62.078 234.989C80.7 210.938 110.99 196.36 129.356 188.123C148.279 179.636 214.978 155.775 231.973 144.623C239.618 139.608 247.253 132.523 253.339 126.243L227.969 193.703C214.006 203.573 197.081 214.424 183.954 219.389C156.848 229.641 120.796 234.709 120.796 234.709V234.987L62.078 234.989Z" fill="#020408"/>
<path d="M105.572 170.935L162.034 91.962L162.52 91.362C163.42 90.815 252.346 36.485 273.495 22.185C278.597 18.6838 283.241 14.5592 287.321 9.90702C289.869 7.02801 292.24 3.99675 294.421 0.830017H300.508L273.34 73.07C268.44 77.264 263.74 81.105 259.307 84.535C252.898 89.5992 246.156 94.2273 239.126 98.388C221.467 108.518 202.526 116.511 182.467 124.976C173.367 128.817 163.95 132.79 154.149 137.166C136.052 145.398 119.595 156.838 105.574 170.933L105.572 170.935Z" fill="#0C7C06"/>
<defs>
<linearGradient id="paint0_linear" x1="116.193" y1="112.291" x2="199.312" y2="234.35" gradientUnits="userSpaceOnUse">
<stop stop-color="#E1E1E1"/>
<stop offset="1" stop-color="#B0B0B0"/>
</linearGradient>
</defs>
</svg>
