<svg width="301" height="249" viewBox="0 0 301 249" fill="none" xmlns="http://www.w3.org/2000/svg">
<path d="M0.32196 234.991H212.439L300.505 0.831055H228.347C228.347 0.831055 217.004 1.73805 208.765 7.15205C200.526 12.5661 189.716 26.3361 189.716 26.3361L0.32196 234.991Z" fill="#E8E7D9"/>
<path d="M141.866 124.223L202.421 141.643L183.259 177.043L141.866 124.223ZM206.366 93.213L209.108 54.001L248.333 139.556L242.24 155.756L206.366 93.213ZM197.356 17.46C200.874 13.673 205.076 9.57703 208.764 7.15303C217.003 1.74003 228.346 0.832031 228.346 0.832031H280.746L209.474 53.232L197.356 17.46Z" fill="#7E511A"/>
<path d="M149.199 234.989L223.761 204.894L212.443 234.989H149.199ZM203.867 141.767L207.21 93.9541L242.387 155.367L236.505 171.007L203.867 141.767ZM207.435 54.6131L279.751 0.831055H300.505L271.905 76.8861L207.435 54.6131Z" fill="#CF8C00"/>
<path d="M92.7 133.216L127.279 175.178L46.979 183.585L92.7 133.216ZM141.008 124.255L169.562 101.037L203.81 142.578L141.008 124.255ZM208.845 54.086L150.845 69.157L189.721 26.335C189.721 26.335 193.185 21.921 197.687 17.109L209.821 53.746L272.141 76.246L256.471 117.916L208.845 54.086Z" fill="#331B0E"/>
<path d="M132.008 234.989L182.842 176.997L182.676 177.004L200.676 144.161L167.104 103.918L142.859 124.275L119.582 103.601L145.889 74.619L169.173 99.731L210.196 51.791L209.927 55.638L256.879 116.831L248.24 139.803L209.873 56.431L203.89 141.992L236.729 170.413L235.088 174.775L183.309 176.975L225.286 200.836L223.658 205.164L149.207 234.986L132.008 234.989ZM0.322021 234.989L47.91 182.562L109.51 234.989H0.322021ZM92.464 133.477L96.223 129.331L142.058 124.231L127.797 175.531L92.464 133.477Z" fill="#D3D3CE"/>
<path d="M179.237 176.776L126.917 175.493L122.065 244.675L183.228 177.056L179.237 176.776Z" fill="white"/>
</svg>
