<svg width="301" height="235" viewBox="0 0 301 235" fill="none" xmlns="http://www.w3.org/2000/svg">
<path d="M0.321899 234.991H212.439L300.505 0.831055H228.347C228.347 0.831055 217.004 1.73805 208.765 7.15205C200.526 12.5661 189.716 26.3361 189.716 26.3361L0.321899 234.991Z" fill="url(#paint0_linear)"/>
<path d="M152.834 134.375C140.009 147.2 135.437 167.105 155.566 187.234C172.34 204.008 192.079 202.034 206.484 187.63C221.285 172.829 219.501 156.855 216.342 153.696C213.973 151.327 207.699 152.123 204.543 155.278C199.413 160.408 204.911 168.692 196.429 177.175C191.296 182.307 181.451 182.703 177.109 178.361C173.755 175.007 174.31 170.864 178.85 166.323L199.4 145.773C204.138 141.036 204.929 137.918 200.39 133.379C196.445 129.434 174.349 112.862 152.836 134.372L152.834 134.375ZM163.087 144.628C167.825 139.89 175.529 139.25 178.687 142.409C181.451 145.173 179.456 149.957 172.946 156.467C167.616 161.797 163.272 162.948 160.315 159.992C156.764 156.44 159.147 148.574 163.091 144.629L163.087 144.628Z" fill="#00447C"/>
<path d="M211.308 124.606C207.147 133.137 209.177 137.213 217.705 141.373C223.222 144.064 229.461 145.883 234.477 135.598C238.024 128.327 237.382 123.305 228.105 118.78C222.083 115.843 216.324 114.322 211.308 124.607L211.308 124.606Z" fill="#00447C"/>
<path d="M130.193 234.989C130.486 234.837 130.776 234.674 131.065 234.5C138.718 229.9 141.701 219.695 133.938 206.775C126.608 194.575 116.682 187.813 107.117 193.56C99.698 198.017 96.371 208.182 104.705 222.053C108.66 228.635 112.965 232.874 117.267 234.989H90.659L62.521 188.153C59.932 183.844 59.934 179.582 64.002 177.138L67.84 174.838C71.188 172.826 75.29 173.648 78.309 178.672L83.039 186.544C85.051 189.891 89.008 192.757 92.356 190.744C96.185 188.444 97.938 183.795 104.642 179.768C119.471 170.857 136.599 174.896 148.242 194.268C158.28 210.974 158.181 225.153 151.386 234.993L130.193 234.989Z" fill="#00447C"/>
<defs>
<linearGradient id="paint0_linear" x1="150.413" y1="0.831046" x2="406.563" y2="455.251" gradientUnits="userSpaceOnUse">
<stop stop-color="#FAFAFA"/>
<stop offset="1" stop-color="#CECFCF"/>
</linearGradient>
</defs>
</svg>
