<svg width="301" height="235" viewBox="0 0 301 235" fill="none" xmlns="http://www.w3.org/2000/svg">
<path d="M0.322021 234.991H212.439L300.505 0.830994H228.347C228.347 0.830994 217.004 1.73799 208.765 7.15199C200.526 12.566 189.716 26.336 189.716 26.336L0.322021 234.991Z" fill="#FAD02F"/>
<path d="M0.321045 234.991L124.43 98.26C129.339 95.4787 134.235 92.7747 139.117 90.148C199.961 57.424 249.932 40.363 288.829 31.877L212.443 234.991H0.321045Z" fill="white"/>
<path d="M0.318115 234.989L87.6181 138.817C109.119 126.687 131.225 115.662 153.849 105.785C203.941 84.24 243.823 74.963 273.865 71.67L212.443 234.989H0.318115Z" fill="#D61D33"/>
<path d="M0.321014 234.991H212.438L300.504 0.830994H228.346C228.346 0.830994 217.003 1.73799 208.764 7.15199C200.525 12.566 189.715 26.336 189.715 26.336L0.321014 234.991Z" fill="url(#paint0_linear)"/>
<defs>
<linearGradient id="paint0_linear" x1="137.505" y1="55.6244" x2="265.695" y2="196.05" gradientUnits="userSpaceOnUse">
<stop stop-opacity="0"/>
<stop offset="1" stop-opacity="0.078"/>
</linearGradient>
</defs>
</svg>
