<svg width="301" height="235" viewBox="0 0 301 235" fill="none" xmlns="http://www.w3.org/2000/svg">
<path d="M0 234.16H212.117L300.183 0H228.025C228.025 0 216.682 0.906999 208.443 6.321C200.204 11.735 189.394 25.505 189.394 25.505L0 234.16Z" fill="#FAFAFA"/>
<path d="M-6.10352e-05 234.16H212.117L300.183 0H228.025C228.025 0 216.682 0.906999 208.443 6.321C200.204 11.735 189.394 25.505 189.394 25.505L-6.10352e-05 234.16Z" fill="url(#paint0_linear)"/>
<path d="M171.761 185.175H176.505L176.299 179.521L171.761 185.175Z" fill="#E60013"/>
<path d="M198.832 154.695C186.184 167.009 167.279 159.147 169.203 144.031C170.687 132.377 184.974 120.771 195.786 114.467C195.845 114.443 195.834 114.371 195.791 114.336C194.382 112.991 191.441 109.94 189.549 107.648C184.309 101.345 175.137 101.079 169.66 107.995L138.553 110.895C138.432 110.909 138.432 111.086 138.553 111.089L171.903 113.018C177.825 113.356 179.749 118.718 174.042 123.041C152.861 139.08 149.088 156.069 153.822 169.529C153.851 169.618 153.717 169.682 153.663 169.607C151.713 166.851 150.261 163.478 149.469 159.944C139.293 153.549 131.036 141.38 131.036 126.358C131.036 104.517 148.836 86.5376 170.854 86.5376C192.872 86.5376 210.671 104.517 210.671 126.358C210.671 138.17 205.497 148.206 198.832 154.695ZM206.614 192.054H187.47L194.256 174.37H202.693L197.326 188.305H208.052L206.614 192.054ZM176.765 192.054L176.637 188.574H169.016L166.211 192.054H159.25L173.376 175.682C174.047 174.902 175.048 174.37 175.968 174.37H183.512L185.205 192.054H176.765ZM147.899 192.653C145.629 192.653 143.657 192.417 142.033 192.054L143.474 188.297C147.333 188.751 150.639 188.416 151.938 185.045L156.033 174.37H164.464L159.953 186.135C157.64 192.148 151.949 192.653 147.899 192.653ZM232.469 152.304C232.874 148.386 232.767 142.772 232.16 138.624C232.16 138.543 232.072 138.543 232.056 138.624C230.792 144.648 226.887 152.806 218.464 159.466C218.386 159.528 218.297 159.423 218.37 159.345C225.749 151.461 230.169 141.742 230.851 131.725C229.455 126.215 227.295 120.881 224.571 116.174C224.534 116.109 224.461 116.131 224.477 116.211C225.98 126.328 223.581 139.686 213.762 150.528C213.701 150.603 213.596 150.514 213.647 150.434C222.103 138.264 224.303 123.443 220.619 110.12C209.351 94.8832 191.259 85 170.854 85C150.451 85 132.359 94.8832 121.094 110.12C117.399 123.443 119.602 138.264 128.055 150.434C128.117 150.514 128.007 150.603 127.95 150.528C118.129 139.686 115.738 126.328 117.238 116.211C117.249 116.131 117.174 116.109 117.139 116.174C114.412 120.881 112.252 126.215 110.865 131.725C111.546 141.742 115.953 151.461 123.343 159.345C123.415 159.423 123.327 159.528 123.249 159.466C114.82 152.806 110.916 144.648 109.655 138.624C109.638 138.543 109.553 138.543 109.55 138.624C108.941 142.772 108.836 148.386 109.244 152.304C111.367 158.967 115.912 164.554 120.56 168.582C120.638 168.649 120.566 168.764 120.477 168.711C115.282 165.477 112.384 162.316 110.398 159.528C110.36 159.466 110.299 159.493 110.309 159.56C116.012 187.334 140.912 208.716 170.854 208.716C200.796 208.716 225.693 187.334 231.406 159.56C231.417 159.493 231.352 159.466 231.315 159.528C229.335 162.316 226.426 165.477 221.233 168.711C221.142 168.764 221.069 168.649 221.153 168.582C225.798 164.554 230.341 158.967 232.469 152.304Z" fill="#E60013"/>
<defs>
<linearGradient id="paint0_linear" x1="137.184" y1="54.7934" x2="265.374" y2="195.22" gradientUnits="userSpaceOnUse">
<stop stop-opacity="0"/>
<stop offset="1" stop-opacity="0.078"/>
</linearGradient>
</defs>
</svg>
