<svg width="301" height="236" viewBox="0 0 301 236" fill="none" xmlns="http://www.w3.org/2000/svg">
<path d="M0.322021 235.991H212.439L300.505 1.83105H228.347C228.347 1.83105 217.004 2.73805 208.765 8.15205C200.526 13.5661 189.716 27.3361 189.716 27.3361L0.322021 235.991Z" fill="#E2231A"/>
<path d="M94.5227 159.256L97.9689 164.075L101.517 159.848L107.283 167.256C109.118 169.58 113.69 175.769 116.63 176.6C117.714 176.809 118.832 176.738 119.881 176.396C120.93 176.053 121.874 175.45 122.626 174.642C125.393 171.686 128.471 167.849 128.471 167.849L123.65 161.948L121.763 164.282C121.763 164.282 120.125 166.402 118.871 165.771C116.047 164.47 107.544 152.411 107.544 152.411L111.97 147.138L108.328 142.725L104.12 147.823L98.2984 140.226C98.2984 140.226 94.7649 144.18 94.0829 145.248C93.1267 146.728 93.7964 149.074 94.8348 150.73C95.7969 152.23 96.8549 153.666 98.0021 155.03L94.5227 159.256ZM130.169 165.995C130.169 165.995 126.267 161.721 125.283 157.114C123.934 150.988 126.71 141.477 127.491 138.423C128.981 132.825 128.514 128.367 126.296 126.505C125.746 126.071 125.115 125.75 124.439 125.561C123.764 125.373 123.058 125.32 122.362 125.406C121.666 125.492 120.995 125.715 120.386 126.062C119.777 126.41 119.243 126.875 118.815 127.43C116.32 130.401 116.689 135.061 119.749 138.13L113.355 145.746C113.355 145.746 108.326 139.67 108.641 133.941C108.661 129.734 110.175 125.671 112.912 122.475C116.432 117.941 121.492 115.053 126.088 115.701C130.56 116.322 135.754 119.822 136.526 125.106C136.991 128.977 136.809 132.899 135.988 136.71C135.245 141.08 133.916 146.741 133.512 148.328C133.163 149.676 133.772 149.973 133.772 149.973L144.451 137.251C145.364 136.262 145.958 135.021 146.157 133.69C146.157 133.69 149.54 135.103 150.171 137.916C150.42 138.939 150.425 140.007 150.184 141.032C149.943 142.057 149.464 143.011 148.785 143.816L130.169 165.995ZM155.708 135.571L148.926 127.59L156.295 118.725L163.089 126.778L155.708 135.571ZM178.911 89.9183C186.485 96.2762 182.045 105.39 181.762 106.153C180.608 108.518 179.144 110.72 177.408 112.698C174.993 115.412 171.618 117.08 167.995 117.353C164.373 117.625 160.786 116.48 157.992 114.158C148.869 106.5 146.63 95.0611 155.149 85.5916C164.027 75.7807 172.028 82.1405 173.423 83.4534L166.923 91.1969C166.337 90.705 163.339 87.9029 159.967 91.9205C155.962 96.6912 158.797 102.067 163.651 106.142C167.208 109.128 170.904 108.379 173.223 105.617C173.949 104.778 174.4 103.737 174.514 102.634C174.666 101.694 174.545 100.729 174.166 99.8557C173.786 98.9819 173.164 98.2352 172.374 97.704L178.911 89.9183ZM199.8 85.7677C194.463 92.1255 186.77 92.8774 180.618 87.7134C171.997 80.4771 169.941 68.4788 177.353 59.6491C183.011 52.9083 190.844 52.9259 196.536 57.7034C205.617 65.3262 207.001 77.1893 199.835 85.7264L199.8 85.7677ZM195.035 80.0561C198.373 76.0805 194.447 68.861 190.22 65.313C187.877 63.346 184.648 62.348 182.189 65.2771C178.641 69.5039 182.962 76.7635 186.854 80.0306C189.742 82.4547 192.938 82.6407 195.045 80.1298L195.081 80.0876L195.035 80.0561ZM211.968 69.6585L198.303 52.6241C195.732 49.3971 193.454 46.8424 191.518 44.6461L197.033 38.0761L200.622 41.8729L200.728 41.7473C200.165 39.5561 200.137 37.2616 200.647 35.0573C201.156 32.8531 202.188 30.8036 203.656 29.0818C207.134 24.9385 211.113 25.2115 213.423 26.7945C212.846 24.5805 212.81 22.2603 213.317 20.0294C213.824 17.7984 214.86 15.7219 216.337 13.9747C219.674 9.9992 224.069 9.69365 228.211 13.171C229.573 14.3962 230.854 15.7094 232.045 17.102L243.794 31.7438L237.541 39.1931L226.453 25.4632C225.682 24.431 224.806 23.4808 223.84 22.6275C222.167 21.2226 220.285 20.9985 218.809 22.7565C216.666 25.3096 217.704 30.5316 221.758 35.6459L230.896 47.0202L224.714 54.3853L213.647 40.4591C212.908 39.5207 212.092 38.645 211.208 37.841C209.534 36.4361 207.745 35.9328 206.199 37.7743C204.021 40.3687 205.128 45.9341 209.16 50.818L218.255 62.1657L211.968 69.6585Z" fill="white"/>
<path d="M83.8244 171.747C80.8585 175.535 78.9916 179.033 79.7122 185.06C80.4671 191.471 89.5217 200.143 92.2617 200.873C95.0017 201.604 100.124 202.979 107.469 194.734C116.024 185.223 109.747 175.96 109.747 175.96L103.214 183.743C103.214 183.743 105.738 186.004 102.487 190.053C97.8705 195.808 93.1495 189.705 93.1495 189.705L107.622 172.464C107.622 172.464 107.287 172.183 103.014 168.096C98.4684 163.568 89.8205 164.013 83.8253 171.749L83.8244 171.747ZM96.9915 175.526L88.919 185.228C88.919 185.228 84.6548 180.365 88.6246 175.636C92.2782 171.283 96.9915 175.526 96.9915 175.526ZM64.0487 181.113C62.826 182.655 61.6436 184.658 61.9726 186.646C62.343 188.669 64.1883 191.145 65.4412 192.625C65.748 193.025 66.173 193.453 66.6046 193.958C66.7234 193.841 66.8168 193.7 66.8789 193.546C67.1952 193.169 67.8906 192.255 67.8906 192.255L66.0487 184.931L66.7863 184.052L69.8644 189.99L73.5583 186.1L73.3118 184.61C69.9895 180.323 67.4907 177.013 67.4907 177.013C67.4907 177.013 65.2707 179.572 64.048 181.114L64.0487 181.113ZM71.2835 191.105L77.6219 193.072L76.8805 193.955L69.3464 193.408C69.3464 193.408 68.5748 194.327 68.2504 194.628C68.091 194.828 67.9122 195.013 67.7164 195.178C69.3536 197.051 71.4714 199.543 73.735 202.371C78.1298 207.843 81.9241 210.886 78.1304 215.406C76.901 216.87 75.1076 217.647 74.0612 216.769C72.1363 215.153 69.0337 212.05 69.0337 212.05L62.4619 219.801C62.4619 219.801 65.4019 222.84 68.8344 225.721C71.9313 228.32 78.7935 228.303 84.4139 221.607C88.6995 216.502 90.3315 212.094 88.6055 205.65C87.7422 202.429 83.3977 197.492 78.9456 191.834C77.6364 190.165 76.3271 188.495 75.1014 186.895L74.521 186.907L71.2835 191.105ZM123.355 107.913C123.551 107.677 123.792 107.483 124.064 107.343C124.337 107.203 124.634 107.118 124.94 107.095C125.245 107.072 125.552 107.111 125.843 107.209C126.133 107.306 126.401 107.462 126.63 107.665C127.102 108.061 127.397 108.628 127.45 109.242C127.504 109.855 127.311 110.465 126.915 110.937C126.519 111.409 125.952 111.704 125.339 111.757C124.725 111.811 124.115 111.618 123.644 111.222C123.406 111.025 123.209 110.783 123.065 110.509C122.921 110.236 122.834 109.936 122.807 109.628C122.78 109.32 122.814 109.01 122.909 108.715C123.003 108.421 123.154 108.148 123.355 107.913ZM123.647 108.158C123.49 108.355 123.373 108.58 123.303 108.822C123.234 109.064 123.213 109.317 123.242 109.567C123.271 109.817 123.349 110.059 123.473 110.278C123.596 110.498 123.762 110.691 123.96 110.846C124.153 111.018 124.378 111.151 124.622 111.236C124.866 111.321 125.125 111.357 125.383 111.341C125.641 111.326 125.894 111.26 126.126 111.146C126.359 111.033 126.567 110.874 126.738 110.68C126.895 110.484 127.012 110.258 127.082 110.016C127.152 109.774 127.172 109.52 127.143 109.27C127.114 109.02 127.035 108.778 126.911 108.558C126.788 108.339 126.621 108.146 126.423 107.991C126.029 107.654 125.519 107.483 125.001 107.514C124.483 107.545 123.998 107.776 123.647 108.158ZM125.884 110.678L125.603 111.013L123.595 109.327C123.719 109.102 123.87 108.894 124.044 108.706C124.223 108.479 124.465 108.31 124.739 108.219C124.84 108.197 124.945 108.202 125.044 108.234C125.142 108.266 125.23 108.324 125.298 108.403C125.408 108.5 125.485 108.629 125.519 108.772C125.552 108.915 125.54 109.065 125.484 109.201C125.667 109.069 125.939 109.084 126.268 109.288C126.453 109.419 126.658 109.519 126.875 109.584L126.594 109.919C126.38 109.846 126.176 109.747 125.987 109.623C125.7 109.454 125.511 109.51 125.301 109.76L125.125 109.969L125.92 110.636L125.884 110.678ZM124.754 109.73L124.965 109.479C125.176 109.227 125.304 108.906 125.052 108.695C124.885 108.554 124.612 108.54 124.296 108.917L124.085 109.168L124.754 109.73Z" fill="white"/>
<path d="M0.320984 235.991H212.438L300.504 1.83105H228.346C228.346 1.83105 217.003 2.73805 208.764 8.15205C200.525 13.5661 189.715 27.3361 189.715 27.3361L0.320984 235.991Z" fill="url(#paint0_linear)"/>
<defs>
<linearGradient id="paint0_linear" x1="137.505" y1="56.6245" x2="265.695" y2="197.051" gradientUnits="userSpaceOnUse">
<stop stop-opacity="0"/>
<stop offset="1" stop-opacity="0.078"/>
</linearGradient>
</defs>
</svg>
