<svg width="301" height="235" viewBox="0 0 301 235" fill="none" xmlns="http://www.w3.org/2000/svg">
<path d="M0.321899 234.991H212.439L300.505 0.831055H228.347C228.347 0.831055 217.004 1.73805 208.765 7.15205C200.526 12.5661 189.716 26.3361 189.716 26.3361L0.321899 234.991Z" fill="url(#paint0_linear)"/>
<path d="M166.013 234.989C167.742 233.697 169.842 232.999 172 232.999C174.157 232.999 176.257 233.697 177.986 234.989H166.013ZM103.013 234.989C104.742 233.697 106.842 232.999 109 232.999C111.157 232.999 113.258 233.697 114.986 234.989H103.013ZM40.013 234.989C41.7416 233.697 43.8416 232.999 45.9995 232.999C48.1575 232.999 50.2575 233.697 51.986 234.989H40.013ZM181.999 223.001C181.999 221.023 182.586 219.09 183.684 217.445C184.783 215.801 186.345 214.519 188.172 213.762C189.999 213.005 192.01 212.807 193.95 213.193C195.89 213.579 197.672 214.531 199.07 215.93C200.469 217.329 201.421 219.11 201.807 221.05C202.193 222.99 201.995 225.001 201.238 226.828C200.481 228.655 199.199 230.217 197.555 231.316C195.91 232.415 193.977 233.001 191.999 233.001C189.347 233.001 186.803 231.948 184.928 230.072C183.053 228.197 181.999 225.653 181.999 223.001ZM118.999 223.001C118.999 221.023 119.586 219.09 120.684 217.445C121.783 215.801 123.345 214.519 125.172 213.762C126.999 213.005 129.01 212.807 130.95 213.193C132.89 213.579 134.672 214.531 136.07 215.93C137.469 217.329 138.421 219.11 138.807 221.05C139.193 222.99 138.995 225.001 138.238 226.828C137.481 228.655 136.199 230.217 134.555 231.316C132.91 232.415 130.977 233.001 128.999 233.001C126.347 233.001 123.804 231.947 121.929 230.072C120.053 228.196 119 225.653 119 223.001H118.999ZM55.999 223.001C55.999 221.023 56.5855 219.09 57.6843 217.445C58.7832 215.801 60.3449 214.519 62.1722 213.762C63.9995 213.005 66.0101 212.807 67.9499 213.193C69.8898 213.579 71.6716 214.531 73.0701 215.93C74.4686 217.329 75.421 219.11 75.8069 221.05C76.1927 222.99 75.9947 225.001 75.2378 226.828C74.481 228.655 73.1992 230.217 71.5547 231.316C69.9102 232.415 67.9769 233.001 65.999 233.001C63.347 233.001 60.8038 231.947 58.9286 230.072C57.0535 228.196 56 225.653 56 223.001H55.999ZM161.999 185.001C161.999 183.023 162.586 181.09 163.684 179.445C164.783 177.801 166.345 176.519 168.172 175.762C169.999 175.005 172.01 174.807 173.95 175.193C175.89 175.579 177.672 176.531 179.07 177.93C180.469 179.329 181.421 181.11 181.807 183.05C182.193 184.99 181.995 187.001 181.238 188.828C180.481 190.655 179.199 192.217 177.555 193.316C175.91 194.415 173.977 195.001 171.999 195.001C170.686 195.001 169.385 194.742 168.172 194.239C166.959 193.737 165.857 193 164.928 192.071C164 191.143 163.263 190.04 162.761 188.827C162.258 187.614 162 186.313 162 185L161.999 185.001ZM98.999 185.001C98.999 183.023 99.5855 181.09 100.684 179.445C101.783 177.801 103.345 176.519 105.172 175.762C106.999 175.005 109.01 174.807 110.95 175.193C112.89 175.579 114.672 176.531 116.07 177.93C117.469 179.329 118.421 181.11 118.807 183.05C119.193 184.99 118.995 187.001 118.238 188.828C117.481 190.655 116.199 192.217 114.555 193.316C112.91 194.415 110.977 195.001 108.999 195.001C107.686 195.001 106.385 194.742 105.172 194.239C103.959 193.737 102.857 193 101.928 192.071C101 191.143 100.263 190.04 99.7609 188.827C99.2584 187.614 98.9999 186.313 99 185L98.999 185.001ZM39.113 192.253L52.552 177.447C53.556 178.321 54.3755 179.386 54.9625 180.58C55.5495 181.775 55.8921 183.074 55.9704 184.403C56.0487 185.731 55.8609 187.062 55.4182 188.317C54.9756 189.572 54.2868 190.726 53.3923 191.712C52.4979 192.697 51.4157 193.494 50.2092 194.056C49.0028 194.618 47.6963 194.933 46.3664 194.984C45.0365 195.034 43.7099 194.819 42.4644 194.35C41.2189 193.881 40.0795 193.168 39.113 192.253ZM224.999 185.001C224.999 182.349 226.053 179.805 227.928 177.93C229.803 176.055 232.347 175.001 234.999 175.001L228.408 192.526C227.335 191.588 226.476 190.431 225.888 189.132C225.301 187.834 224.998 186.425 225 185L224.999 185.001ZM181.999 165.001C181.999 163.023 182.586 161.09 183.684 159.445C184.783 157.801 186.345 156.519 188.172 155.762C189.999 155.005 192.01 154.807 193.95 155.193C195.89 155.579 197.672 156.531 199.07 157.93C200.469 159.329 201.421 161.11 201.807 163.05C202.193 164.99 201.995 167.001 201.238 168.828C200.481 170.655 199.199 172.217 197.555 173.316C195.91 174.415 193.977 175.001 191.999 175.001C190.686 175.001 189.385 174.742 188.172 174.24C186.959 173.737 185.856 173 184.928 172.072C183.999 171.143 183.262 170.041 182.76 168.827C182.257 167.614 181.999 166.313 181.999 165V165.001ZM118.999 165.001C118.999 163.023 119.586 161.09 120.684 159.445C121.783 157.801 123.345 156.519 125.172 155.762C126.999 155.005 129.01 154.807 130.95 155.193C132.89 155.579 134.672 156.531 136.07 157.93C137.469 159.329 138.421 161.11 138.807 163.05C139.193 164.99 138.995 167.001 138.238 168.828C137.481 170.655 136.199 172.217 134.555 173.316C132.91 174.415 130.977 175.001 128.999 175.001C127.686 175.001 126.385 174.742 125.172 174.239C123.959 173.737 122.857 173 121.928 172.071C121 171.143 120.263 170.04 119.761 168.827C119.258 167.614 119 166.313 119 165L118.999 165.001ZM58.185 171.241L71.457 156.62C72.6697 157.41 73.6963 158.455 74.4659 159.681C75.2355 160.907 75.7298 162.285 75.9146 163.721C76.0994 165.156 75.9704 166.615 75.5364 167.996C75.1024 169.377 74.3738 170.647 73.4009 171.719C72.428 172.791 71.234 173.638 69.9014 174.204C68.5688 174.769 67.1295 175.038 65.6827 174.993C64.2359 174.947 62.8162 174.588 61.5217 173.941C60.2272 173.293 59.0888 172.372 58.185 171.241ZM224.999 127C224.999 125.022 225.586 123.089 226.684 121.444C227.783 119.8 229.345 118.518 231.172 117.761C232.999 117.004 235.01 116.806 236.95 117.192C238.89 117.578 240.672 118.53 242.07 119.929C243.469 121.328 244.421 123.109 244.807 125.049C245.193 126.989 244.995 129 244.238 130.827C243.481 132.654 242.199 134.216 240.555 135.315C238.91 136.414 236.977 137 234.999 137C232.347 137 229.804 135.946 227.929 134.071C226.053 132.195 225 129.652 225 127H224.999ZM161.999 127C161.999 125.022 162.586 123.089 163.684 121.444C164.783 119.8 166.345 118.518 168.172 117.761C169.999 117.004 172.01 116.806 173.95 117.192C175.89 117.578 177.672 118.53 179.07 119.929C180.469 121.328 181.421 123.109 181.807 125.049C182.193 126.989 181.995 129 181.238 130.827C180.481 132.654 179.199 134.216 177.555 135.315C175.91 136.414 173.977 137 171.999 137C169.347 137 166.804 135.946 164.929 134.071C163.053 132.195 162 129.652 162 127H161.999ZM98.999 127C98.999 126.746 99.0084 126.494 99.027 126.245L107.286 117.145C109.307 116.794 111.387 117.072 113.244 117.943C115.101 118.814 116.646 120.234 117.668 122.012C118.69 123.79 119.141 125.84 118.96 127.883C118.778 129.926 117.973 131.864 116.652 133.434C115.332 135.003 113.561 136.129 111.58 136.659C109.598 137.188 107.502 137.095 105.575 136.393C103.647 135.69 101.983 134.412 100.807 132.732C99.6305 131.052 98.9994 129.05 98.999 126.999V127ZM244.999 107C244.999 104.917 245.649 102.885 246.859 101.189C248.069 99.4936 249.779 98.2181 251.749 97.541C253.72 96.864 255.852 96.8193 257.849 97.413C259.846 98.0068 261.608 99.2095 262.888 100.853L256.882 116.822C255.436 117.098 253.946 117.051 252.52 116.685C251.094 116.319 249.766 115.643 248.631 114.705C247.496 113.766 246.582 112.589 245.954 111.257C245.327 109.926 245 108.472 244.999 106.999V107ZM181.999 107C181.999 105.022 182.586 103.089 183.684 101.444C184.783 99.7999 186.345 98.5181 188.172 97.7613C189.999 97.0044 192.01 96.8064 193.95 97.1922C195.89 97.5781 197.672 98.5305 199.07 99.929C200.469 101.328 201.421 103.109 201.807 105.049C202.193 106.989 201.995 109 201.238 110.827C200.481 112.654 199.199 114.216 197.555 115.315C195.91 116.414 193.977 117 191.999 117C189.347 117 186.803 115.946 184.928 114.071C183.053 112.196 181.999 109.652 181.999 107ZM118.999 107C118.998 105.834 119.201 104.678 119.599 103.582L124.689 97.9741C126.645 97.0397 128.852 96.7664 130.977 97.1952C133.102 97.624 135.03 98.7317 136.471 100.352C137.912 101.971 138.787 104.016 138.965 106.176C139.143 108.337 138.615 110.497 137.458 112.33C136.302 114.164 134.582 115.573 132.555 116.344C130.529 117.115 128.308 117.206 126.225 116.605C124.142 116.004 122.311 114.742 121.008 113.009C119.705 111.277 119 109.168 118.999 107ZM224.999 69.0001C224.999 67.0222 225.586 65.0889 226.684 63.4444C227.783 61.7999 229.345 60.5182 231.172 59.7613C232.999 59.0044 235.01 58.8064 236.95 59.1922C238.89 59.5781 240.672 60.5305 242.07 61.929C243.469 63.3275 244.421 65.1093 244.807 67.0492C245.193 68.989 244.995 70.9996 244.238 72.8269C243.481 74.6542 242.199 76.2159 240.555 77.3148C238.91 78.4136 236.977 79.0001 234.999 79.0001C232.347 78.9998 229.804 77.9463 227.929 76.0711C226.054 74.196 225 71.6529 225 69.0011L224.999 69.0001ZM161.999 69.0001C161.999 67.0222 162.586 65.0889 163.684 63.4444C164.783 61.7999 166.345 60.5182 168.172 59.7613C169.999 59.0044 172.01 58.8064 173.95 59.1922C175.89 59.5781 177.672 60.5305 179.07 61.929C180.469 63.3275 181.421 65.1093 181.807 67.0492C182.193 68.989 181.995 70.9996 181.238 72.8269C180.481 74.6542 179.199 76.2159 177.555 77.3148C175.91 78.4136 173.977 79.0001 171.999 79.0001C169.347 78.9998 166.804 77.9463 164.929 76.0711C163.054 74.196 162 71.6529 162 69.0011L161.999 69.0001ZM244.999 49.0001C244.999 47.0223 245.586 45.0889 246.684 43.4444C247.783 41.7999 249.345 40.5182 251.172 39.7613C252.999 39.0044 255.01 38.8064 256.95 39.1922C258.89 39.5781 260.672 40.5305 262.07 41.929C263.469 43.3275 264.421 45.1094 264.807 47.0492C265.193 48.989 264.995 50.9996 264.238 52.8269C263.481 54.6542 262.199 56.2159 260.555 57.3148C258.91 58.4136 256.977 59.0001 254.999 59.0001C252.347 58.9998 249.804 57.9461 247.929 56.0708C246.053 54.1954 245 51.6521 245 49.0001H244.999ZM181.999 49.0001C181.999 47.0223 182.586 45.0889 183.684 43.4444C184.783 41.7999 186.345 40.5182 188.172 39.7613C189.999 39.0044 192.01 38.8064 193.95 39.1922C195.89 39.5781 197.672 40.5305 199.07 41.929C200.469 43.3275 201.421 45.1094 201.807 47.0492C202.193 48.989 201.995 50.9996 201.238 52.8269C200.481 54.6542 199.199 56.2159 197.555 57.3148C195.91 58.4136 193.977 59.0001 191.999 59.0001C189.347 59.0001 186.803 57.9465 184.928 56.0711C183.053 54.1958 181.999 51.6522 181.999 49.0001ZM224.999 11.0001C224.999 9.02225 225.586 7.08885 226.684 5.44436C227.783 3.79987 229.345 2.51815 231.172 1.76127C232.999 1.00439 235.01 0.806361 236.95 1.19221C238.89 1.57806 240.672 2.53047 242.07 3.929C243.469 5.32752 244.421 7.10935 244.807 9.04916C245.193 10.989 244.995 12.9996 244.238 14.8269C243.481 16.6542 242.199 18.2159 240.555 19.3148C238.91 20.4136 236.977 21.0001 234.999 21.0001C232.347 20.9998 229.804 19.9461 227.929 18.0708C226.053 16.1954 225 13.6521 225 11.0001H224.999ZM287.999 11.0001C288 9.48837 288.344 7.99662 289.005 6.6368C289.665 5.27699 290.625 4.08442 291.812 3.14863C292.999 2.21283 294.383 1.55812 295.86 1.23363C297.336 0.90914 298.867 0.923307 300.337 1.27507L293.349 19.8551C291.735 19.007 290.383 17.7337 289.44 16.173C288.498 14.6123 288 12.8235 288 11.0001H287.999Z" fill="#4D93D3"/>
<path d="M146.014 234.989C147.743 233.697 149.843 232.999 152.001 232.999C154.158 232.999 156.258 233.697 157.987 234.989H146.014ZM83.014 234.989C84.7426 233.697 86.8426 232.999 89.0005 232.999C91.1585 232.999 93.2585 233.697 94.987 234.989H83.014ZM20.014 234.989C21.7426 233.697 23.8426 232.999 26.0005 232.999C28.1585 232.999 30.2585 233.697 31.987 234.989H20.014ZM162 223.001C162 221.023 162.587 219.09 163.685 217.445C164.784 215.801 166.346 214.519 168.173 213.762C170 213.005 172.011 212.807 173.951 213.193C175.891 213.579 177.673 214.531 179.071 215.93C180.47 217.329 181.422 219.11 181.808 221.05C182.194 222.99 181.996 225.001 181.239 226.828C180.482 228.655 179.2 230.217 177.556 231.316C175.911 232.415 173.978 233.001 172 233.001C169.348 233.001 166.804 231.948 164.929 230.072C163.054 228.197 162 225.653 162 223.001ZM99 223.001C99 221.023 99.5865 219.09 100.685 217.445C101.784 215.801 103.346 214.519 105.173 213.762C107 213.005 109.011 212.807 110.951 213.193C112.891 213.579 114.673 214.531 116.071 215.93C117.47 217.329 118.422 219.11 118.808 221.05C119.194 222.99 118.996 225.001 118.239 226.828C117.482 228.655 116.2 230.217 114.556 231.316C112.911 232.415 110.978 233.001 109 233.001C106.348 233.001 103.804 231.948 101.929 230.072C100.054 228.197 99 225.653 99 223.001ZM36 223.001C36 221.023 36.5865 219.09 37.6853 217.445C38.7842 215.801 40.3459 214.519 42.1732 213.762C44.0005 213.005 46.0111 212.807 47.9509 213.193C49.8907 213.579 51.6726 214.531 53.0711 215.93C54.4696 217.329 55.422 219.11 55.8079 221.05C56.1937 222.99 55.9957 225.001 55.2388 226.828C54.482 228.655 53.2002 230.217 51.5557 231.316C49.9112 232.415 47.9779 233.001 46 233.001C43.3479 233.001 40.8043 231.948 38.929 230.072C37.0536 228.197 36 225.653 36 223.001ZM205 185.001C205 183.023 205.587 181.09 206.685 179.445C207.784 177.801 209.346 176.519 211.173 175.762C213 175.005 215.011 174.807 216.951 175.193C218.891 175.579 220.673 176.531 222.071 177.93C223.47 179.329 224.422 181.11 224.808 183.05C225.194 184.99 224.996 187.001 224.239 188.828C223.482 190.655 222.2 192.217 220.556 193.316C218.911 194.415 216.978 195.001 215 195.001C213.687 195.001 212.386 194.742 211.173 194.24C209.96 193.737 208.857 193 207.929 192.072C207 191.143 206.263 190.041 205.761 188.827C205.258 187.614 205 186.313 205 185V185.001ZM142 185.001C142 183.023 142.587 181.09 143.685 179.445C144.784 177.801 146.346 176.519 148.173 175.762C150 175.005 152.011 174.807 153.951 175.193C155.891 175.579 157.673 176.531 159.071 177.93C160.47 179.329 161.422 181.11 161.808 183.05C162.194 184.99 161.996 187.001 161.239 188.828C160.482 190.655 159.2 192.217 157.556 193.316C155.911 194.415 153.978 195.001 152 195.001C150.687 195.001 149.386 194.742 148.173 194.24C146.96 193.737 145.857 193 144.929 192.072C144 191.143 143.263 190.041 142.761 188.827C142.258 187.614 142 186.313 142 185V185.001ZM79 185.001C79 183.023 79.5865 181.09 80.6853 179.445C81.7842 177.801 83.3459 176.519 85.1732 175.762C87.0005 175.005 89.0111 174.807 90.9509 175.193C92.8908 175.579 94.6726 176.531 96.0711 177.93C97.4696 179.329 98.422 181.11 98.8079 183.05C99.1937 184.99 98.9957 187.001 98.2388 188.828C97.482 190.655 96.2002 192.217 94.5557 193.316C92.9112 194.415 90.9779 195.001 89 195.001C87.6867 195.001 86.3863 194.742 85.173 194.24C83.9597 193.737 82.8572 193 81.9286 192.072C81 191.143 80.2634 190.041 79.761 188.827C79.2585 187.614 78.9999 186.313 79 185V185.001ZM225 165.001C225 163.079 225.554 161.198 226.596 159.583C227.637 157.968 229.122 156.687 230.872 155.893C232.623 155.1 234.565 154.828 236.466 155.11C238.367 155.392 240.147 156.215 241.592 157.482L235.003 175.001C233.689 175.001 232.389 174.743 231.175 174.241C229.961 173.738 228.859 173.002 227.93 172.073C227.001 171.144 226.264 170.041 225.761 168.828C225.259 167.614 225 166.314 225 165V165.001ZM162 165.001C162 163.023 162.587 161.09 163.685 159.445C164.784 157.801 166.346 156.519 168.173 155.762C170 155.005 172.011 154.807 173.951 155.193C175.891 155.579 177.673 156.531 179.071 157.93C180.47 159.329 181.422 161.11 181.808 163.05C182.194 164.99 181.996 167.001 181.239 168.828C180.482 170.655 179.2 172.217 177.556 173.316C175.911 174.415 173.978 175.001 172 175.001C170.687 175.001 169.386 174.742 168.173 174.24C166.96 173.737 165.857 173 164.929 172.072C164 171.143 163.263 170.041 162.761 168.827C162.258 167.614 162 166.313 162 165V165.001ZM99 165.001C99 163.023 99.5865 161.09 100.685 159.445C101.784 157.801 103.346 156.519 105.173 155.762C107 155.005 109.011 154.807 110.951 155.193C112.891 155.579 114.673 156.531 116.071 157.93C117.47 159.329 118.422 161.11 118.808 163.05C119.194 164.99 118.996 167.001 118.239 168.828C117.482 170.655 116.2 172.217 114.556 173.316C112.911 174.415 110.978 175.001 109 175.001C107.687 175.001 106.386 174.742 105.173 174.24C103.96 173.737 102.857 173 101.929 172.072C101 171.143 100.263 170.041 99.761 168.827C99.2585 167.614 98.9999 166.313 99 165V165.001ZM205 127.001C205 125.023 205.587 123.09 206.685 121.445C207.784 119.801 209.346 118.519 211.173 117.762C213 117.005 215.011 116.807 216.951 117.193C218.891 117.579 220.673 118.531 222.071 119.93C223.47 121.329 224.422 123.11 224.808 125.05C225.194 126.99 224.996 129.001 224.239 130.828C223.482 132.655 222.2 134.217 220.556 135.316C218.911 136.415 216.978 137.001 215 137.001C213.687 137.001 212.386 136.742 211.173 136.24C209.96 135.737 208.857 135 207.929 134.072C207 133.143 206.263 132.041 205.761 130.827C205.258 129.614 205 128.313 205 127V127.001ZM142 127.001C142 125.023 142.587 123.09 143.685 121.445C144.784 119.801 146.346 118.519 148.173 117.762C150 117.005 152.011 116.807 153.951 117.193C155.891 117.579 157.673 118.531 159.071 119.93C160.47 121.329 161.422 123.11 161.808 125.05C162.194 126.99 161.996 129.001 161.239 130.828C160.482 132.655 159.2 134.217 157.556 135.316C155.911 136.415 153.978 137.001 152 137.001C150.687 137.001 149.386 136.742 148.173 136.24C146.96 135.737 145.857 135 144.929 134.072C144 133.143 143.263 132.041 142.761 130.827C142.258 129.614 142 128.313 142 127V127.001ZM98.976 126.301C98.992 126.532 99 126.765 99 127.001C99.001 129.607 97.9844 132.111 96.1668 133.979C94.3493 135.847 91.8743 136.931 89.269 137.001L98.976 126.301ZM225 107.001C225 105.023 225.587 103.09 226.685 101.445C227.784 99.8009 229.346 98.5191 231.173 97.7623C233 97.0054 235.011 96.8074 236.951 97.1932C238.891 97.5791 240.673 98.5315 242.071 99.93C243.47 101.329 244.422 103.11 244.808 105.05C245.194 106.99 244.996 109.001 244.239 110.828C243.482 112.655 242.2 114.217 240.556 115.316C238.911 116.415 236.978 117.001 235 117.001C233.687 117.001 232.386 116.742 231.173 116.24C229.96 115.737 228.857 115 227.929 114.072C227 113.143 226.263 112.041 225.761 110.827C225.258 109.614 225 108.313 225 107V107.001ZM162 107.001C162 105.023 162.587 103.09 163.685 101.445C164.784 99.8009 166.346 98.5191 168.173 97.7623C170 97.0054 172.011 96.8074 173.951 97.1932C175.891 97.5791 177.673 98.5315 179.071 99.93C180.47 101.329 181.422 103.11 181.808 105.05C182.194 106.99 181.996 109.001 181.239 110.828C180.482 112.655 179.2 114.217 177.556 115.316C175.911 116.415 173.978 117.001 172 117.001C170.687 117.001 169.386 116.742 168.173 116.24C166.96 115.737 165.857 115 164.929 114.072C164 113.143 163.263 112.041 162.761 110.827C162.258 109.614 162 108.313 162 107V107.001ZM107.521 116.891L118.705 104.57C119.103 106.167 119.102 107.837 118.7 109.432C118.299 111.028 117.511 112.5 116.405 113.719C115.299 114.937 113.91 115.864 112.36 116.417C110.811 116.971 109.149 117.133 107.521 116.891ZM205 69.0011C205 67.0232 205.587 65.0899 206.685 63.4454C207.784 61.8009 209.346 60.5191 211.173 59.7623C213 59.0054 215.011 58.8074 216.951 59.1932C218.891 59.5791 220.673 60.5315 222.071 61.93C223.47 63.3285 224.422 65.1103 224.808 67.0502C225.194 68.99 224.996 71.0006 224.239 72.8279C223.482 74.6552 222.2 76.2169 220.556 77.3158C218.911 78.4146 216.978 79.0011 215 79.0011C212.348 79.0011 209.804 77.9475 207.929 76.0721C206.054 74.1968 205 71.6532 205 69.0011ZM144.744 75.8811L158.144 61.1131C159.232 61.958 160.134 63.0187 160.793 64.2287C161.452 65.4386 161.854 66.7717 161.974 68.1442C162.093 69.5168 161.928 70.8992 161.488 72.2048C161.048 73.5105 160.343 74.7111 159.417 75.7314C158.491 76.7518 157.364 77.5698 156.108 78.1342C154.851 78.6985 153.491 78.9971 152.113 79.0112C150.736 79.0252 149.37 78.7544 148.102 78.2158C146.834 77.6772 145.69 76.8823 144.744 75.8811ZM268 69.0011C268 66.3489 269.054 63.8054 270.929 61.93C272.804 60.0546 275.348 59.0011 278 59.0011C278.209 59.0011 278.416 59.0074 278.621 59.0201L271.89 76.9201C270.678 75.9863 269.697 74.7866 269.023 73.4136C268.348 72.0405 267.998 70.5308 268 69.0011ZM225 49.0011C225 47.0233 225.587 45.0899 226.685 43.4454C227.784 41.8009 229.346 40.5191 231.173 39.7623C233 39.0054 235.011 38.8074 236.951 39.1932C238.891 39.5791 240.673 40.5315 242.071 41.93C243.47 43.3285 244.422 45.1104 244.808 47.0502C245.194 48.99 244.996 51.0006 244.239 52.8279C243.482 54.6552 242.2 56.2169 240.556 57.3158C238.911 58.4146 236.978 59.0011 235 59.0011C233.687 59.0011 232.386 58.7424 231.173 58.2398C229.96 57.7372 228.857 57.0005 227.929 56.0718C227 55.1431 226.263 54.0406 225.761 52.8272C225.258 51.6138 225 50.3134 225 49.0001V49.0011ZM163.864 54.8171L177.004 40.3411C178.296 41.0885 179.404 42.1155 180.247 43.3467C181.09 44.578 181.646 45.9823 181.876 47.4568C182.106 48.9312 182.003 50.4384 181.574 51.8678C181.146 53.2972 180.403 54.6125 179.4 55.7174C178.397 56.8224 177.159 57.6888 175.778 58.2533C174.397 58.8177 172.907 59.0659 171.417 58.9796C169.927 58.8932 168.476 58.4746 167.169 57.7543C165.862 57.0341 164.733 56.0305 163.864 54.8171ZM268 11.0001C268 9.02225 268.587 7.08885 269.685 5.44436C270.784 3.79987 272.346 2.51815 274.173 1.76127C276 1.00439 278.011 0.806361 279.951 1.19221C281.891 1.57806 283.673 2.53047 285.071 3.929C286.47 5.32752 287.422 7.10935 287.808 9.04916C288.194 10.989 287.996 12.9996 287.239 14.8269C286.482 16.6542 285.2 18.2159 283.556 19.3148C281.911 20.4136 279.978 21.0001 278 21.0001C275.348 21.0001 272.804 19.9465 270.929 18.0711C269.054 16.1958 268 13.6522 268 11.0001ZM205 11.0001C205 10.6567 205.017 10.3136 205.052 9.97206C206.232 8.95878 207.471 8.01709 208.764 7.15207C212.248 4.97402 216.053 3.3576 220.04 2.36207C221.554 3.24574 222.81 4.51204 223.68 6.03398C224.551 7.55591 225.006 9.27999 225 11.0333C224.994 12.7866 224.527 14.5075 223.646 16.0235C222.765 17.5394 221.501 18.7971 219.981 19.6704C218.46 20.5437 216.737 21.0019 214.984 20.9991C213.231 20.9963 211.509 20.5325 209.991 19.6543C208.474 18.7761 207.214 17.5144 206.338 15.9956C205.462 14.4768 205 12.7544 205 11.0011V11.0001Z" fill="#00488E"/>
<path d="M98 158.415H102.749V183.85C102.771 184.748 102.605 185.641 102.262 186.471C101.919 187.301 101.407 188.05 100.758 188.671C100.109 189.293 99.3378 189.772 98.4934 190.078C97.6491 190.384 96.7501 190.511 95.854 190.45H94V185.993H95.362C96.984 185.993 98.027 185.24 98.027 183.473V158.415H98ZM98 149H102.749V153.751H98V149ZM110.541 168.235C110.465 167.535 110.537 166.827 110.752 166.157C110.968 165.487 111.322 164.87 111.792 164.346C112.263 163.821 112.838 163.402 113.481 163.115C114.123 162.828 114.82 162.68 115.524 162.68C116.227 162.68 116.924 162.828 117.566 163.115C118.209 163.402 118.784 163.821 119.255 164.346C119.725 164.87 120.079 165.487 120.295 166.157C120.51 166.827 120.582 167.535 120.506 168.235H110.541ZM125.257 172.146V168.235C125.308 166.932 125.093 165.633 124.625 164.416C124.157 163.199 123.446 162.09 122.535 161.158C121.624 160.225 120.533 159.488 119.327 158.991C118.122 158.495 116.828 158.249 115.524 158.27C110.976 158.27 105.79 161.17 105.79 170.408C105.79 180.084 111.41 182.401 116.277 182.401C117.887 182.455 119.49 182.151 120.968 181.51C122.446 180.868 123.763 179.906 124.823 178.693L121.376 175.793C120.024 177.203 118.172 178.025 116.22 178.082C115.452 178.136 114.681 178.022 113.961 177.748C113.241 177.474 112.59 177.047 112.052 176.495C111.514 175.944 111.103 175.281 110.847 174.555C110.592 173.828 110.497 173.055 110.571 172.288L125.257 172.146ZM129.023 151.375H133.774V158.415H137.221V162.036H133.774V175.8C133.774 177.1 134.295 177.567 135.454 177.567H137.221V182.028H134.759C133.984 182.084 133.205 181.973 132.477 181.701C131.749 181.43 131.087 181.005 130.537 180.456C129.988 179.906 129.563 179.244 129.292 178.516C129.02 177.788 128.909 177.009 128.965 176.234V162.181H126.59V158.415H128.965L129.023 151.375ZM153.01 167.424C153.71 167.348 154.418 167.42 155.088 167.635C155.758 167.851 156.375 168.205 156.9 168.676C157.424 169.146 157.843 169.721 158.13 170.364C158.417 171.006 158.565 171.703 158.565 172.407C158.565 173.111 158.417 173.807 158.13 174.45C157.843 175.092 157.424 175.668 156.9 176.138C156.375 176.608 155.758 176.962 155.088 177.178C154.418 177.393 153.71 177.465 153.01 177.389H145.275V167.424H153.01ZM140.263 182.141H154.227C155.461 182.166 156.687 181.938 157.829 181.471C158.971 181.004 160.006 180.308 160.869 179.426C161.732 178.544 162.405 177.494 162.847 176.342C163.289 175.19 163.491 173.959 163.439 172.726C163.556 171.026 163.084 169.338 162.103 167.945C161.122 166.552 159.691 165.54 158.051 165.078C159.526 164.575 160.799 163.61 161.681 162.327C162.564 161.043 163.009 159.509 162.951 157.952C162.951 152.738 159.591 149.059 153.131 149.059H140.292V182.2L140.263 182.141ZM152.575 153.519C153.244 153.444 153.921 153.511 154.562 153.715C155.203 153.919 155.793 154.257 156.295 154.705C156.797 155.153 157.198 155.703 157.473 156.317C157.748 156.931 157.89 157.596 157.89 158.269C157.89 158.942 157.748 159.607 157.473 160.221C157.198 160.835 156.797 161.385 156.295 161.833C155.793 162.281 155.203 162.619 154.562 162.823C153.921 163.028 153.244 163.094 152.575 163.019H145.3V153.519H152.575ZM166.162 149H170.913V176.057C170.913 177.129 171.521 177.679 172.68 177.679H174.3V182.14H172.216C168.769 182.14 166.161 180.663 166.161 176.346L166.162 149ZM176.3 158.415H181.051V172.465C181 173.11 181.083 173.759 181.295 174.371C181.507 174.983 181.844 175.544 182.283 176.019C182.723 176.495 183.256 176.874 183.849 177.133C184.442 177.393 185.082 177.527 185.729 177.527C186.377 177.527 187.017 177.393 187.61 177.133C188.203 176.874 188.736 176.495 189.176 176.019C189.615 175.544 189.952 174.983 190.164 174.371C190.376 173.759 190.459 173.11 190.408 172.465V158.415H195.159V182.025H190.409V179.5C189.687 180.426 188.759 181.171 187.698 181.674C186.638 182.178 185.474 182.426 184.3 182.4C183.238 182.397 182.187 182.18 181.209 181.764C180.232 181.347 179.348 180.738 178.611 179.973C177.873 179.208 177.297 178.303 176.915 177.312C176.534 176.32 176.356 175.262 176.391 174.2L176.3 158.415ZM202.459 168.235C202.382 167.538 202.453 166.832 202.669 166.164C202.885 165.497 203.24 164.882 203.711 164.363C204.183 163.843 204.759 163.429 205.402 163.148C206.045 162.867 206.74 162.727 207.442 162.735C210.342 162.735 212.28 164.647 212.425 168.235H202.46H202.459ZM217.176 172.146V168.235C217.227 166.932 217.012 165.633 216.544 164.416C216.076 163.199 215.365 162.09 214.454 161.157C213.543 160.225 212.451 159.488 211.245 158.991C210.04 158.495 208.746 158.249 207.442 158.27C202.894 158.27 197.708 161.17 197.708 170.408C197.708 180.084 203.328 182.401 208.166 182.401C209.781 182.437 211.383 182.112 212.856 181.451C214.33 180.789 215.637 179.807 216.683 178.577L213.236 175.677C211.884 177.087 210.032 177.909 208.08 177.966C207.314 178.016 206.546 177.899 205.83 177.623C205.114 177.347 204.466 176.918 203.932 176.367C203.397 175.816 202.989 175.156 202.735 174.431C202.481 173.707 202.387 172.936 202.46 172.172L217.176 172.146Z" fill="white"/>
<path fill-rule="evenodd" clip-rule="evenodd" d="M218.909 158.125C219.465 158.133 219.995 158.359 220.386 158.755C220.776 159.151 220.995 159.684 220.995 160.24C220.995 160.793 220.775 161.324 220.384 161.715C219.993 162.106 219.462 162.326 218.909 162.326C218.352 162.326 217.818 162.105 217.424 161.711C217.03 161.317 216.809 160.783 216.809 160.226C216.809 159.669 217.03 159.135 217.424 158.741C217.818 158.347 218.352 158.126 218.909 158.126V158.125ZM220.56 160.24C220.554 159.915 220.453 159.599 220.268 159.331C220.083 159.063 219.823 158.856 219.521 158.736C219.219 158.615 218.888 158.586 218.569 158.653C218.251 158.72 217.96 158.88 217.732 159.112C217.504 159.344 217.349 159.638 217.288 159.957C217.227 160.277 217.261 160.607 217.387 160.907C217.512 161.207 217.724 161.464 217.995 161.644C218.266 161.824 218.584 161.92 218.909 161.92C219.131 161.928 219.351 161.891 219.557 161.809C219.764 161.727 219.95 161.603 220.106 161.445C220.261 161.287 220.382 161.098 220.46 160.89C220.538 160.683 220.572 160.461 220.56 160.24Z" fill="white"/>
<path d="M219.263 160.413C219.352 160.41 219.439 160.388 219.519 160.349C219.6 160.31 219.671 160.254 219.728 160.186C219.785 160.118 219.827 160.038 219.852 159.953C219.877 159.867 219.883 159.777 219.871 159.689C219.871 159.197 219.581 158.965 219.031 158.965H218.103V161.311H218.509V160.325H218.741L219.441 161.31H219.933L219.263 160.413ZM218.539 160.036V159.336H218.916C219.206 159.336 219.466 159.336 219.466 159.684C219.466 160.032 219.147 160.032 218.829 160.032L218.539 160.036Z" fill="white"/>
<defs>
<linearGradient id="paint0_linear" x1="116.193" y1="112.291" x2="199.312" y2="234.35" gradientUnits="userSpaceOnUse">
<stop stop-color="#00245B"/>
<stop offset="1" stop-color="#00235C"/>
</linearGradient>
</defs>
</svg>
