<svg width="301" height="235" viewBox="0 0 301 235" fill="none" xmlns="http://www.w3.org/2000/svg">
<path d="M0.322021 234.991H212.439L300.505 0.831055H228.347C228.347 0.831055 217.004 1.73805 208.765 7.15205C200.526 12.5661 189.716 26.3361 189.716 26.3361L0.322021 234.991Z" fill="#E4322A"/>
<path d="M155.293 187.034C149.913 187.082 144.585 185.969 139.674 183.773C134.763 181.576 130.382 178.347 126.832 174.305C110.819 156.247 117.89 134.522 117.89 134.522C121.579 112.114 145.045 98.5855 145.045 98.5855C155.342 92.6801 167.543 91.044 179.032 94.0279C203.661 100.446 207.251 124.951 207.251 124.951C210.262 138.359 206.65 149.755 202.196 157.877C203.199 158.055 204.23 157.998 205.207 157.711C217.28 155.702 220.63 149.413 220.63 149.413C221.474 148.305 221.645 149.442 221.645 149.442C224.247 160.439 218.929 165.784 218.929 165.784C213.095 173.699 199.897 173.538 199.897 173.538C197.05 173.198 194.23 172.661 191.457 171.932C184.813 179.669 175.777 183.446 168.403 185.285C164.117 186.382 159.716 186.969 155.293 187.034ZM146.538 109.105C146.538 109.105 130.778 120.673 126.041 141.114C126.041 141.114 120.337 159.571 132.46 174.413C132.46 174.413 152.959 196.82 184.476 169.982C184.476 169.982 184.57 169.879 184.743 169.684C181.88 168.58 179.183 167.085 176.73 165.241C165.307 158.317 158.876 146.996 158.876 146.996C158.299 145.85 158.062 146.625 158.062 146.625C156.701 147.539 156.444 155.216 156.444 155.216C156.453 167.993 161.755 169.077 161.755 169.077L144.508 172.845C140.309 162.976 141.089 151.58 141.089 151.58C140.886 150.193 144.954 125.336 144.954 125.336L141.584 126.321C140.697 126.255 141.097 125.91 141.097 125.91C145.191 117.222 155.592 113.494 155.592 113.494C162.532 111.188 160.991 116.025 160.991 116.025L159.393 129.35C158.904 131.482 159.932 130.364 159.932 130.364L173.386 116.027C177.905 111.263 182.542 103.327 182.542 103.327C182.712 102.278 184.137 102.787 184.137 102.787C188.892 107.022 188.803 116.274 188.803 116.274C189.293 124.573 179.723 132.607 179.723 132.607C176.889 136.332 165.312 141.515 165.312 141.515C163.988 141.992 165.108 142.433 165.108 142.433L190.188 154.275C191.999 155.052 193.609 155.668 195.038 156.158C198.713 150.489 202.085 143.955 202.712 138.358C202.712 138.358 208.993 110.561 185.486 100.79C185.486 100.79 177.353 96.7961 165.055 99.8635C158.319 101.653 152.018 104.798 146.538 109.105Z" fill="white"/>
<path d="M28.5701 234.989C46.5331 217.048 71.9371 198.052 101.47 194.212C133.608 190.032 146.451 196.999 157.734 203.967C167.071 209.732 175.341 215.499 192.593 214.948C202.447 214.618 212.223 213.081 221.702 210.372L212.444 234.99L28.5701 234.989ZM189.715 26.335C189.715 26.335 200.521 12.566 208.765 7.15096C217.009 1.73596 228.347 0.829956 228.347 0.829956H249.729C245.21 16.39 235.78 36.441 216.158 49.382C197.608 61.616 166.935 72.098 141.558 79.382L189.715 26.335Z" fill="white"/>
<path d="M189.715 26.3351C189.715 26.3351 200.524 12.5651 208.764 7.15205C217.004 1.73905 228.346 0.831055 228.346 0.831055H240.446C235.271 15.0441 225.946 31.3141 209.16 42.3831C194.95 51.7541 173.626 60.0981 153.021 66.7651L189.715 26.3351Z" fill="#0F1213"/>
<path d="M39.321 234.989C56.106 220.516 77.421 207.339 101.464 204.212C133.602 200.032 146.445 206.999 157.728 213.967C167.065 219.732 175.335 225.499 192.587 224.948C200.997 224.671 209.354 223.508 217.521 221.481L212.441 234.989H39.321Z" fill="#066E4E"/>
<path d="M0.321014 234.991H212.438L300.504 0.831055H228.346C228.346 0.831055 217.003 1.73805 208.764 7.15205C200.525 12.5661 189.715 26.3361 189.715 26.3361L0.321014 234.991Z" fill="url(#paint0_linear)"/>
<defs>
<linearGradient id="paint0_linear" x1="137.505" y1="55.6245" x2="265.695" y2="196.051" gradientUnits="userSpaceOnUse">
<stop stop-opacity="0"/>
<stop offset="1" stop-opacity="0.078"/>
</linearGradient>
</defs>
</svg>
