<svg width="301" height="235" viewBox="0 0 301 235" fill="none" xmlns="http://www.w3.org/2000/svg">
<path d="M0.322021 234.991H212.439L300.505 0.831055H228.347C228.347 0.831055 217.004 1.73805 208.765 7.15205C200.526 12.5661 189.716 26.3361 189.716 26.3361L0.322021 234.991Z" fill="url(#paint0_linear)"/>
<path d="M157.776 97.4451H161.888C161.922 98.8451 161.918 100.235 161.91 101.632C163.284 101.632 164.662 101.632 166.037 101.625C166.048 102.996 166.048 104.366 166.007 105.737C164.644 105.737 163.277 105.744 161.914 105.737C161.914 107.085 161.914 108.437 161.922 109.789C160.566 109.875 159.211 109.856 157.855 109.845C157.847 108.474 157.847 107.1 157.84 105.726C156.462 105.745 155.088 105.737 153.713 105.741C153.691 104.374 153.694 103.004 153.691 101.641C155.077 101.641 156.462 101.634 157.844 101.641C157.809 100.239 157.933 98.8341 157.776 97.4451Z" fill="#00A1E4"/>
<path d="M133.962 109.02C138.104 108.02 142.65 111.469 142.562 115.779C142.622 117.548 142.023 119.277 140.881 120.629C139.739 121.982 138.135 122.862 136.381 123.098C134.627 123.335 132.847 122.912 131.387 121.91C129.928 120.909 128.892 119.401 128.481 117.679C128.265 116.75 128.236 115.788 128.395 114.848C128.555 113.907 128.9 113.008 129.41 112.203C129.92 111.397 130.585 110.701 131.366 110.154C132.148 109.608 133.03 109.222 133.962 109.02Z" fill="#00A1E4"/>
<path d="M150.428 109.012C154.566 108.031 159.128 111.484 159.011 115.794C159.07 117.596 158.445 119.354 157.261 120.715C156.077 122.075 154.422 122.936 152.629 123.126C150.836 123.316 149.037 122.821 147.594 121.739C146.152 120.657 145.172 119.069 144.852 117.294C144.533 115.461 144.935 113.575 145.974 112.032C147.014 110.488 148.609 109.406 150.428 109.012Z" fill="#00A1E4"/>
<path d="M166.902 109.02C168.59 108.678 170.344 108.956 171.844 109.803C173.343 110.651 174.487 112.01 175.065 113.632C175.643 115.254 175.617 117.031 174.991 118.635C174.365 120.24 173.182 121.565 171.658 122.367C170.265 123.1 168.668 123.353 167.117 123.086C165.565 122.818 164.145 122.047 163.077 120.89C162.009 119.733 161.353 118.256 161.21 116.688C161.067 115.12 161.446 113.549 162.288 112.218C162.798 111.398 163.47 110.691 164.264 110.141C165.057 109.591 165.955 109.21 166.902 109.02Z" fill="#00A1E4"/>
<path d="M183.402 109.013C184.888 108.716 186.43 108.899 187.806 109.535C189.181 110.172 190.319 111.229 191.055 112.554C191.791 113.879 192.087 115.403 191.9 116.907C191.713 118.411 191.053 119.817 190.015 120.921C188.978 122.026 187.616 122.773 186.127 123.053C184.637 123.333 183.097 123.133 181.729 122.482C180.36 121.83 179.234 120.761 178.513 119.428C177.792 118.095 177.514 116.567 177.717 115.065C177.921 113.592 178.578 112.218 179.596 111.134C180.615 110.05 181.944 109.309 183.402 109.013Z" fill="#00A1E4"/>
<path d="M135.284 133.538C135.184 130.677 135.228 127.808 135.258 124.947C151.724 124.996 168.19 124.958 184.658 124.966C184.662 127.816 184.662 130.663 184.658 133.508C168.198 133.526 151.739 133.47 135.284 133.538Z" fill="#00A1E4"/>
<path d="M94.6641 140.792C98.8207 140.792 102.979 140.792 107.138 140.792C107.145 144.769 107.131 148.75 107.138 152.731C111.261 148.784 115.291 144.743 119.414 140.796C123.605 140.785 127.795 140.785 131.985 140.796C127.154 145.705 122.192 150.488 117.399 155.431C123.439 161.288 129.274 167.362 135.367 173.155C135.419 162.37 135.374 151.581 135.389 140.792C139.64 140.785 143.89 140.785 148.14 140.792C148.14 148.975 148.14 157.157 148.14 165.339C154.929 165.32 161.715 165.361 168.501 165.317C168.595 168.092 168.516 170.871 168.546 173.646C152.046 173.646 135.546 173.644 119.046 173.639C115.146 169.688 111.189 165.79 107.268 161.858C107.212 165.794 107.275 169.726 107.234 173.658C103.044 173.628 98.8531 173.658 94.6631 173.639L94.6641 140.792Z" fill="#00A1E4"/>
<path d="M172.044 140.792C178.89 140.77 185.735 140.837 192.581 140.758C194.742 146.634 196.633 152.61 198.674 158.531C198.878 158.29 199.044 158.021 199.168 157.731C201.119 152.08 203.115 146.444 205.085 140.797C211.968 140.79 218.851 140.79 225.734 140.797V173.624C221.521 173.676 217.304 173.643 213.091 173.643C213.083 166.086 213.128 158.525 213.069 150.964C212.481 151.294 212.421 152.039 212.169 152.597C209.724 159.619 207.215 166.618 204.769 173.639C200.807 173.639 196.841 173.691 192.883 173.613C190.4 166.434 187.831 159.289 185.326 152.121C185.289 151.934 185.209 151.757 185.094 151.604C184.978 151.452 184.829 151.328 184.659 151.241C184.648 158.708 184.659 166.179 184.659 173.65C180.454 173.65 176.248 173.65 172.043 173.65C172.048 162.699 172.049 151.747 172.044 140.792Z" fill="#00A1E4"/>
<defs>
<linearGradient id="paint0_linear" x1="116.193" y1="112.291" x2="199.312" y2="234.35" gradientUnits="userSpaceOnUse">
<stop stop-color="#FDFDFD"/>
<stop offset="1" stop-color="#E7E8E6"/>
</linearGradient>
</defs>
</svg>
