<svg width="301" height="235" viewBox="0 0 301 235" fill="none" xmlns="http://www.w3.org/2000/svg">
<path d="M0.322021 234.991H212.439L300.505 0.831055H228.347C228.347 0.831055 217.004 1.73805 208.765 7.15205C200.526 12.5661 189.716 26.3361 189.716 26.3361L0.322021 234.991Z" fill="url(#paint0_linear)"/>
<path d="M173.503 204.728C207.483 204.728 235.03 177.181 235.03 143.201C235.03 109.221 207.483 81.6741 173.503 81.6741C139.523 81.6741 111.976 109.221 111.976 143.201C111.976 177.181 139.523 204.728 173.503 204.728Z" fill="#F1AE00"/>
<path d="M173.503 196.83C203.122 196.83 227.133 172.819 227.133 143.2C227.133 113.581 203.122 89.5701 173.503 89.5701C143.884 89.5701 119.873 113.581 119.873 143.2C119.873 172.819 143.884 196.83 173.503 196.83Z" fill="#384271"/>
<path d="M173.503 191.567C200.215 191.567 221.869 169.913 221.869 143.201C221.869 116.489 200.215 94.8351 173.503 94.8351C146.791 94.8351 125.137 116.489 125.137 143.201C125.137 169.913 146.791 191.567 173.503 191.567Z" fill="#F1AF00"/>
<path d="M129.065 132.667H138.909L159.829 139.706L152.59 142.327H171.278L182.878 130.093H216.987L215.495 136.872L207.844 147.11H187.895L179.059 151.821L182.878 156.137L196.396 159.38H207.844L204.417 167.304L187.895 163.862L174.616 157.71L129.065 132.667Z" fill="#303C6E"/>
<defs>
<linearGradient id="paint0_linear" x1="129.701" y1="96.8367" x2="221.855" y2="210.566" gradientUnits="userSpaceOnUse">
<stop stop-color="#545D87"/>
<stop offset="1" stop-color="#0B164E"/>
</linearGradient>
</defs>
</svg>
