<svg width="301" height="235" viewBox="0 0 301 235" fill="none" xmlns="http://www.w3.org/2000/svg">
<path d="M0.32196 234.991H212.439L300.505 0.831055H228.347C228.347 0.831055 217.004 1.73805 208.765 7.15205C200.526 12.5661 189.716 26.3361 189.716 26.3361L0.32196 234.991Z" fill="url(#paint0_linear)"/>
<path d="M80.842 234.989C85.948 228.93 91.4657 223.231 97.356 217.931C125.156 192.257 154.673 188.096 164.927 176.194C175.181 164.292 172.821 157.1 164.927 153.281C157.033 149.462 149.781 157.681 149.781 157.681C152.318 158.441 154.963 158.779 157.61 158.681C161.889 158.493 164.927 158.681 164.927 158.681C164.927 158.681 164.187 162.713 155.196 162.733C146.205 162.753 136.091 154.578 136.091 154.578L119.104 140.693L103.887 139.061C103.887 139.061 98.135 138.923 97.357 135.478C96.579 132.033 109.682 126.624 109.682 126.624C114.643 124.287 119.795 122.378 125.082 120.919C132.794 118.93 139.188 116.876 139.188 116.876C139.188 116.876 139.566 122.006 134.901 124.033C131.711 125.372 128.43 126.482 125.082 127.354C126.831 129.802 128.975 131.941 131.427 133.684C135.176 136.213 141.251 137.153 141.251 137.153C141.251 137.153 153.4 120.279 168.028 108.033C182.656 95.787 202.691 87.121 206.736 85.949C210.781 84.777 261.263 67.296 273.36 52.724C278.336 46.73 284.15 38.419 289.27 30.712L276.75 63.995C275.51 66.128 274.364 67.944 273.358 69.327C264.342 81.715 247.249 94.588 231.74 103.781C216.231 112.974 207.321 120.331 198.485 132.537C191.154 142.429 187.104 154.368 186.903 166.679C186.664 176.745 188.638 190.761 188.638 190.761C188.638 190.761 175.523 188.387 146.919 199.112C118.315 209.837 98.678 225.901 93.707 230.695C92.592 231.77 90.987 233.285 89.167 234.989H80.842Z" fill="white"/>
<defs>
<linearGradient id="paint0_linear" x1="116.193" y1="112.291" x2="185.912" y2="277.947" gradientUnits="userSpaceOnUse">
<stop stop-color="#FF0000"/>
<stop offset="1" stop-color="#C00000"/>
</linearGradient>
</defs>
</svg>
