<svg width="301" height="235" viewBox="0 0 301 235" fill="none" xmlns="http://www.w3.org/2000/svg">
<path d="M0.32196 234.991H212.439L300.505 0.831055H228.347C228.347 0.831055 217.004 1.73805 208.765 7.15205C200.526 12.5661 189.716 26.3361 189.716 26.3361L0.32196 234.991Z" fill="url(#paint0_linear)"/>
<path d="M83.774 223.931C83.774 222.217 88.202 220.359 94.487 220.359C114.201 220.359 160.054 221.217 188.767 222.218C189.623 222.931 190.481 224.646 192.337 225.646C163.625 226.503 114.201 227.503 94.487 227.503C89.059 227.502 83.774 225.646 83.774 223.931ZM65.774 204.076C65.774 201.362 72.06 198.648 79.201 198.648C98.915 198.648 138.483 199.504 172.623 200.504C174.481 203.218 176.194 204.932 177.052 207.647C142.052 209.504 99.772 209.504 79.201 209.504C72.061 209.504 65.775 206.79 65.775 204.076H65.774ZM54.061 186.076C54.061 182.505 60.347 180.648 69.346 180.648C76.487 179.79 83.63 179.79 92.63 179.79C95.4706 183.493 98.7846 186.806 102.487 189.647C102.487 189.647 104.343 191.504 107.915 189.647C112.342 187.789 116.056 185.218 120.485 179.79C133.054 179.79 145.626 180.648 158.196 180.648C159.052 182.505 161.767 185.076 163.624 189.648C127.624 190.505 89.058 191.505 69.346 191.505C61.204 191.505 54.063 188.792 54.063 186.077L54.061 186.076ZM65.631 171.649C63.2041 171.66 60.7813 171.445 58.394 171.008L69.221 159.079H96.203C90.773 167.221 89.06 170.793 88.06 171.65L65.631 171.649ZM74.931 152.793L86.221 140.359C93.694 140.474 101.984 140.687 110.634 141.081C107.063 145.509 104.348 149.223 101.634 152.795L74.931 152.793ZM103.241 121.604C111.241 121.731 119.749 121.925 128.487 122.223C124.526 125.436 120.933 129.077 117.772 133.08C108.779 133.08 100.259 133.229 92.531 133.403L103.241 121.604ZM200.482 123.223C227.337 124.937 248.05 125.937 248.05 126.794C248.05 127.651 231.908 128.651 209.481 129.508C205.05 126.796 202.336 125.081 200.48 123.225L200.482 123.223ZM120.317 102.792C129.389 102.919 138.866 103.102 148.343 103.368C144.772 106.938 141.201 109.652 137.63 113.224C128.344 113.273 119.276 113.305 110.755 113.324L120.317 102.792ZM221.906 105.231C234.477 106.089 242.62 107.087 242.62 107.087C242.62 107.945 232.763 108.945 218.336 109.801C221.05 107.94 221.906 106.084 221.906 105.231ZM137.742 83.594C149.307 83.868 161.19 84.183 172.482 84.514C170.625 85.37 168.91 87.228 167.054 88.085C165.339 89.942 163.625 90.942 162.625 92.655C151.46 92.955 139.952 93.1551 128.947 93.2831L137.742 83.594ZM208.621 86.513C221.905 87.228 231.905 87.2281 231.905 88.2281C231.905 89.084 218.478 90.084 199.622 90.942C202.312 88.9065 205.367 87.4032 208.621 86.513ZM153.784 65.921C169.953 66.297 185.64 66.8921 196.766 67.6581C194.908 68.5151 193.195 70.372 191.338 71.2281C179.555 71.528 163.845 71.887 148.089 72.196L153.784 65.921ZM166.148 52.3C177.463 52.735 186.048 53.327 186.048 54.087C186.048 54.922 175.718 55.554 162.787 55.998L166.148 52.3Z" fill="#757F8B"/>
<path d="M184.338 216.503C177.196 208.361 162.769 185.934 160.054 181.503C156.483 177.074 154.626 175.217 150.198 177.074C145.852 178.534 141.341 179.445 136.77 179.788C135.056 179.788 134.056 178.931 136.77 177.931C140.341 177.073 152.911 170.789 158.34 158.218C165.481 144.79 159.197 124.935 159.197 124.935C156.483 134.791 151.055 139.362 151.055 139.362C152.912 129.506 151.055 121.362 146.627 115.078L143.056 125.792C143.056 125.792 141.198 125.792 137.627 129.363C135.351 131.735 133.513 134.492 132.199 137.505C135.77 138.362 139.341 135.647 139.341 135.647C134.913 153.647 127.627 168.931 122.341 176.93C116.912 185.072 113.341 187.644 107.913 189.5C103.485 191.357 102.485 189.5 102.485 189.5L92.628 179.643H93.486C95.343 179.643 99.771 176.073 99.771 174.215C100.629 172.358 100.629 171.501 99.771 171.501C98.913 171.501 98.914 172.358 94.343 175.072C90.772 177.786 88.057 175.929 87.201 174.214C86.344 173.357 87.201 171.5 88.058 170.643C88.915 169.786 109.628 130.218 166.195 87.936C239.903 33.083 287.472 18.798 290.185 16.941C291.694 16.241 293.675 15.454 294.901 15.719L292.687 21.605C264.021 34.19 230.862 54.831 212.907 67.372C189.621 79.085 168.053 95.231 167.053 95.231C165.196 96.089 166.196 97.945 167.911 97.089C202.304 74.489 241.341 57.937 284.077 44.518L281.253 52.026C239.165 68.757 207.764 83.8 185.766 98.946C185.766 98.946 183.052 100.803 183.052 102.517C183.052 103.374 184.909 103.374 184.909 103.374C197.479 103.374 215.478 104.232 223.478 105.232C223.478 105.232 222.621 109.66 214.478 112.374C208.193 115.088 202.765 114.232 197.478 114.232C196.621 114.232 194.764 115.089 196.621 116.946C195.078 118.63 206.211 136.985 247.476 141.836L243.929 151.268C216.401 152.191 191.335 153.978 191.335 156.514C191.335 158.188 213.987 159.747 240.119 161.399L236.067 172.173C211.751 173.127 191.193 174.732 191.193 176.227C191.193 177.722 209.96 179.296 233.029 180.253L228.67 191.845C209.748 192.809 195.765 194.354 195.765 195.797C195.765 197.382 208.137 198.238 225.784 199.52L220.947 212.382C210.895 213.149 204.047 214.082 204.047 215.51C204.047 216.31 209.466 217.224 218.817 218.038L217.497 221.547C212.416 225.933 207.013 229.932 201.333 233.509C201.333 233.509 192.338 225.359 184.338 216.503Z" fill="#5C0D34"/>
<defs>
<linearGradient id="paint0_linear" x1="116.193" y1="112.291" x2="199.312" y2="234.35" gradientUnits="userSpaceOnUse">
<stop stop-color="#FDFDFD"/>
<stop offset="1" stop-color="#E7E8E6"/>
</linearGradient>
</defs>
</svg>
