<svg width="301" height="235" viewBox="0 0 301 235" fill="none" xmlns="http://www.w3.org/2000/svg">
<path d="M0.32196 234.991H212.439L300.505 0.831055H228.347C228.347 0.831055 217.004 1.73805 208.765 7.15205C200.526 12.5661 189.716 26.3361 189.716 26.3361L0.32196 234.991Z" fill="url(#paint0_linear)"/>
<path d="M214.653 203.679L200.52 189.415L193.847 183.235L179.733 175.561L161.745 166.042L151.777 157.609L143.326 150.618L137.678 142.618L135.495 136.998L132.72 132.98L139.794 124.468V119.414H135.494L132.72 114.668V106.514L135.495 104.448H141.438L144.998 105.733L146.45 109.368L145.799 115.607L150.189 110.68L153.312 104.444L155.583 97.2441L157.814 93.3071L161.746 91.1311L167.069 89.7981L172.941 89.3341H188.141L199.461 89.7981L211.871 88.0801L216.982 85.1681L222.153 80.8681C221.504 84.1049 220.174 87.1665 218.25 89.8494C216.326 92.5322 213.853 94.7748 210.996 96.4281C204.692 100.031 198.118 103.141 191.334 105.728L175.042 106.995C175.042 106.995 165.715 107.536 160.267 112.945C154.819 118.354 153.312 126.093 153.312 126.093L152.69 139.118C152.69 139.118 152.962 142.835 154.054 143.818C155.146 144.801 158.654 144.332 160.267 145.291C161.88 146.25 177.543 163.079 177.543 163.079C177.543 163.079 182.418 167.409 185.031 168.224C187.644 169.039 187.254 167.07 193.079 172.157C198.904 177.244 210.996 193.337 210.996 193.337L215.886 202.513V203.679H214.653ZM205.84 175.355C205.84 173.079 204.127 157.946 204.127 154.055C204.127 150.164 206.383 107.406 206.383 107.406C206.383 107.406 206.998 103.075 210.9 103.406C214.802 103.737 214.531 111.368 214.531 111.368C214.531 111.368 211.211 138.724 210.11 147.91C209.009 157.096 210.11 183.293 210.11 183.293L208.622 183.983C208.622 183.983 205.84 177.63 205.84 175.355ZM196.453 167.768C196.453 167.768 192.968 156.11 192.641 149.448C192.314 142.786 193.141 115.74 193.141 115.74L193.964 110.262C193.964 110.262 196.35 107.338 198.059 107.549C199.768 107.76 200.799 111.107 200.799 111.107C200.799 111.107 198.362 137.477 198.059 147.03C197.983 153.966 198.418 160.897 199.359 167.769L198.059 169.717L196.453 167.768ZM182.553 147.123C182.201 141.768 182.073 112.774 182.073 112.774C182.073 112.774 181.682 110.945 184.68 110.829C187.678 110.713 188.354 117.92 188.354 117.92L187.361 141.297C186.813 144.264 186.569 147.28 186.633 150.297C186.865 152.973 187.256 155.633 187.803 158.262C187.803 158.262 187.794 159.562 186.633 159.562C185.472 159.562 182.906 152.474 182.554 147.119L182.553 147.123ZM170.65 135.731C170.65 135.731 169.767 128.131 169.767 124.301C169.862 121.192 170.156 118.092 170.65 115.021C170.65 115.021 171.61 112.597 173.526 112.597C175.442 112.597 176.052 116.468 176.052 116.468C176.052 116.468 175.394 119.421 175.359 128.794C175.395 135.098 175.801 141.395 176.576 147.651L175.359 148.735C173.695 148.735 170.65 135.731 170.65 135.731Z" fill="#E5B100"/>
<defs>
<linearGradient id="paint0_linear" x1="116.193" y1="112.291" x2="199.312" y2="234.35" gradientUnits="userSpaceOnUse">
<stop stop-color="#002365"/>
<stop offset="1" stop-color="#00063E"/>
</linearGradient>
</defs>
</svg>
