<svg width="301" height="235" viewBox="0 0 301 235" fill="none" xmlns="http://www.w3.org/2000/svg">
<path d="M0.322021 234.991H212.439L300.505 0.831055H228.347C228.347 0.831055 217.004 1.73805 208.765 7.15205C200.526 12.5661 189.716 26.3361 189.716 26.3361L0.322021 234.991Z" fill="url(#paint0_linear)"/>
<path d="M119.201 207.398C117.336 207.398 114.889 207.098 113.824 205.658C111.946 203.121 109.761 199.833 109.669 199.694L92.469 172.11H80.342L96.5901 154.062H126.753C125.624 153.26 124.661 152.246 123.918 151.077C123.068 149.788 122.413 148.38 121.973 146.899C121.37 144.833 121.079 142.689 121.109 140.537C121.131 138.167 121.523 135.815 122.27 133.566C122.906 131.642 123.747 129.793 124.78 128.05C125.806 126.276 127.026 124.621 128.418 123.116L193.037 50.9351L202.237 65.5641V72.2471L206.96 73.2411L214.66 86.0411V93.9991H219.444L229.314 110.413L188.962 154.062C188.919 154.121 184.652 159.995 184.652 164.362C184.652 165.62 186.721 170.643 196.576 187.424C202.384 197.313 208.252 206.776 208.499 207.174H122.153C121.176 207.322 120.189 207.397 119.201 207.398ZM101.82 164.213L119.646 193.047C120.559 194.331 121.714 195.424 123.046 196.266C124.012 196.752 125.08 196.997 126.161 196.981C126.423 196.983 126.685 196.969 126.945 196.937H136.945L117.055 167.574C116.508 166.518 115.672 165.639 114.645 165.04C113.385 164.497 112.027 164.216 110.655 164.213H101.828H101.82Z" fill="#C2A767"/>
<path d="M206.414 68.639L148.533 131.02C148.533 131.02 143.953 136.878 143.953 143.053C143.953 149.228 148.533 155.719 148.533 155.719L169.52 194.095" stroke="#4B5166" stroke-width="5"/>
<path d="M125.918 194.095H186.286L168.944 165.815C168.944 165.815 164.599 160.074 165.26 154.153C165.921 148.232 171.588 142.132 171.588 142.132L220.449 88.0651" stroke="#4B5166" stroke-width="5"/>
<path d="M145.798 185.639L118.129 145.171" stroke="#4B5166" stroke-width="5"/>
<defs>
<linearGradient id="paint0_linear" x1="91.2775" y1="162.401" x2="190.804" y2="245.415" gradientUnits="userSpaceOnUse">
<stop stop-color="#535971"/>
<stop offset="1" stop-color="#2A2D39"/>
</linearGradient>
</defs>
</svg>
