<svg width="301" height="235" viewBox="0 0 301 235" fill="none" xmlns="http://www.w3.org/2000/svg">
<path d="M0.32196 234.991H212.439L300.505 0.830994H228.347C228.347 0.830994 217.004 1.73799 208.765 7.15199C200.526 12.566 189.716 26.336 189.716 26.336L0.32196 234.991Z" fill="url(#paint0_linear)"/>
<path d="M0.320984 234.989L189.715 26.334C189.715 26.334 200.524 12.565 208.764 7.14998C217.004 1.73498 228.346 0.828979 228.346 0.828979H238.597L27.761 234.989H0.320984Z" fill="#FCA700"/>
<path d="M38.821 234.989L249.655 0.831055H300.504L248.679 138.637L161.921 234.989H38.821Z" fill="#EA1928"/>
<path d="M172.98 234.989L240.748 159.725L212.443 234.989H172.98Z" fill="#1D4893"/>
<defs>
<linearGradient id="paint0_linear" x1="116.193" y1="112.291" x2="199.312" y2="234.35" gradientUnits="userSpaceOnUse">
<stop stop-color="#F5F5F5"/>
<stop offset="1" stop-color="#DBDBDB"/>
</linearGradient>
</defs>
</svg>
