<svg width="301" height="235" viewBox="0 0 301 235" fill="none" xmlns="http://www.w3.org/2000/svg">
<path d="M0.322021 234.991H212.439L300.505 0.831055H228.347C228.347 0.831055 217.004 1.73805 208.765 7.15205C200.526 12.5661 189.716 26.3361 189.716 26.3361L0.322021 234.991Z" fill="#FFE200"/>
<path d="M214.638 41.2911L219.584 35.1808L211.753 25.5152L221.197 13.8494L229.019 23.5258L235.257 15.8202L241.623 23.686L235.391 31.3846L245.322 43.6508C247.556 46.4031 248.405 46.1318 250.944 42.9951C252.099 41.5685 252.994 40.3548 254.197 38.7568L260.207 46.1796C258.174 49.4622 255.931 52.6092 253.49 55.6008C247.346 63.1913 243.26 64.4253 237.932 57.8392L225.96 43.0427L221.011 49.1554L214.638 41.2911Z" fill="#231F20"/>
<path d="M201.82 57.1256L211.258 45.4659L235.941 75.9336L226.503 87.5925L201.82 57.1256Z" fill="#231F20"/>
<path d="M193.163 46.4424L202.603 34.7819L208.434 41.9761L198.992 53.6396L193.163 46.4424Z" fill="#231F20"/>
<path d="M176.815 88.0141L201.497 118.486L210.682 107.14L186 76.6671L176.815 88.0141Z" fill="#231F20"/>
<path d="M195.537 62.1753C191.323 67.3812 189.742 79.82 197.108 89.3995L198.711 91.6261L198.87 91.4303C196.247 86.5659 197.487 80.6951 202.01 75.1077C203.273 73.5711 204.693 72.1707 206.246 70.9294L197.436 60.0463C196.77 60.7341 196.104 61.4774 195.538 62.1759" fill="#231F20"/>
<path d="M163.491 104.473L172.926 92.8178L197.611 123.283L188.172 134.942L163.491 104.473Z" fill="#231F20"/>
<path d="M154.833 93.7919L164.273 82.1307L170.105 89.3241L160.664 100.987L154.833 93.7919Z" fill="#231F20"/>
<path d="M162.708 151.548C167.03 146.208 167.202 140.594 163.105 135.541C159.008 130.488 154.461 130.697 150.144 136.029C145.736 141.475 145.878 147.366 149.706 152.092C153.534 156.819 158.3 156.992 162.708 151.547L162.708 151.548ZM127.878 148.466L137.05 137.137L140.328 141.18L140.416 141.071C140.021 135.206 141.905 129.415 145.675 124.904C154.224 114.344 164.612 113.427 173.174 123.997C180.323 132.825 180.936 146.344 172.078 157.286C167.893 162.456 163.279 164.671 159.854 164.409L159.766 164.517L170.92 178.295L161.485 189.95L127.878 148.466Z" fill="#231F20"/>
<path d="M121.924 197.772C122.337 198.253 122.885 198.599 123.497 198.766C124.109 198.934 124.757 198.914 125.358 198.711C126.705 198.283 128.268 197.023 130.316 194.493C132.408 191.909 134.224 188.654 132.447 186.458C131.127 184.828 129.824 185.534 127.238 188.055L117.772 197.161C111.568 203.133 106.761 204.128 102.572 198.951C95.8767 190.694 99.3954 181.176 108.433 170.011C114.846 162.089 124.129 153.54 131.678 161.536L121.083 174.624C120.615 174.102 119.976 173.765 119.281 173.674C118.585 173.583 117.881 173.745 117.295 174.13C115.76 175.019 114.422 176.212 113.364 177.635C110.648 180.991 109.685 183.756 111.369 185.838C112.142 186.79 113.45 186.865 116.129 184.234L125.187 175.291C132.416 168.165 137.668 166.734 142.497 172.69C148.323 179.886 145.62 189.963 135.602 202.338C128.921 210.591 118.66 220.249 110.97 211.302L121.924 197.772Z" fill="#231F20"/>
<path d="M0.320984 234.991H212.438L300.504 0.831055H228.346C228.346 0.831055 217.003 1.73805 208.764 7.15205C200.525 12.5661 189.715 26.3361 189.715 26.3361L0.320984 234.991Z" fill="url(#paint0_linear)"/>
<defs>
<linearGradient id="paint0_linear" x1="137.505" y1="55.6245" x2="265.695" y2="196.051" gradientUnits="userSpaceOnUse">
<stop stop-opacity="0"/>
<stop offset="1" stop-opacity="0.078"/>
</linearGradient>
</defs>
</svg>
