<svg width="301" height="235" viewBox="0 0 301 235" fill="none" xmlns="http://www.w3.org/2000/svg">
<path d="M0.322021 234.991H212.439L300.505 0.831055H228.347C228.347 0.831055 217.004 1.73805 208.765 7.15205C200.526 12.5661 189.716 26.3361 189.716 26.3361L0.322021 234.991Z" fill="#C70A0C"/>
<path d="M154.621 234.989C133.626 234.654 113.461 226.739 97.8438 212.704C82.2268 198.668 72.2118 179.459 69.646 158.619L158.221 61.031C180.902 61.6113 202.459 71.0289 218.296 87.2758C234.133 103.523 242.996 125.314 242.996 148.002C242.996 150.135 242.92 152.25 242.768 154.346L225.447 200.411C217.485 210.978 207.213 219.586 195.417 225.579C183.621 231.571 170.612 234.79 157.382 234.989H154.621Z" fill="white"/>
<path d="M143.83 221.784C125.986 218.787 109.829 209.433 98.3459 195.45C86.8623 181.467 80.8277 163.8 81.357 145.714L146.835 73.577C147.354 73.5104 147.875 73.4504 148.396 73.397C163.205 71.8561 178.137 74.7525 191.296 81.718C155.335 93.918 135.996 112.456 134.658 131.456C134 143.184 139.451 151.667 146.614 158.583L95.759 155.031C94.32 154.931 93.87 156.604 95.611 157.108L216.901 191.881C210.728 200.386 202.837 207.501 193.74 212.763C184.643 218.026 174.542 221.32 164.091 222.431C161.51 222.7 158.916 222.833 156.321 222.831C152.135 222.831 147.957 222.481 143.83 221.784ZM177.195 149.653C170.547 124.658 178.135 98.466 196.289 84.587C213.072 95.2116 224.95 112.064 229.315 131.442C233.68 150.819 230.173 171.137 219.566 187.931C200.235 182.552 183.239 172.362 177.194 149.652L177.195 149.653Z" fill="#C70A0C"/>
</svg>
