<svg width="301" height="235" viewBox="0 0 301 235" fill="none" xmlns="http://www.w3.org/2000/svg">
<path d="M0.321899 234.991H212.439L300.505 0.830994H228.347C228.347 0.830994 217.004 1.73799 208.765 7.15199C200.526 12.566 189.716 26.336 189.716 26.336L0.321899 234.991Z" fill="url(#paint0_linear)"/>
<path d="M201.363 234.989C200.799 227.548 198.378 206.725 188.406 190.325C176.043 169.991 157.621 144.99 147.254 136.331C138.821 129.293 119.913 115.576 113.14 110.695L113.531 110.265C123.619 115.101 157.631 132.188 171.231 148.93C187.286 168.696 194.905 177.616 202.231 193.7C209.557 209.784 212.975 216.2 212.975 216.2C212.975 216.2 212.26 228.368 210.829 232.251C210.448 233.219 209.95 234.137 209.347 234.984L201.363 234.989ZM176.205 234.989C175.186 220.174 171.196 205.716 164.472 192.476C150.95 165.376 146.747 156.313 133.561 141.861C124.682 132.129 114.461 121.48 108.726 115.561L110.188 113.95C120.069 121.685 150.4 146.036 159.068 160.13C169.468 177.047 180.709 190.356 187.982 216.375C190.423 225.106 191.755 231.004 192.449 234.989H176.205ZM143.495 234.989C142.916 226.796 140.125 194.848 130.609 172.033C122.432 152.433 109.54 131.043 103.463 121.359L104.632 120.071C111.926 128.271 128.216 147.328 134.285 160.371C141.724 176.357 158.043 213.817 159.226 234.99L143.495 234.989ZM109.255 234.989C108.847 222.621 107.377 187.462 103.443 169.989C100.09 155.094 96.76 139.044 95.043 130.642L97.896 127.499C102.945 140.181 117.112 177.083 119.121 196.831C120.729 212.66 121.64 227.004 122.076 234.987L109.255 234.989ZM71.634 234.989L78.685 148.657L84.317 142.457V210.441C84.317 210.441 83.817 224.887 82.729 234.994L71.634 234.989ZM30.334 234.989C31.897 227.131 35.393 210.553 38.685 201.889C40.512 197.08 42.901 191.077 45.075 185.689L53.265 176.666L44.556 210.246C44.556 210.246 40.427 223.502 39.091 234.989H30.334ZM167.678 137.613C149.919 124.991 123.851 110.747 116.627 106.862L117.327 106.093C123.177 107.043 141.905 111.311 167.681 129.293C199.036 151.169 208.174 170.421 208.174 170.421L206.818 187.266C206.818 187.266 188.462 152.392 167.672 137.614L167.678 137.613ZM172.208 126.227C154.571 116.79 153.337 114.711 138.879 109.618C129.186 106.203 123.069 104.077 120.091 103.046L120.591 102.494C127.241 103.184 148.234 105.86 160.624 113.135C175.491 121.865 185.698 128.209 185.698 128.209L193.744 141.609V145.531C193.744 145.531 189.839 135.664 172.202 126.231L172.208 126.227ZM149.308 104.16C141.448 102.294 127.758 99.849 123.648 99.126L126.537 95.943C130.919 96.151 140.776 96.833 147.751 98.916C153.189 100.53 158.531 102.45 163.751 104.668L172.885 114.798C172.885 114.798 158.63 106.376 149.303 104.161L149.308 104.16ZM136.921 93.466C133.356 93.339 130.667 93.339 128.864 93.366L133.475 88.286L136.921 87.635L146.664 94.876C146.664 94.876 144.091 93.721 136.921 93.466Z" fill="#E68E3C"/>
<path d="M205.808 234.989C206.611 233.176 207.283 231.307 207.819 229.398C211.226 221.635 211.702 209.659 211.702 209.568C212.654 212.267 213.107 215.116 213.038 217.977C213.038 223.192 213.138 224.695 211.686 230.428C211.252 231.974 210.738 233.496 210.145 234.988L205.808 234.989ZM197.36 234.989C199.793 230.499 201.974 225.877 203.893 221.145C208.306 210.672 209.522 187.732 209.515 187.586C209.515 187.586 211.603 192.496 211.756 195.786C211.909 199.076 212.335 211.41 207.589 222.672C205.901 226.842 203.989 230.972 201.889 234.989H197.36ZM174.722 234.989C181.061 229.722 194.192 217.297 200.841 200.045C209.654 177.178 196.153 146.545 196.016 146.312L199.473 151.299C200.073 152.331 214.073 176.843 204.573 201.484C198.625 216.916 188.036 228.457 180.863 234.989H174.722ZM14.998 218.82L17.814 215.72C23.6507 218.727 29.731 221.236 35.99 223.22C51.959 228.346 78.328 233.32 113.272 227.91C183.813 216.99 189.972 185.01 193.272 167.824C197.104 147.904 177.691 119.101 177.505 118.842L181.747 122.5C182.547 123.611 201.361 146.955 197.2 168.58C194.917 180.454 191.256 193.006 180.042 204.352C166.48 218.072 144.842 227.071 113.885 231.862C103.708 233.463 93.4231 234.279 83.121 234.304C49.156 234.305 26.239 224.888 14.998 218.82ZM36.76 194.845L39.751 191.545C48.995 194.245 68.794 199.377 84.398 198.884C107.47 198.146 125.343 196.811 145.286 186.313C164.196 176.358 175.612 166.022 178.003 142.65C180.22 120.989 147.437 93.919 147.149 93.705C147.149 93.705 148.404 92.979 153.793 97.14C159.182 101.301 161.493 101.882 168.706 110.352C178.552 121.921 183.02 132.924 181.981 143.057C179.408 168.214 167.262 179.265 147.149 189.852C126.492 200.728 107.374 202.152 84.526 202.882C83.757 202.906 82.9781 202.918 82.193 202.918C65.101 202.923 44.79 197.295 36.76 194.845ZM61.076 168.057L64.254 164.557C77.345 166.957 99.69 169.588 117.808 164.222C146.596 155.695 155 148.207 158.686 127.811C162.354 107.504 133.938 90.783 133.65 90.617L133.514 90.531L132.247 89.652L134.959 86.665L135.73 87.199C141.123 90.4946 146.102 94.4224 150.563 98.899C160.192 108.646 164.363 118.89 162.622 128.522C158.685 150.322 148.888 159.188 118.945 168.058C110.456 170.404 101.676 171.532 92.869 171.407C82.1884 171.314 71.5415 170.192 61.076 168.057ZM89.65 136.577C102.49 136.069 112.192 133.907 119.201 130.006C125.091 126.727 131.513 122.286 133.15 111.024C133.649 108.204 133.492 105.308 132.693 102.558C131.893 99.8086 130.472 97.2797 128.539 95.167C127.23 96.1144 125.944 97.054 124.679 97.986L130.541 91.531C132.591 93.398 138.783 100.098 137.109 111.603C135.049 125.764 126.009 130.803 121.146 133.503C112.875 138.103 101.346 140.459 85.929 140.679L89.65 136.577Z" fill="white"/>
<defs>
<linearGradient id="paint0_linear" x1="116.193" y1="112.291" x2="199.312" y2="234.35" gradientUnits="userSpaceOnUse">
<stop stop-color="#002B8A"/>
<stop offset="1" stop-color="#00277A"/>
</linearGradient>
</defs>
</svg>
