<svg width="301" height="235" viewBox="0 0 301 235" fill="none" xmlns="http://www.w3.org/2000/svg">
<path d="M0.322021 234.991H212.439L300.505 0.831055H228.347C228.347 0.831055 217.004 1.73805 208.765 7.15205C200.526 12.5661 189.716 26.3361 189.716 26.3361L0.322021 234.991Z" fill="#F4F4F4"/>
<path d="M209.193 234.993C207.824 233.476 206.972 231.564 206.76 229.532C206.548 227.5 206.986 225.452 208.012 223.686C209.038 221.919 210.599 220.523 212.469 219.7C214.339 218.877 216.422 218.669 218.418 219.106L212.443 234.993H209.193ZM131.238 234.993C131.842 234.284 132.593 233.714 133.439 233.323C134.286 232.933 135.206 232.73 136.138 232.73C137.07 232.73 137.991 232.933 138.837 233.323C139.683 233.714 140.434 234.284 141.038 234.993H131.238ZM102.338 234.993C101.622 234.231 101.145 233.276 100.965 232.246C100.785 231.216 100.91 230.156 101.326 229.196C101.741 228.236 102.428 227.419 103.302 226.845C104.176 226.271 105.198 225.965 106.244 225.965C107.29 225.965 108.313 226.271 109.186 226.845C110.06 227.419 110.747 228.236 111.162 229.196C111.578 230.156 111.703 231.216 111.523 232.246C111.343 233.276 110.866 234.231 110.15 234.993H102.338ZM178.382 226.873C177.792 225.157 177.762 223.298 178.297 221.564C178.832 219.83 179.904 218.31 181.358 217.225C182.813 216.139 184.574 215.544 186.389 215.525C188.203 215.505 189.977 216.062 191.455 217.116C192.932 218.17 194.036 219.666 194.608 221.389C195.18 223.111 195.19 224.97 194.637 226.699C194.084 228.427 192.996 229.935 191.53 231.005C190.065 232.075 188.297 232.652 186.482 232.652C184.697 232.652 182.957 232.095 181.504 231.058C180.051 230.021 178.959 228.557 178.378 226.869L178.382 226.873ZM72.3301 228.282C72.0349 227.424 72.02 226.494 72.2874 225.627C72.5549 224.76 73.0909 224 73.8181 223.457C74.5454 222.914 75.4263 222.616 76.3338 222.606C77.2412 222.596 78.1284 222.875 78.8672 223.402C79.6061 223.929 80.1585 224.677 80.4447 225.538C80.7309 226.399 80.7361 227.329 80.4597 228.194C80.1832 229.058 79.6393 229.812 78.9064 230.348C78.1736 230.883 77.2896 231.172 76.3821 231.172C75.4887 231.173 74.6175 230.894 73.8902 230.375C73.163 229.856 72.6161 229.123 72.3261 228.278L72.3301 228.282ZM149.5 218.699C148.984 217.198 148.958 215.571 149.425 214.054C149.893 212.537 150.831 211.207 152.103 210.258C153.376 209.308 154.917 208.787 156.504 208.769C158.092 208.752 159.644 209.24 160.937 210.162C162.229 211.084 163.196 212.392 163.696 213.899C164.197 215.406 164.206 217.032 163.723 218.545C163.239 220.057 162.287 221.376 161.005 222.313C159.723 223.249 158.177 223.754 156.589 223.755C155.027 223.755 153.503 223.268 152.231 222.36C150.96 221.453 150.003 220.171 149.495 218.693L149.5 218.699ZM43.4441 220.103C43.2229 219.46 43.2118 218.763 43.4123 218.112C43.6129 217.462 44.0148 216.893 44.56 216.486C45.1053 216.079 45.7657 215.856 46.446 215.848C47.1263 215.841 47.7914 216.05 48.3453 216.445C48.8992 216.84 49.3133 217.401 49.5278 218.046C49.7423 218.692 49.7463 219.389 49.539 220.037C49.3317 220.685 48.924 221.251 48.3746 221.652C47.8251 222.053 47.1625 222.27 46.4821 222.27C45.8132 222.27 45.161 222.061 44.6164 221.673C44.0718 221.284 43.662 220.735 43.4441 220.103ZM120.644 213.903C120.201 212.616 120.179 211.222 120.58 209.922C120.981 208.621 121.785 207.482 122.875 206.668C123.966 205.854 125.286 205.407 126.647 205.392C128.008 205.378 129.338 205.795 130.446 206.586C131.554 207.376 132.382 208.498 132.811 209.789C133.24 211.08 133.248 212.475 132.833 213.771C132.419 215.067 131.603 216.198 130.504 217C129.405 217.803 128.08 218.236 126.719 218.236C125.382 218.236 124.079 217.818 122.99 217.042C121.902 216.266 121.082 215.17 120.646 213.906L120.644 213.903ZM16.2671 217.417L19.6601 213.678C19.9218 214.166 20.0261 214.722 19.9587 215.271C19.8912 215.821 19.6554 216.335 19.2835 216.745C18.9117 217.155 18.422 217.44 17.8819 217.56C17.3418 217.68 16.7777 217.63 16.2671 217.417ZM197.812 204.317C197.148 202.386 197.114 200.295 197.715 198.344C198.317 196.393 199.522 194.683 201.158 193.462C202.794 192.24 204.776 191.57 206.817 191.548C208.859 191.525 210.855 192.152 212.517 193.337C214.179 194.523 215.422 196.205 216.066 198.143C216.71 200.08 216.722 202.172 216.1 204.117C215.478 206.061 214.255 207.758 212.606 208.962C210.957 210.167 208.969 210.816 206.927 210.817C204.921 210.817 202.966 210.191 201.333 209.027C199.699 207.862 198.47 206.218 197.815 204.322L197.812 204.317ZM91.7611 205.726C91.3922 204.653 91.3735 203.491 91.7078 202.407C92.0421 201.324 92.712 200.374 93.6209 199.695C94.5299 199.017 95.6309 198.645 96.7651 198.632C97.8993 198.62 99.0081 198.968 99.9315 199.627C100.855 200.286 101.545 201.221 101.903 202.297C102.261 203.373 102.267 204.536 101.922 205.616C101.576 206.696 100.896 207.639 99.9802 208.308C99.0642 208.977 97.9594 209.338 96.8251 209.338C95.7109 209.338 94.6245 208.99 93.7171 208.343C92.8098 207.697 92.1267 206.783 91.7631 205.73L91.7611 205.726ZM168.961 199.526C168.371 197.81 168.342 195.951 168.877 194.217C169.411 192.484 170.483 190.965 171.937 189.879C173.392 188.794 175.153 188.199 176.967 188.179C178.782 188.16 180.555 188.717 182.032 189.771C183.509 190.825 184.613 192.321 185.185 194.043C185.757 195.765 185.767 197.624 185.214 199.352C184.661 201.08 183.574 202.588 182.108 203.658C180.643 204.728 178.876 205.304 177.061 205.305C175.279 205.304 173.542 204.748 172.091 203.713C170.64 202.679 169.548 201.217 168.966 199.533L168.961 199.526ZM62.9081 200.934C62.6129 200.076 62.598 199.146 62.8654 198.279C63.1329 197.412 63.6689 196.652 64.3961 196.109C65.1234 195.566 66.0043 195.268 66.9117 195.258C67.8192 195.248 68.7064 195.527 69.4452 196.054C70.1841 196.581 70.7365 197.329 71.0227 198.19C71.3089 199.051 71.3141 199.981 71.0377 200.846C70.7612 201.71 70.2173 202.464 69.4844 203C68.7516 203.535 67.8676 203.824 66.9601 203.824C66.0696 203.824 65.2013 203.546 64.476 203.029C63.7508 202.512 63.2044 201.783 62.9131 200.941L62.9081 200.934ZM140.078 191.351C139.562 189.85 139.536 188.223 140.004 186.706C140.472 185.19 141.41 183.86 142.682 182.911C143.954 181.961 145.495 181.441 147.082 181.423C148.67 181.406 150.221 181.894 151.514 182.816C152.806 183.738 153.772 185.046 154.273 186.553C154.773 188.059 154.782 189.686 154.299 191.198C153.815 192.71 152.864 194.029 151.582 194.965C150.3 195.901 148.754 196.406 147.166 196.407C145.607 196.406 144.087 195.919 142.818 195.014C141.548 194.109 140.593 192.831 140.083 191.358L140.078 191.351ZM36.6941 194.905L40.2081 191.034C40.3158 191.534 40.3028 192.052 40.1703 192.545C40.0377 193.039 39.7893 193.494 39.4458 193.872C39.1022 194.251 38.6734 194.542 38.1948 194.722C37.7163 194.901 37.2018 194.964 36.6941 194.905ZM217.28 185.153C216.484 182.833 216.507 180.31 217.347 178.005C218.186 175.7 219.791 173.753 221.893 172.489C223.994 171.224 226.466 170.719 228.896 171.057C231.325 171.395 233.565 172.556 235.242 174.346L228.482 192.321C226.08 192.565 223.667 191.989 221.633 190.688C219.6 189.387 218.067 187.436 217.282 185.153H217.28ZM111.228 186.562C110.785 185.275 110.763 183.881 111.164 182.581C111.565 181.28 112.369 180.141 113.459 179.327C114.55 178.513 115.87 178.066 117.231 178.051C118.592 178.037 119.922 178.454 121.03 179.245C122.138 180.035 122.966 181.157 123.395 182.448C123.824 183.739 123.832 185.134 123.417 186.43C123.003 187.726 122.187 188.857 121.088 189.659C119.989 190.462 118.664 190.895 117.303 190.895C115.967 190.894 114.665 190.477 113.577 189.702C112.489 188.926 111.67 187.831 111.233 186.569L111.228 186.562ZM188.398 176.978C187.734 175.048 187.701 172.957 188.302 171.006C188.904 169.056 190.109 167.347 191.745 166.126C193.381 164.905 195.362 164.235 197.403 164.213C199.444 164.19 201.439 164.817 203.101 166.003C204.763 167.188 206.005 168.87 206.649 170.807C207.293 172.744 207.304 174.836 206.682 176.78C206.061 178.724 204.837 180.42 203.189 181.624C201.54 182.828 199.552 183.477 197.511 183.478C195.507 183.477 193.552 182.851 191.92 181.687C190.288 180.523 189.06 178.88 188.405 176.985L188.398 176.978ZM82.3511 178.393C81.9826 177.321 81.9642 176.16 82.2984 175.076C82.6327 173.993 83.3023 173.044 84.2108 172.366C85.1193 171.688 86.2196 171.316 87.3531 171.304C88.4866 171.292 89.5947 171.64 90.5175 172.299C91.4403 172.957 92.1302 173.891 92.4877 174.967C92.8451 176.043 92.8516 177.204 92.5062 178.284C92.1609 179.364 91.4815 180.306 90.5661 180.974C89.6508 181.643 88.5466 182.003 87.4131 182.004C86.2985 182.004 85.2118 181.656 84.3044 181.008C83.3971 180.361 82.7142 179.447 82.3511 178.393ZM159.551 172.193C158.961 170.477 158.931 168.618 159.466 166.884C160.001 165.15 161.073 163.63 162.527 162.545C163.982 161.459 165.743 160.864 167.558 160.844C169.372 160.825 171.146 161.382 172.623 162.436C174.101 163.49 175.205 164.986 175.777 166.709C176.349 168.431 176.359 170.29 175.806 172.019C175.253 173.747 174.165 175.255 172.699 176.325C171.234 177.395 169.466 177.972 167.651 177.972C165.868 177.971 164.129 177.414 162.678 176.378C161.226 175.342 160.134 173.879 159.553 172.193H159.551ZM54.5381 175.255L60.2951 168.913C60.7374 169.284 61.1004 169.74 61.3621 170.254C61.6238 170.769 61.779 171.331 61.8183 171.906C61.8576 172.482 61.7802 173.06 61.5907 173.605C61.4012 174.15 61.1036 174.651 60.7157 175.079C60.3278 175.506 59.8576 175.851 59.3333 176.092C58.8089 176.333 58.2413 176.466 57.6644 176.482C57.0875 176.499 56.5132 176.399 55.976 176.188C55.4388 175.977 54.9497 175.66 54.5381 175.255ZM130.669 164.018C130.153 162.517 130.127 160.89 130.596 159.374C131.064 157.857 132.001 156.528 133.274 155.579C134.546 154.629 136.087 154.108 137.674 154.091C139.261 154.074 140.813 154.562 142.105 155.484C143.398 156.406 144.364 157.714 144.864 159.221C145.365 160.727 145.374 162.353 144.89 163.865C144.407 165.377 143.455 166.697 142.173 167.633C140.892 168.569 139.345 169.074 137.758 169.075C136.198 169.075 134.676 168.587 133.406 167.681C132.135 166.775 131.179 165.495 130.67 164.02L130.669 164.018ZM236.721 162.61C236.218 161.147 236.008 159.599 236.103 158.054C236.198 156.509 236.596 154.999 237.275 153.608C237.954 152.218 238.9 150.974 240.059 149.95C241.219 148.925 242.569 148.138 244.032 147.635C244.493 147.476 244.963 147.346 245.44 147.245L238.44 165.855C237.702 164.87 237.122 163.776 236.723 162.612L236.721 162.61ZM207.871 157.821C207.134 155.677 207.098 153.355 207.766 151.188C208.435 149.022 209.774 147.124 211.591 145.769C213.408 144.413 215.608 143.669 217.875 143.645C220.142 143.62 222.358 144.316 224.204 145.633C226.049 146.949 227.429 148.818 228.144 150.969C228.859 153.12 228.873 155.443 228.182 157.602C227.492 159.762 226.134 161.646 224.303 162.983C222.473 164.321 220.265 165.042 217.998 165.044C215.769 165.044 213.595 164.348 211.78 163.053C209.965 161.759 208.599 159.931 207.872 157.823L207.871 157.821ZM101.819 159.23C101.376 157.943 101.354 156.549 101.755 155.249C102.156 153.948 102.96 152.809 104.05 151.995C105.141 151.181 106.461 150.734 107.822 150.719C109.183 150.705 110.513 151.122 111.621 151.913C112.729 152.703 113.557 153.825 113.986 155.116C114.415 156.407 114.423 157.802 114.008 159.098C113.594 160.394 112.778 161.525 111.679 162.327C110.58 163.13 109.255 163.563 107.894 163.563C106.557 163.562 105.253 163.145 104.165 162.369C103.076 161.592 102.256 160.496 101.82 159.232L101.819 159.23ZM178.989 149.646C178.325 147.716 178.291 145.624 178.893 143.673C179.494 141.723 180.7 140.013 182.336 138.792C183.971 137.571 185.953 136.901 187.994 136.879C190.035 136.856 192.031 137.483 193.693 138.668C195.355 139.854 196.598 141.536 197.241 143.474C197.885 145.411 197.897 147.502 197.275 149.447C196.653 151.391 195.43 153.088 193.781 154.292C192.133 155.496 190.145 156.145 188.103 156.146C186.097 156.146 184.14 155.52 182.507 154.355C180.873 153.19 179.643 151.545 178.989 149.648V149.646ZM74.4501 153.32L81.6501 145.386C82.6702 146.349 83.272 147.674 83.3262 149.075C83.3803 150.477 82.8826 151.844 81.9399 152.883C80.9972 153.922 79.6847 154.549 78.2843 154.631C76.8839 154.713 75.5072 154.242 74.4501 153.32ZM150.139 144.857C149.549 143.141 149.519 141.282 150.053 139.548C150.588 137.813 151.66 136.294 153.114 135.208C154.568 134.123 156.33 133.527 158.145 133.507C159.959 133.488 161.733 134.045 163.211 135.099C164.688 136.153 165.792 137.649 166.365 139.371C166.937 141.093 166.947 142.953 166.394 144.681C165.841 146.41 164.753 147.918 163.287 148.988C161.822 150.058 160.054 150.635 158.239 150.635C156.456 150.634 154.717 150.078 153.266 149.042C151.814 148.007 150.721 146.545 150.14 144.859L150.139 144.857ZM227.31 135.273C226.499 132.914 226.459 130.358 227.194 127.975C227.93 125.591 229.403 123.503 231.402 122.011C233.401 120.519 235.823 119.7 238.317 119.674C240.812 119.647 243.25 120.413 245.281 121.862C247.311 123.31 248.83 125.367 249.616 127.734C250.403 130.101 250.417 132.657 249.657 135.033C248.897 137.409 247.402 139.482 245.388 140.953C243.373 142.424 240.944 143.218 238.449 143.219C235.997 143.219 233.605 142.453 231.609 141.029C229.612 139.605 228.109 137.594 227.31 135.275V135.273ZM121.257 136.682C120.741 135.181 120.715 133.554 121.183 132.037C121.651 130.52 122.589 129.191 123.861 128.241C125.134 127.291 126.675 126.77 128.262 126.753C129.85 126.736 131.402 127.224 132.695 128.146C133.987 129.068 134.953 130.377 135.454 131.883C135.954 133.39 135.964 135.017 135.48 136.529C134.996 138.041 134.044 139.361 132.762 140.297C131.48 141.233 129.934 141.738 128.346 141.739C126.785 141.739 125.264 141.252 123.993 140.345C122.722 139.439 121.766 138.159 121.257 136.684V136.682ZM198.457 130.482C197.72 128.338 197.684 126.015 198.352 123.849C199.021 121.683 200.36 119.785 202.177 118.429C203.994 117.074 206.195 116.33 208.462 116.306C210.728 116.281 212.944 116.978 214.79 118.294C216.636 119.611 218.015 121.479 218.73 123.63C219.445 125.782 219.459 128.105 218.768 130.264C218.078 132.423 216.719 134.307 214.889 135.645C213.058 136.982 210.85 137.704 208.583 137.705C206.354 137.704 204.182 137.008 202.367 135.714C200.553 134.421 199.187 132.593 198.46 130.486L198.457 130.482ZM92.9051 132.993L101.123 123.94C102.048 124.356 102.862 124.986 103.497 125.777C104.132 126.567 104.571 127.498 104.778 128.491C104.985 129.484 104.954 130.512 104.687 131.49C104.421 132.469 103.926 133.371 103.244 134.122C102.563 134.873 101.713 135.452 100.764 135.812C99.8157 136.172 98.7955 136.302 97.7871 136.192C96.7787 136.082 95.8106 135.734 94.9621 135.178C94.1136 134.622 93.4087 133.874 92.9051 132.993ZM169.578 122.311C168.914 120.381 168.88 118.289 169.482 116.338C170.083 114.388 171.289 112.678 172.925 111.457C174.56 110.236 176.542 109.566 178.583 109.544C180.624 109.521 182.62 110.148 184.282 111.333C185.944 112.519 187.187 114.201 187.83 116.139C188.474 118.076 188.486 120.167 187.864 122.112C187.242 124.056 186.019 125.753 184.37 126.957C182.722 128.161 180.733 128.81 178.692 128.811C176.685 128.811 174.728 128.185 173.094 127.02C171.46 125.855 170.23 124.208 169.576 122.311H169.578ZM247.129 117.126C246.319 114.764 246.158 112.228 246.664 109.783C247.169 107.338 248.322 105.074 250.002 103.227C251.682 101.38 253.827 100.018 256.213 99.2844C258.6 98.5502 261.139 98.4707 263.567 99.054L253.837 124.926C250.683 123.283 248.281 120.49 247.128 117.126H247.129ZM140.729 117.526C140.139 115.81 140.109 113.952 140.644 112.218C141.179 110.485 142.251 108.966 143.705 107.88C145.158 106.795 146.919 106.2 148.734 106.18C150.548 106.161 152.321 106.718 153.798 107.772C155.275 108.825 156.379 110.321 156.951 112.042C157.523 113.764 157.533 115.623 156.981 117.351C156.428 119.079 155.341 120.586 153.875 121.656C152.41 122.726 150.643 123.303 148.829 123.304C147.045 123.304 145.306 122.746 143.853 121.71C142.401 120.674 141.309 119.21 140.728 117.523L140.729 117.526ZM217.899 107.942C217.088 105.583 217.047 103.027 217.783 100.643C218.518 98.2592 219.992 96.1706 221.991 94.6784C223.99 93.1862 226.412 92.3676 228.906 92.3407C231.401 92.3137 233.84 93.0799 235.871 94.5286C237.902 95.9772 239.42 98.0336 240.207 100.401C240.993 102.768 241.008 105.325 240.248 107.701C239.488 110.077 237.993 112.15 235.978 113.622C233.964 115.093 231.534 115.887 229.039 115.888C226.585 115.888 224.193 115.122 222.195 113.697C220.198 112.272 218.695 110.259 217.897 107.939L217.899 107.942ZM112.743 111.142L122.55 100.342C123.543 100.888 124.4 101.651 125.056 102.576C125.712 103.5 126.149 104.561 126.336 105.679C126.523 106.797 126.454 107.943 126.134 109.03C125.815 110.117 125.253 111.118 124.491 111.957C123.729 112.796 122.787 113.452 121.735 113.874C120.684 114.297 119.55 114.476 118.419 114.397C117.289 114.319 116.191 113.985 115.208 113.421C114.224 112.857 113.382 112.078 112.743 111.142ZM189.048 103.155C188.311 101.011 188.275 98.6885 188.943 96.5224C189.612 94.3563 190.951 92.4584 192.768 91.1026C194.585 89.7468 196.785 89.003 199.052 88.9786C201.319 88.9542 203.535 89.6504 205.381 90.9667C207.226 92.2831 208.606 94.1516 209.321 96.3029C210.036 98.4541 210.05 100.777 209.359 102.936C208.669 105.096 207.311 106.98 205.48 108.317C203.65 109.655 201.442 110.376 199.175 110.378C196.945 110.378 194.77 109.681 192.954 108.385C191.138 107.09 189.773 105.259 189.047 103.15L189.048 103.155ZM160.165 94.979C159.501 93.0488 159.468 90.9576 160.069 89.0071C160.671 87.0566 161.876 85.3476 163.512 84.1266C165.148 82.9055 167.129 82.2357 169.17 82.2136C171.211 82.1915 173.206 82.8182 174.868 84.0035C176.53 85.1888 177.772 86.8713 178.416 88.8083C179.06 90.7453 179.071 92.8368 178.449 94.7809C177.827 96.725 176.604 98.4214 174.956 99.6252C173.307 100.829 171.319 101.478 169.278 101.479C167.271 101.479 165.314 100.852 163.68 99.6854C162.046 98.5193 160.817 96.8722 160.164 94.974L160.165 94.979ZM237.715 89.794C236.756 87.0056 236.708 83.9846 237.577 81.1669C238.446 78.3492 240.187 75.8803 242.55 74.1164C244.913 72.3525 247.775 71.3848 250.724 71.3528C253.672 71.3209 256.555 72.2263 258.955 73.9385C261.356 75.6508 263.151 78.0814 264.08 80.8796C265.01 83.6779 265.027 86.6991 264.129 89.5077C263.231 92.3162 261.463 94.7668 259.082 96.5059C256.701 98.245 253.829 99.1828 250.88 99.184C247.981 99.1838 245.154 98.2789 242.794 96.5955C240.434 94.912 238.658 92.534 237.714 89.793L237.715 89.794ZM131.443 90.539L141.772 79.159C143.173 79.5594 144.449 80.3105 145.479 81.3412C146.509 82.3719 147.259 83.6483 147.659 85.0497C148.058 86.451 148.094 87.9311 147.762 89.35C147.43 90.7689 146.742 92.0799 145.763 93.1589C144.784 94.2379 143.545 95.0493 142.165 95.5166C140.785 95.9838 139.308 96.0914 137.875 95.8292C136.441 95.5669 135.099 94.9435 133.973 94.0179C132.848 93.0922 131.977 91.8949 131.443 90.539ZM271.535 77.863L266.017 92.535C265.496 89.8184 265.735 87.0106 266.709 84.4216C267.683 81.8325 269.353 79.5628 271.535 77.863ZM208.484 80.602C207.673 78.2428 207.632 75.687 208.367 73.303C209.102 70.9191 210.576 68.8303 212.575 67.3379C214.574 65.8456 216.996 65.0268 219.49 64.9997C221.985 64.9726 224.424 65.7386 226.455 67.1872C228.486 68.6357 230.004 70.692 230.791 73.0594C231.578 75.4269 231.592 77.983 230.833 80.3593C230.073 82.7355 228.578 84.8089 226.563 86.2805C224.549 87.752 222.119 88.5457 219.624 88.547C217.171 88.5469 214.78 87.7814 212.783 86.3571C210.786 84.9329 209.283 82.921 208.484 80.602ZM179.634 75.813C178.897 73.669 178.861 71.3465 179.529 69.1804C180.198 67.0142 181.537 65.1164 183.354 63.7606C185.171 62.4048 187.371 61.661 189.638 61.6366C191.905 61.6122 194.121 62.3084 195.967 63.6248C197.812 64.9411 199.192 66.8097 199.907 68.9609C200.622 71.1121 200.636 73.4349 199.945 75.5942C199.255 77.7535 197.897 79.6378 196.066 80.9753C194.236 82.3128 192.028 83.0344 189.761 83.036C187.531 83.0357 185.357 82.3396 183.542 81.0448C181.727 79.7501 180.36 77.9211 179.634 75.813ZM257.153 67.241C256.085 64.1366 256.065 60.7675 257.096 57.6506C258.127 54.5337 260.152 51.8411 262.861 49.986C259.585 50.1925 256.331 49.3179 253.599 47.4965C250.868 45.6751 248.81 43.0075 247.741 39.9033C246.672 36.7991 246.651 33.4299 247.682 30.3129C248.713 27.196 250.739 24.5035 253.448 22.649C250.803 22.8164 248.161 22.2795 245.791 21.0931C243.421 19.9068 241.408 18.1133 239.957 15.8954C238.506 13.6776 237.669 11.1147 237.532 8.46805C237.394 5.82135 237.96 3.18545 239.173 0.828979H300.505L297.476 8.883C297.308 8.82766 297.141 8.76931 296.976 8.70798C297.082 8.93664 297.182 9.16999 297.276 9.40799L271.725 77.349C271.592 77.3523 271.458 77.354 271.325 77.354C268.204 77.3521 265.162 76.3769 262.622 74.5644C260.082 72.7519 258.17 70.1922 257.153 67.242V67.241ZM276.722 48.36C276.688 48.267 276.655 48.174 276.622 48.08C275.765 45.6032 275.531 42.9538 275.939 40.365C274.852 43.2157 272.921 45.6672 270.405 47.393C270.72 47.373 271.034 47.363 271.348 47.363C273.185 47.3638 275.006 47.7021 276.721 48.361L276.722 48.36ZM276.765 37.227C277.577 35.0612 278.844 33.0951 280.482 31.462C278.999 31.2826 277.549 30.8976 276.172 30.318C276.911 32.5426 277.114 34.9101 276.765 37.228V37.227ZM267.309 21.027C267.275 20.934 267.241 20.841 267.209 20.747C266.352 18.2704 266.117 15.6208 266.525 13.032C265.436 15.8816 263.505 18.3318 260.988 20.056C261.303 20.036 261.617 20.026 261.931 20.026C263.768 20.0266 265.59 20.3649 267.305 21.024L267.309 21.027ZM267.353 9.89398C268.164 7.72809 269.431 5.76198 271.069 4.129C269.587 3.94952 268.136 3.56448 266.76 2.98499C267.497 5.20926 267.7 7.57576 267.352 9.89297L267.353 9.89398ZM151.214 68.753L163.266 55.476C164.737 56.0307 166.05 56.9367 167.091 58.1152C168.132 59.2937 168.869 60.7089 169.237 62.2374C169.606 63.7659 169.595 65.3613 169.206 66.8846C168.816 68.4079 168.06 69.8129 167.003 70.9771C165.947 72.1412 164.621 73.0293 163.143 73.5638C161.664 74.0984 160.077 74.2632 158.52 74.0439C156.963 73.8246 155.484 73.2278 154.21 72.3056C152.937 71.3834 151.908 70.1638 151.214 68.753ZM228.302 62.453C227.343 59.6648 227.295 56.6441 228.164 53.8266C229.033 51.0091 230.775 48.5405 233.137 46.7768C235.5 45.0132 238.362 44.0456 241.311 44.0138C244.259 43.982 247.141 44.8875 249.541 46.5997C251.942 48.3119 253.736 50.7423 254.666 53.5403C255.596 56.3384 255.613 59.3595 254.714 62.1677C253.816 64.976 252.049 67.4263 249.668 69.1653C247.286 70.9042 244.415 71.8419 241.466 71.843C238.568 71.8418 235.743 70.9366 233.383 69.2534C231.024 67.5702 229.249 65.193 228.305 62.453H228.302ZM199.072 53.266C198.261 50.907 198.22 48.3514 198.955 45.9677C199.691 43.584 201.164 41.4955 203.163 40.0034C205.162 38.5112 207.584 37.6927 210.078 37.6657C212.572 37.6387 215.011 38.4047 217.042 39.8532C219.073 41.3018 220.591 43.358 221.378 45.7252C222.164 48.0924 222.179 50.6484 221.419 53.0243C220.659 55.4003 219.164 57.4735 217.15 58.9449C215.135 60.4162 212.706 61.2098 210.211 61.211C207.758 61.2107 205.367 60.4451 203.37 59.0209C201.374 57.5967 199.871 55.5849 199.072 53.266ZM170.222 48.477C170.165 48.313 170.113 48.149 170.066 47.985L182.341 34.462C184.191 34.8118 185.916 35.6429 187.342 36.8716C188.768 38.1002 189.846 39.6831 190.466 41.4608C191.085 43.2384 191.226 45.148 190.873 46.9971C190.519 48.8462 189.685 50.5696 188.454 51.9937C187.223 53.4178 185.638 54.4922 183.859 55.1087C182.08 55.7253 180.17 55.8621 178.322 55.5056C176.473 55.149 174.751 54.3116 173.33 53.0776C171.908 51.8437 170.836 50.2569 170.223 48.477H170.222ZM218.89 35.116C217.931 32.3278 217.883 29.3071 218.752 26.4897C219.621 23.6722 221.362 21.2036 223.725 19.44C226.088 17.6763 228.95 16.7087 231.898 16.6768C234.846 16.6449 237.729 17.5503 240.129 19.2624C242.529 20.9745 244.324 23.4048 245.254 26.2028C246.184 29.0007 246.201 32.0217 245.302 34.83C244.404 37.6383 242.637 40.0887 240.256 41.8278C237.875 43.5668 235.004 44.5047 232.055 44.506C229.156 44.5059 226.33 43.6011 223.969 41.9178C221.609 40.2346 219.833 37.8568 218.889 35.116H218.89ZM189.778 26.257C194.157 20.7414 198.951 15.5681 204.117 10.782C206.043 11.3468 207.793 12.3943 209.2 13.8249C210.608 15.2555 211.627 17.022 212.161 18.9568C212.694 20.8916 212.725 22.9306 212.249 24.8806C211.774 26.8305 210.809 28.6267 209.444 30.0989C208.08 31.5711 206.363 32.6705 204.455 33.2928C202.546 33.9152 200.511 34.0399 198.541 33.6551C196.571 33.2702 194.733 32.3887 193.199 31.094C191.665 29.7993 190.488 28.1343 189.778 26.257ZM209.478 7.77899C209.374 7.47766 209.281 7.17531 209.2 6.87198C217.4 1.70598 228.35 0.829987 228.35 0.829987H236.374C236.979 4.28138 236.261 7.83393 234.363 10.7797C232.466 13.7254 229.528 15.848 226.136 16.7246C222.743 17.6011 219.145 17.1673 216.058 15.5094C212.971 13.8515 210.622 11.0913 209.479 7.77899H209.478Z" fill="#797979"/>
<path d="M199 112C205.627 112 211 106.627 211 100C211 93.3726 205.627 88 199 88C192.373 88 187 93.3726 187 100C187 106.627 192.373 112 199 112Z" fill="#F4CF4A"/>
<path d="M0.320984 234.991H212.438L300.504 0.831055H228.346C228.346 0.831055 217.003 1.73805 208.764 7.15205C200.525 12.5661 189.715 26.3361 189.715 26.3361L0.320984 234.991Z" fill="url(#paint0_linear)"/>
<defs>
<linearGradient id="paint0_linear" x1="137.505" y1="55.6245" x2="265.695" y2="196.051" gradientUnits="userSpaceOnUse">
<stop stop-opacity="0"/>
<stop offset="1" stop-opacity="0.078"/>
</linearGradient>
</defs>
</svg>
